  0
SECTION
  2
ENTITIES
  0
ARC
  8
2
 10
334.17720736488786
 20
424.3396892667862
 40
55.455478036357626
 50
217.4770535525013
 51
220.54014247835525
 62
2
  0
ARC
  8
2
 10
305.1052504277381
 20
399.4491247874581
 40
17.183847990123805
 50
220.47547670457493
 51
230.12825355642678
 62
2
  0
ARC
  8
2
 10
301.34887316188383
 20
395.1524841211512
 40
11.478870089811384
 50
230.7696473204639
 51
247.03350310775375
 62
2
  0
ARC
  8
2
 10
304.1972263254606
 20
402.05142432276307
 40
18.942487023895936
 50
247.24324875006772
 51
262.83156795209584
 62
2
  0
ARC
  8
2
 10
304.6368255497886
 20
405.87249873837453
 40
22.788586768038215
 50
262.9337858928151
 51
269.5143028484305
 62
2
  0
ARC
  8
2
 10
308.9160118408299
 20
890.2097683488837
 40
507.1447582150475
 50
269.4947185183449
 51
270.04093329378173
 62
2
  0
ARC
  8
2
 10
309.3002758580121
 20
466.22748169403746
 40
83.16234503419963
 50
269.9848777375702
 51
273.02940424621755
 62
2
  0
ARC
  8
2
 10
312.0392169043589
 20
415.4533589952293
 40
32.314469623146316
 50
272.9375947555547
 51
279.03004472637383
 62
2
  0
ARC
  8
2
 10
314.7937780405938
 20
398.28967618623454
 40
14.931199214700726
 50
278.928198601962
 51
288.9356979266785
 62
2
  0
ARC
  8
2
 10
316.30639241104
 20
393.47670561396427
 40
9.888705646531927
 50
289.6952346710252
 51
301.9134537943246
 62
2
  0
ARC
  8
2
 10
294.67213679715115
 20
427.8253318411815
 40
50.48255752504852
 50
302.1474924373273
 51
304.39223119963304
 62
2
  0
ARC
  8
2
 10
333.9103447400994
 20
370.3534313865913
 40
19.106774187672393
 50
116.22029007529994
 51
124.13938862204911
 62
2
  0
ARC
  8
2
 10
353.7473703895125
 20
328.18430156178977
 40
65.7065607682975
 50
113.0763088789148
 51
115.49173550889518
 62
2
  0
ARC
  8
2
 10
317.5272600635216
 20
413.1036870144633
 40
26.6146276502059
 50
293.1563561619184
 51
296.72479060408943
 62
2
  0
ARC
  8
2
 10
327.51667955201293
 20
393.3507167873466
 40
4.479606566493452
 50
296.2221312673328
 51
306.8602261229609
 62
2
  0
ARC
  8
2
 10
329.2472238713899
 20
390.9453340598981
 40
1.5180835639134937
 50
309.0609130061094
 51
324.43984505398555
 62
2
  0
ARC
  8
2
 10
330.65522759511236
 20
389.95297985709357
 40
0.20477192315522563
 50
120.23924520779798
 51
147.67313357463294
 62
2
  0
ARC
  8
2
 10
330.5585177413313
 20
390.08166129240226
 40
0.04865205530037313
 50
18.678140261936505
 51
97.57761931713611
 62
2
  0
ARC
  8
2
 10
320.06137397856423
 20
385.500537370874
 40
11.50171580715487
 50
18.385293115259003
 51
23.556539751944815
 62
2
  0
ARC
  8
2
 10
374.2753484060952
 20
405.8037768350294
 40
46.39942224637315
 50
201.0628008567531
 51
204.9837309362179
 62
2
  0
ARC
  8
2
 10
431.1161509639211
 20
431.94585040037015
 40
108.9633379241716
 50
204.8199718527281
 51
207.18081808220643
 62
2
  0
ARC
  8
2
 10
3586.3251839492937
 20
2066.520959117565
 40
3662.436987424018
 50
207.38056336287843
 51
207.4899393465646
 62
2
  0
ARC
  8
2
 10
151.25746059372617
 20
279.45937327389015
 40
209.6788563051074
 50
24.915227085519973
 51
27.40390206657419
 62
2
  0
ARC
  8
2
 10
232.81846022234893
 20
317.39161097085514
 40
119.7286022861214
 50
20.83507099990686
 51
24.895031484675062
 62
2
  0
ARC
  8
2
 10
271.72308659623496
 20
332.20948461018475
 40
78.09761460567815
 50
15.624163051327514
 51
20.82674962022817
 62
2
  0
ARC
  8
2
 10
296.88749431782026
 20
339.2598905371212
 40
51.96419909105228
 50
9.085066613968309
 51
15.610426902158025
 62
2
  0
ARC
  8
2
 10
313.9788725840557
 20
341.98112727051125
 40
34.657549005461476
 50
0.5868064741683838
 51
9.104312946841198
 62
2
  0
ARC
  8
2
 10
321.35519651700974
 20
342.1849644577556
 40
27.27982594586665
 50
-18.717746700176292
 51
0.31737564436874166
 62
2
  0
ARC
  8
2
 10
317.9601290538153
 20
343.39600200645026
 40
30.88401459487056
 50
327.4315096869745
 51
341.17560168807057
 62
2
  0
ARC
  8
2
 10
311.64265442198865
 20
347.4462558001932
 40
38.38834093020775
 50
315.75434257247997
 51
327.41270045796904
 62
2
  0
ARC
  8
2
 10
305.27013886086206
 20
353.622975170026
 40
47.26304866522844
 50
303.0393370520635
 51
315.78054205423524
 62
2
  0
ARC
  8
2
 10
309.52313939140765
 20
346.6858012593578
 40
39.12944359410737
 50
295.517500554359
 51
303.35704560740993
 62
2
  0
ARC
  8
2
 10
315.3355166707973
 20
334.4144524012329
 40
25.55125643460972
 50
282.8186669701148
 51
295.6092882271187
 62
2
  0
ARC
  8
2
 10
315.95311687255577
 20
332.46102693019316
 40
23.510097398487083
 50
271.47271751855453
 51
282.40726447705435
 62
2
  0
ARC
  8
2
 10
315.66153074483475
 20
348.912286554524
 40
39.96363258770851
 50
265.6625321498226
 51
271.28443963521676
 62
2
  0
ARC
  8
2
 10
318.51638803816735
 20
398.8502192315627
 40
89.97926058728581
 50
262.3449079736637
 51
266.25484093705904
 62
2
  0
ARC
  8
2
 10
313.1805691963032
 20
359.18355641114505
 40
49.95532938562783
 50
256.31187891560523
 51
262.34983112857117
 62
2
  0
ARC
  8
2
 10
308.45938910420523
 20
339.95159432619533
 40
30.152406677682624
 50
247.46009212572858
 51
256.38047976096846
 62
2
  0
ARC
  8
2
 10
306.1323578462514
 20
333.7853823909984
 40
23.566176396325293
 50
235.20918621080403
 51
246.93882319730568
 62
2
  0
ARC
  8
2
 10
313.4751406695349
 20
344.296781005571
 40
36.388238362516034
 50
228.3062173810781
 51
235.15788950016383
 62
2
  0
ARC
  8
2
 10
365.65666240368074
 20
402.8645418380355
 40
114.82989692628797
 50
226.18043911331708
 51
228.30213775289278
 62
2
  0
ARC
  8
2
 10
104.17004003332914
 20
127.59380745048658
 40
264.84211786504017
 50
46.59705488885385
 51
47.120935443823974
 62
2
  0
ARC
  8
2
 10
299.4601359232312
 20
338.054303483125
 40
22.26755568625985
 50
220.7515881223498
 51
227.38228521219756
 62
2
  0
ARC
  8
2
 10
291.8861494655637
 20
331.43333305620837
 40
12.208073383497197
 50
203.4920822998589
 51
220.41581562072014
 62
2
  0
ARC
  8
2
 10
294.30809500174325
 20
332.40065576039007
 40
14.815079699463102
 50
191.7408148520527
 51
203.18928210275274
 62
2
  0
ARC
  8
2
 10
302.75631663048705
 20
334.13683487029795
 40
23.439842471315945
 50
182.5420500896445
 51
191.69381022208708
 62
2
  0
ARC
  8
2
 10
320.75270306693994
 20
334.9793982426271
 40
41.4559121187174
 50
175.9245198282556
 51
182.60223719224305
 62
2
  0
ARC
  8
2
 10
360.1393123245242
 20
332.2445240049486
 40
80.93732450722615
 50
171.92197714447548
 51
175.97497256958562
 62
2
  0
ARC
  8
2
 10
458.9007167134263
 20
318.3154477186734
 40
180.6761371847532
 50
169.0059524744869
 51
171.94963983347904
 62
2
  0
ARC
  8
2
 10
690.0880537116319
 20
273.65295322784795
 40
416.1380170637567
 50
167.15995634908518
 51
169.03985628754492
 62
2
  0
ARC
  8
2
 10
1362.451900305056
 20
121.29139843110508
 40
1105.548563945768
 50
166.35693488638412
 51
167.20492821211155
 62
2
  0
ARC
  8
2
 10
3692.7377783914612
 20
-439.56676992318324
 40
3502.3771827895303
 50
166.34021421531565
 51
166.43247476561635
 62
2
  0
ARC
  8
2
 10
12781.554565212682
 20
-2646.9610246204097
 40
12855.407677190924
 50
166.33253080683585
 51
166.3465517930289
 62
2
  0
ARC
  8
2
 10
1285.9379584642631
 20
141.95584573758768
 40
1021.7720498938866
 50
166.53113445986003
 51
167.1749887798719
 62
2
  0
ARC
  8
2
 10
533.8217818381663
 20
313.11731382718887
 40
250.4258389530212
 50
167.16150639577302
 51
168.92698334293527
 62
2
  0
ARC
  8
2
 10
374.06672764943295
 20
344.2945725295547
 40
87.6570525613618
 50
168.87097572432276
 51
171.99575985491006
 62
2
  0
ARC
  8
2
 10
317.41171105421614
 20
352.225720731651
 40
30.449618905700788
 50
171.92966632708158
 51
177.0215800175699
 62
2
  0
ARC
  8
2
 10
296.94010273749575
 20
353.2841632333435
 40
9.950669890970087
 50
176.98306785852162
 51
185.83715872899276
 62
2
  0
ARC
  8
2
 10
290.54235034539374
 20
352.60649828490443
 40
3.5172489999427134
 50
185.45450146940476
 51
202.37796227173988
 62
2
  0
ARC
  8
2
 10
288.47004116439757
 20
351.70479496982637
 40
1.2585074798478757
 50
200.3361245205312
 51
251.42897227034751
 62
2
  0
ARC
  8
2
 10
288.5776434913654
 20
352.3829814414226
 40
1.9390031681426718
 50
254.79919883579885
 51
280.04362844660733
 62
2
  0
ARC
  8
2
 10
287.4864196078237
 20
359.0404195411524
 40
8.685156106619464
 50
279.4726975961546
 51
286.68566789133456
 62
2
  0
ARC
  8
2
 10
292.32227874564154
 20
342.81465575880503
 40
8.245930224897464
 50
99.3743992020676
 51
106.50143792653664
 62
2
  0
ARC
  8
2
 10
291.3136510674258
 20
349.25681724662707
 40
1.7263633329657802
 50
58.579377843820794
 51
101.17268637726808
 62
2
  0
ARC
  8
2
 10
290.8594799111225
 20
348.68764394449585
 40
2.4505267272516518
 50
30.612569802265227
 51
56.4546482391423
 62
2
  0
ARC
  8
2
 10
287.8892847386303
 20
346.89842516247165
 40
5.917954250814075
 50
14.704037872633364
 51
30.877294786609905
 62
2
  0
ARC
  8
2
 10
280.41960790607953
 20
344.8743074856142
 40
13.65691205035301
 50
2.454651923202732
 51
14.963432231101617
 62
2
  0
ARC
  8
2
 10
286.3099624056706
 20
345.0038063417752
 40
7.767388381348585
 50
-8.762700580984301
 51
3.361225807173202
 62
2
  0
ARC
  8
2
 10
290.600370784674
 20
344.31992746158255
 40
3.4229474019513177
 50
329.4632211683395
 51
351.6103258696371
 62
2
  0
ARC
  8
2
 10
291.4641206717334
 20
343.8770382195366
 40
2.454639944250612
 50
298.33202824806085
 51
328.1232331674761
 62
2
  0
ARC
  8
2
 10
290.3739794063064
 20
345.96224362951676
 40
4.80751664496625
 50
279.8036083978023
 51
297.9739889192253
 62
2
  0
ARC
  8
2
 10
289.0647778011238
 20
353.14549972977034
 40
12.108981970733167
 50
272.9046592227415
 51
280.12053462730864
 62
2
  0
ARC
  8
2
 10
289.90541547804963
 20
334.8316996941789
 40
6.224516699492705
 50
92.09019834306065
 51
100.88905411575334
 62
2
  0
ARC
  8
2
 10
289.2578745576488
 20
338.54120766266107
 40
2.460328960935209
 50
102.39998969303264
 51
152.69240375216916
 62
2
  0
ARC
  8
2
 10
289.1318860172624
 20
338.6903232642118
 40
2.2811949953803454
 50
154.56890115665533
 51
180.89921768437273
 62
2
  0
ARC
  8
2
 10
291.8072856256489
 20
338.81671886293515
 40
4.9589668967220994
 50
181.87434176669552
 51
199.87664171051077
 62
2
  0
ARC
  8
2
 10
294.96711006149206
 20
339.8030556026226
 40
8.267203840296297
 50
198.8595336560936
 51
214.80320693131506
 62
2
  0
ARC
  8
2
 10
292.2950584412881
 20
337.89687269550006
 40
4.985325351532058
 50
214.34232832237683
 51
233.58844769333783
 62
2
  0
ARC
  8
2
 10
290.93724527746224
 20
335.99745226555746
 40
2.650976077513109
 50
232.83786257578745
 51
267.67054010097144
 62
2
  0
ARC
  8
2
 10
290.81970747811295
 20
337.74157914876633
 40
4.392923172539694
 50
270.1276550825865
 51
284.27065674096644
 62
2
  0
ARC
  8
2
 10
294.98989741746726
 20
321.7321331110842
 40
12.150840568183689
 50
97.9772924523337
 51
104.71925753966144
 62
2
  0
ARC
  8
2
 10
291.68977081643675
 20
350.1077789609134
 40
16.421877191050072
 50
275.6397245184048
 51
279.90308407218794
 62
2
  0
ARC
  8
2
 10
293.74175170379056
 20
338.07708013393756
 40
4.217800162130931
 50
280.55050619763904
 51
300.67028224308393
 62
2
  0
ARC
  8
2
 10
291.6705653367596
 20
341.1623420164767
 40
7.930711619573044
 50
302.1708479272995
 51
314.61923868748676
 62
2
  0
ARC
  8
2
 10
276.8241220529782
 20
356.3058434152438
 40
29.1378144944849
 50
314.483318419882
 51
319.7298421236998
 62
2
  0
ARC
  8
2
 10
290.2314912496609
 20
345.31993670898197
 40
11.810134178231221
 50
318.35132951086223
 51
326.8035839237559
 62
2
  0
ARC
  8
2
 10
296.43911732540914
 20
341.3185135760089
 40
4.425065440299803
 50
326.1515379793378
 51
355.2495208451851
 62
2
  0
ARC
  8
2
 10
294.43931403391196
 20
341.20433092783657
 40
6.414630885803967
 50
-2.254011275917833
 51
30.366821282926978
 62
2
  0
ARC
  8
2
 10
294.4580861411665
 20
341.0614780415682
 40
6.472012681594884
 50
31.542069960888625
 51
42.03542031892254
 62
2
  0
ARC
  8
2
 10
304.3590627151128
 20
350.0595198824257
 40
6.906955112978219
 50
215.6643564033414
 51
222.47948462619254
 62
2
  0
ARC
  8
2
 10
299.62617565012295
 20
346.70508780806455
 40
1.1065107820021323
 50
172.5343533418461
 51
217.43278141313414
 62
2
  0
ARC
  8
2
 10
300.4279834725815
 20
346.4509087248231
 40
1.9401886883655037
 50
140.82218443548584
 51
168.16412706361717
 62
2
  0
ARC
  8
2
 10
301.59809082979393
 20
345.64741918239827
 40
3.3568474678573526
 50
119.03126617563572
 51
142.80821970241863
 62
2
  0
ARC
  8
2
 10
300.9749319584194
 20
346.85857440867505
 40
1.995918030026006
 50
87.71069551086163
 51
120.26274234568706
 62
2
  0
ARC
  8
2
 10
300.68948661849174
 20
345.2486850211134
 40
3.622666522551469
 50
71.34619230804577
 51
84.21463230949296
 62
2
  0
ARC
  8
2
 10
303.25560162571134
 20
352.9037155251838
 40
4.451036310025612
 50
251.56686108693415
 51
262.1150466242649
 62
2
  0
ARC
  8
2
 10
302.82572812274555
 20
349.973539051255
 40
1.4897818478915705
 50
263.03174909694593
 51
297.05925638667276
 62
2
  0
ARC
  8
2
 10
302.4300200193399
 20
350.6165172911246
 40
2.2431894632728087
 50
298.58926110966297
 51
320.6895455896533
 62
2
  0
ARC
  8
2
 10
298.61900100832764
 20
353.68706074817214
 40
7.137230176614295
 50
320.9994940363841
 51
333.975153560236
 62
2
  0
ARC
  8
2
 10
291.27087318575457
 20
357.4951889101321
 40
15.412414790038705
 50
333.23933540772305
 51
344.2978425045227
 62
2
  0
ARC
  8
2
 10
296.7868667729962
 20
356.026898491277
 40
9.705220490741805
 50
343.82947972101596
 51
353.58879534525846
 62
2
  0
ARC
  8
2
 10
302.8789719914056
 20
355.3659962696777
 40
3.577493331564383
 50
-6.787500481501866
 51
8.09623718353221
 62
2
  0
ARC
  8
2
 10
305.36114323664174
 20
355.7649011431237
 40
1.0648479600649468
 50
5.655407387386617
 51
60.47125470676872
 62
2
  0
ARC
  8
2
 10
305.22863749545576
 20
355.3028827582489
 40
1.5362794023538973
 50
64.66758032498393
 51
93.50236269496052
 62
2
  0
ARC
  8
2
 10
305.4129486589083
 20
351.7838784255698
 40
5.060065743391843
 50
93.15125295617884
 51
107.83967294965424
 62
2
  0
ARC
  8
2
 10
314.57793965115343
 20
322.72656783245395
 40
35.52840784453121
 50
107.55338507754345
 51
110.50440800980523
 62
2
  0
ARC
  8
2
 10
284.1757132684743
 20
406.65152836437045
 40
53.736676808849516
 50
286.3355423093135
 51
289.52226652928374
 62
2
  0
ARC
  8
2
 10
290.34231853597583
 20
384.275365516747
 40
30.531699292704033
 50
284.86032186937507
 51
287.04097374341524
 62
2
  0
ARC
  8
2
 10
297.22157561389776
 20
358.25760445859027
 40
3.6199279476413913
 50
263.86614582633604
 51
285.23122332211835
 62
2
  0
ARC
  8
2
 10
297.22318170291487
 20
357.4650469694074
 40
2.8333935314968346
 50
235.52416074307362
 51
262.12109668927536
 62
2
  0
ARC
  8
2
 10
298.54237353733026
 20
359.35416239582554
 40
5.137486108088061
 50
220.03214892584407
 51
235.3217942380378
 62
2
  0
ARC
  8
2
 10
305.8928326005567
 20
365.54603381575487
 40
14.748337298135981
 50
207.66568203298235
 51
220.08293229432147
 62
2
  0
ARC
  8
2
 10
306.17616815801483
 20
365.9729241787789
 40
15.199489227543294
 50
199.58841925266898
 51
208.5950342428128
 62
2
  0
ARC
  8
2
 10
297.68715013998576
 20
363.0079382696437
 40
6.207949801123209
 50
179.34691473522025
 51
200.07435326911963
 62
2
  0
ARC
  8
2
 10
313.6647952362481
 20
362.22519931942355
 40
22.201603253114996
 50
174.9658533170633
 51
177.7968291912121
 62
2
  0
ARC
  8
2
 10
286.86355207985264
 20
364.5001544527173
 40
4.696662622519823
 50
-3.989659775214932
 51
8.221199457816962
 62
2
  0
ARC
  8
2
 10
308.71440000701125
 20
367.91779123853695
 40
17.420248026137404
 50
183.90947403820408
 51
189.0696365801634
 62
2
  0
ARC
  8
2
 10
299.8345693867415
 20
367.10547971513404
 40
8.508166850016737
 50
169.00597991358362
 51
182.52888046313217
 62
2
  0
ARC
  8
2
 10
308.980946983676
 20
365.1509967505524
 40
17.86026541630656
 50
159.36170493552493
 51
168.44669275075185
 62
2
  0
ARC
  8
2
 10
318.6325574686102
 20
361.8862316815882
 40
28.04534055795998
 50
153.42983888081005
 51
160.06987786708072
 62
2
  0
ARC
  8
2
 10
304.6945935667633
 20
368.9543099126558
 40
12.418204581652477
 50
146.10346450642572
 51
153.83235787995991
 62
2
  0
ARC
  8
2
 10
297.64594646094827
 20
373.7507275160669
 40
3.8928898190308177
 50
126.31848413847172
 51
146.84310585707613
 62
2
  0
ARC
  8
2
 10
293.8623741630919
 20
379.1531381842242
 40
2.7051673063394195
 50
303.115702711346
 51
308.6271017331567
 62
2
  0
ARC
  8
2
 10
295.5053525023359
 20
377.11027820738974
 40
0.084014795774976
 50
-57.030534354815586
 51
23.519027890650904
 62
2
  0
ARC
  8
2
 10
294.30643120228393
 20
376.21791824600126
 40
1.5764933505706895
 50
35.9661721201179
 51
52.45953639521272
 62
2
  0
ARC
  8
2
 10
252.2542184156166
 20
327.73650229001663
 40
65.75194943265922
 50
49.14342629991313
 51
51.15894991212292
 62
2
  0
ARC
  8
2
 10
14.161071824386056
 20
36.25995327391733
 40
442.1106673402675
 50
50.816157018691456
 51
50.95106703562946
 62
2
  0
ARC
  8
2
 10
-569.2025222561516
 20
-682.4395567556713
 40
1367.7682952019657
 50
50.93951148322765
 51
50.95294445415883
 62
2
  0
ARC
  8
2
 10
-2752.334267893198
 20
-3373.786710565464
 40
4833.228397485884
 50
50.952395783732015
 51
50.95493816878075
 62
2
  0
ARC
  8
2
 10
-778.4322108000156
 20
-72.78889193614094
 40
1196.845730114607
 50
21.7585737665828
 51
22.327974857454304
 62
2
  0
ARC
  8
2
 10
78.30709366098515
 20
269.07476152909214
 40
274.41797501596466
 50
20.15632863221481
 51
21.775888041364688
 62
2
  0
ARC
  8
2
 10
251.8048576844273
 20
332.6962632395074
 40
89.62306479937848
 50
17.418282884769383
 51
20.19422466642792
 62
2
  0
ARC
  8
2
 10
310.4323906806196
 20
351.01300022412516
 40
28.2009717214999
 50
12.714185541900235
 51
17.56670734322978
 62
2
  0
ARC
  8
2
 10
329.8028708056906
 20
355.3252137746617
 40
8.356581420190425
 50
2.9277817423392776
 51
13.10312591737014
 62
2
  0
ARC
  8
2
 10
335.7085556528328
 20
355.60479516059075
 40
2.4444278871307614
 50
-15.293802988188986
 51
3.453518824545604
 62
2
  0
ARC
  8
2
 10
337.3099608207573
 20
355.1389165083451
 40
0.7773190853285736
 50
290.2808348076154
 51
346.6952343253407
 62
2
  0
ARC
  8
2
 10
337.19128145968773
 20
355.69552706635903
 40
1.3430413088853848
 50
260.4822858263137
 51
286.797038622886
 62
2
  0
ARC
  8
2
 10
337.97798170831015
 20
360.5216738835945
 40
6.232876144100284
 50
250.25835431959956
 51
260.6858510179515
 62
2
  0
ARC
  8
2
 10
330.30877982659587
 20
338.86852639950445
 40
16.73838530610163
 50
70.58539887848286
 51
75.33708825873708
 62
2
  0
ARC
  8
2
 10
333.4062828950664
 20
350.54309452578445
 40
4.660144365974912
 50
75.84633466138575
 51
99.43564006287505
 62
2
  0
ARC
  8
2
 10
333.2351990987272
 20
351.7588256610443
 40
3.4329500277647718
 50
99.94531454332855
 51
135.805032960789
 62
2
  0
ARC
  8
2
 10
333.86294441510233
 20
351.20190898487834
 40
4.271425338141062
 50
136.31890696540347
 51
158.10416360187418
 62
2
  0
ARC
  8
2
 10
337.38824030044924
 20
349.84262044304245
 40
8.049501842307405
 50
158.4844102127936
 51
176.6612287937379
 62
2
  0
ARC
  8
2
 10
338.8928978301954
 20
349.6016721663543
 40
9.56686020539677
 50
175.74542204143003
 51
189.69527813221822
 62
2
  0
ARC
  8
2
 10
334.7909025667627
 20
348.8419870266569
 40
5.395827138609291
 50
189.07912140317808
 51
206.65047242657494
 62
2
  0
ARC
  8
2
 10
333.1694099040758
 20
348.07902672772457
 40
3.604665569945269
 50
207.3723106899514
 51
240.1686308593241
 62
2
  0
ARC
  8
2
 10
334.20709603163436
 20
350.1258490609425
 40
5.897646670919971
 50
241.3151190306186
 51
260.5724751237656
 62
2
  0
ARC
  8
2
 10
334.02479147526674
 20
347.92381609375064
 40
3.699916400136272
 50
257.77076310102495
 51
275.44061164960544
 62
2
  0
ARC
  8
2
 10
334.11745747399686
 20
346.40809864792834
 40
2.182847940258194
 50
276.7915367883306
 51
306.7275727625251
 62
2
  0
ARC
  8
2
 10
333.2433969412753
 20
347.52666694910147
 40
3.6022035978570566
 50
307.2307249272027
 51
325.06219632510545
 62
2
  0
ARC
  8
2
 10
325.698021654127
 20
352.71086951407506
 40
12.756831415201516
 50
325.38226258745
 51
333.1049861460315
 62
2
  0
ARC
  8
2
 10
385.4233245095536
 20
321.88709151423205
 40
54.45380331192753
 50
150.98223309212892
 51
152.60769585400368
 62
2
  0
ARC
  8
2
 10
342.0140059712787
 20
345.99292842911524
 40
4.800460837693504
 50
142.01953193032267
 51
151.25421631370835
 62
2
  0
ARC
  8
2
 10
338.9084819688282
 20
348.434965437908
 40
0.8499220544805058
 50
120.58189875014364
 51
142.94627824180577
 62
2
  0
ARC
  8
2
 10
338.5774642679665
 20
349.0030266221727
 40
0.19250724893302662
 50
49.78391099155738
 51
121.78384779954277
 62
2
  0
ARC
  8
2
 10
338.25696674809683
 20
348.70220833091713
 40
0.6311768638929798
 50
14.591283944811948
 51
45.19420742710375
 62
2
  0
ARC
  8
2
 10
334.1005684801046
 20
347.44277080219905
 40
4.973766635134119
 50
3.643945100484359
 51
16.569923097917666
 62
2
  0
ARC
  8
2
 10
318.35861605208436
 20
346.2098860115686
 40
20.763523132601396
 50
-5.401896884059283
 51
4.278346278764014
 62
2
  0
ARC
  8
2
 10
325.80723775231513
 20
345.3209985741902
 40
13.265573119346254
 50
346.7364276201024
 51
355.3916268080136
 62
2
  0
ARC
  8
2
 10
333.4733282356467
 20
343.48383175066493
 40
5.38255299489939
 50
328.205218967565
 51
347.04855130763
 62
2
  0
ARC
  8
2
 10
334.29857954561663
 20
343.1042837409837
 40
4.482567452885935
 50
309.2517784407179
 51
326.770762602988
 62
2
  0
ARC
  8
2
 10
321.5325191043015
 20
358.8668718470172
 40
24.766306975147547
 50
305.99706847154994
 51
309.0487495570335
 62
2
  0
ARC
  8
2
 10
333.1016704131438
 20
342.7184810925941
 40
4.903554796169575
 50
289.3277878534061
 51
307.5294395552097
 62
2
  0
ARC
  8
2
 10
333.4929978037713
 20
341.9256331831703
 40
4.027290928726992
 50
266.61114258120915
 51
287.8072986122806
 62
2
  0
ARC
  8
2
 10
333.6702447959761
 20
344.6554175430872
 40
6.762797229099454
 50
251.81323094893798
 51
266.4792016574618
 62
2
  0
ARC
  8
2
 10
336.9301969915374
 20
354.43267288732557
 40
17.069163776256417
 50
242.7443574164654
 51
251.66061850240231
 62
2
  0
ARC
  8
2
 10
346.7802172583525
 20
374.0144771914396
 40
38.988342787880725
 50
235.27244042477275
 51
243.05490544849272
 62
2
  0
ARC
  8
2
 10
338.6779264649248
 20
362.6321719680802
 40
25.01850520445314
 50
229.91939964918484
 51
235.672798300925
 62
2
  0
ARC
  8
2
 10
327.4332272229415
 20
349.3136285546144
 40
7.587951690932809
 50
220.1894060005116
 51
230.1340293476579
 62
2
  0
ARC
  8
2
 10
323.37150261548
 20
345.91544244430963
 40
2.2923706711654446
 50
200.5813003637675
 51
220.81854901626957
 62
2
  0
ARC
  8
2
 10
322.1335939919074
 20
345.4452349628431
 40
0.9681905426369066
 50
155.2591360849786
 51
200.2838360111342
 62
2
  0
ARC
  8
2
 10
323.1389756139002
 20
344.88330606954037
 40
2.118358727971788
 50
131.46431249445948
 51
152.83546162037442
 62
2
  0
ARC
  8
2
 10
338.9125742379668
 20
327.68100149963647
 40
25.457388971323585
 50
129.3266815982593
 51
132.43139682488652
 62
2
  0
ARC
  8
2
 10
317.1888403824158
 20
354.12737681667323
 40
8.767412495847395
 50
309.6150935906912
 51
317.2672449948928
 62
2
  0
ARC
  8
2
 10
321.8773698843347
 20
349.82356841159316
 40
2.403170558596807
 50
316.7837671381049
 51
335.554303646908
 62
2
  0
ARC
  8
2
 10
323.2512357134597
 20
349.2054687594211
 40
0.8966970217014872
 50
-24.820024616588512
 51
20.382583093212688
 62
2
  0
ARC
  8
2
 10
322.5735374395297
 20
348.87745142399314
 40
1.6477570564496569
 50
22.867678023158987
 51
50.01463224956664
 62
2
  0
ARC
  8
2
 10
320.28498141733786
 20
346.2145778466507
 40
5.158855309739271
 50
49.54405197156751
 51
65.67212852993185
 62
2
  0
ARC
  8
2
 10
317.9399519954759
 20
341.3904901081721
 40
10.52169315066176
 50
64.85812058896698
 51
74.71414877717086
 62
2
  0
ARC
  8
2
 10
335.31264928267865
 20
407.17007947336805
 40
57.51379257846189
 50
253.84092242233993
 51
255.29564288983082
 62
2
  0
ARC
  8
2
 10
320.62167863358786
 20
356.52657753193097
 40
4.782532942020195
 50
237.31932706376455
 51
254.03526648505593
 62
2
  0
ARC
  8
2
 10
320.0219122766567
 20
355.3885570806665
 40
3.502538580172435
 50
212.65466160170274
 51
235.52513812109882
 62
2
  0
ARC
  8
2
 10
322.3468793468475
 20
356.97463788433487
 40
6.316343081800212
 50
195.86427725227804
 51
213.38843176374468
 62
2
  0
ARC
  8
2
 10
319.8638576936605
 20
356.32937109185605
 40
3.7519544722445546
 50
182.43767573347537
 51
196.7510615695351
 62
2
  0
ARC
  8
2
 10
317.10435090762684
 20
356.23462484500925
 40
0.9911751865694635
 50
154.45911433769407
 51
183.750480734423
 62
2
  0
ARC
  8
2
 10
316.7375149910655
 20
356.3613826294685
 40
0.6071164788228129
 50
109.89212110074874
 51
150.32267270839117
 62
2
  0
ARC
  8
2
 10
317.3438375498625
 20
354.58690095038247
 40
2.4822526828332063
 50
92.92033581013567
 51
109.11603904152244
 62
2
  0
ARC
  8
2
 10
315.8443521980621
 20
378.9175631498223
 40
21.894726692174935
 50
273.59538453467536
 51
280.494809915251
 62
2
  0
ARC
  8
2
 10
310.935591026484
 20
406.15268893444687
 40
49.568542208114614
 50
280.3397619345416
 51
284.5081747724689
 62
2
  0
ARC
  8
2
 10
318.45181387665144
 20
378.18796017358744
 40
20.614384909469457
 50
283.7552861069544
 51
290.37037223943406
 62
2
  0
ARC
  8
2
 10
322.5860503549549
 20
367.18648286411644
 40
8.86196192991301
 50
290.07157300734195
 51
321.95019161626186
 62
2
  0
ARC
  8
2
 10
323.3049943237192
 20
366.7556801553524
 40
8.030959468899965
 50
321.2091106372028
 51
343.1443128250736
 62
2
  0
ARC
  8
2
 10
323.46290059732985
 20
366.50802466543496
 40
7.8103678114196935
 50
-15.452718097111585
 51
1.985085301205082
 62
2
  0
ARC
  8
2
 10
316.35535322412164
 20
366.26560628287865
 40
14.922047518727014
 50
1.9700035541983993
 51
12.384047777181989
 62
2
  0
ARC
  8
2
 10
313.62397810553836
 20
366.1591815544042
 40
17.61928279785875
 50
10.816994445937098
 51
21.28910169609157
 62
2
  0
ARC
  8
2
 10
307.40806155994784
 20
363.33048777487625
 40
24.440988296004225
 50
22.1772020112723
 51
27.859800358921476
 62
2
  0
ARC
  8
2
 10
-167.83662294551172
 20
110.69640458072831
 40
562.6615941303361
 50
27.988695371508356
 51
28.319991871161363
 62
2
  0
ARC
  8
2
 10
356.43946714490534
 20
393.175983872514
 40
32.87191840265227
 50
204.21533372700242
 51
208.24323687255415
 62
2
  0
ARC
  8
2
 10
334.19973102663783
 20
383.2049767928634
 40
8.499316222349854
 50
195.93023468459543
 51
204.4064253037619
 62
2
  0
ARC
  8
2
 10
327.9312029235497
 20
381.44347466829345
 40
1.9882257889061536
 50
176.90133221616972
 51
196.6981779523231
 62
2
  0
ARC
  8
2
 10
326.5754889366272
 20
381.5297207150043
 40
0.6299626587199217
 50
120.68572470533854
 51
178.0688629765847
 62
2
  0
ARC
  8
2
 10
326.79851607679217
 20
381.00893830554907
 40
1.1939356600561284
 50
88.16242402917158
 51
117.13363438430792
 62
2
  0
ARC
  8
2
 10
326.72948669900194
 20
376.71136510987054
 40
5.491943448941651
 50
76.73086161485202
 51
88.88034995193334
 62
2
  0
ARC
  8
2
 10
323.36321908403386
 20
360.01423756225995
 40
22.522810418199185
 50
77.02903605369204
 51
78.14546365933062
 62
2
  0
ARC
  8
2
 10
309.0847886667055
 20
297.61691925713285
 40
86.53294032835365
 50
76.91249141683625
 51
77.08957345219794
 62
2
  0
ARC
  8
2
 10
75.6509595525947
 20
428.9713940581283
 40
247.5349320445562
 50
340.91724308648776
 51
342.49000484519803
 62
2
  0
ARC
  8
2
 10
220.66481525963084
 20
379.03044853011534
 40
94.16284608507321
 50
337.2643307952724
 51
340.7874369963762
 62
2
  0
ARC
  8
2
 10
-722.2247335642198
 20
778.8632470718961
 40
1118.3236586183084
 50
336.77912095097435
 51
337.04112417083593
 62
2
  0
ARC
  8
2
 10
374.16220918252037
 20
308.4637605683745
 40
74.71448317148052
 50
156.76894243443382
 51
160.08895190817262
 62
2
  0
ARC
  8
2
 10
333.0809997387566
 20
323.28770459250654
 40
31.04059665266881
 50
159.99140604090485
 51
168.63017253797335
 62
2
  0
ARC
  8
2
 10
325.76591919407855
 20
324.8940320435504
 40
23.552774318135185
 50
168.95298883573216
 51
180.55945091714668
 62
2
  0
ARC
  8
2
 10
320.35814688852497
 20
324.7379419173818
 40
18.144029673455382
 50
180.23330638990328
 51
190.37346740763365
 62
2
  0
ARC
  8
2
 10
313.27772061433933
 20
323.4266052871335
 40
10.943219430665158
 50
190.295060367288
 51
203.35912407989616
 62
2
  0
ARC
  8
2
 10
309.25963674242416
 20
321.66885304449045
 40
6.557562483498796
 50
203.1796535511797
 51
223.47073919868473
 62
2
  0
ARC
  8
2
 10
308.3654144513069
 20
320.94857186077684
 40
5.41385032543005
 50
224.44956222921428
 51
244.93492608314514
 62
2
  0
ARC
  8
2
 10
309.9480176725643
 20
324.3619401644401
 40
9.17624636483241
 50
245.01297084278414
 51
259.0734623391779
 62
2
  0
ARC
  8
2
 10
311.8398240366588
 20
334.1562745224061
 40
19.15161184003167
 50
259.0704961861069
 51
268.0132928942037
 62
2
  0
ARC
  8
2
 10
314.0013489580122
 20
407.4925592911976
 40
92.51953821336136
 50
268.2499647964349
 51
270.63985906141016
 62
2
  0
ARC
  8
2
 10
315.2063949934865
 20
340.47508815490215
 40
25.496876877827145
 50
269.61383928815644
 51
274.5579783714905
 62
2
  0
ARC
  8
2
 10
316.6026307401274
 20
323.5466736417331
 40
8.511171144260398
 50
274.2445739422018
 51
291.5222626365014
 62
2
  0
ARC
  8
2
 10
316.70928274331004
 20
322.89172222343905
 40
7.864024763013529
 50
292.55006526043445
 51
308.41055436239674
 62
2
  0
ARC
  8
2
 10
312.5659497955272
 20
327.90063501295737
 40
14.363754875083933
 50
308.9475923811031
 51
329.3403128944867
 62
2
  0
ARC
  8
2
 10
314.0680815142406
 20
327.1671510386294
 40
12.698291117828571
 50
328.7309777439485
 51
341.87390319476145
 62
2
  0
ARC
  8
2
 10
318.36786991819463
 20
325.8164881595117
 40
8.191858076342335
 50
-18.504272585397246
 51
4.823235936458637
 62
2
  0
ARC
  8
2
 10
315.9727339006586
 20
325.50648155933015
 40
10.60512357197719
 50
5.404144806957788
 51
19.026123172418536
 62
2
  0
ARC
  8
2
 10
306.3863703515929
 20
322.18638636156777
 40
20.75013732662066
 50
19.06359720161487
 51
26.970563622278696
 62
2
  0
ARC
  8
2
 10
236.487956016802
 20
286.58929632194366
 40
99.19082206384351
 50
26.984613496788597
 51
28.91881375122086
 62
2
  0
ARC
  8
2
 10
2458.084573410717
 20
1476.6752847822715
 40
2421.0948272568194
 50
207.99270062139436
 51
208.14711592371026
 62
2
  0
ARC
  8
2
 10
198.47317867903612
 20
275.6184008985635
 40
137.88569363911287
 50
27.981481792848683
 51
31.511770083419258
 62
2
  0
ARC
  8
2
 10
92.10269550448675
 20
210.1653146221161
 40
262.780707108914
 50
31.556216540750597
 51
32.7171594500254
 62
2
  0
ARC
  8
2
 10
-339.3496809666234
 20
-65.57060591948097
 40
774.8167969489986
 50
32.62793663582397
 51
32.75968117105735
 62
2
  0
ARC
  8
2
 10
-1491.8284118112906
 20
-806.6865916786662
 40
2145.021188884292
 50
32.749380422593504
 51
32.765250186607005
 62
2
  0
ARC
  8
2
 10
-5821.976381347297
 20
-3593.3913596047037
 40
7294.380847683922
 50
32.764129579174096
 51
32.76692978348312
 62
2
  0
ARC
  8
2
 10
186.5946837952444
 20
381.62966019532996
 40
118.66771838933592
 50
356.30830050631016
 51
358.16383904475583
 62
2
  0
ARC
  8
2
 10
277.5191872677958
 20
375.72774163413044
 40
27.551898560735626
 50
351.07098997877324
 51
356.38160221717794
 62
2
  0
ARC
  8
2
 10
295.9038830926562
 20
372.8032900677448
 40
8.93616410461616
 50
340.6963403203091
 51
351.2986808713441
 62
2
  0
ARC
  8
2
 10
300.9486363189814
 20
371.01198871575787
 40
3.582942206587783
 50
318.40375961834155
 51
341.0629655778472
 62
2
  0
ARC
  8
2
 10
301.5074740206602
 20
370.63359082446635
 40
2.915139465425111
 50
287.91086842260916
 51
316.6735442466921
 62
2
  0
ARC
  8
2
 10
301.09632531742
 20
371.6206622330935
 40
3.981782100878101
 50
265.60941708941795
 51
289.17237716249247
 62
2
  0
ARC
  8
2
 10
300.9563685856914
 20
370.29071155165275
 40
2.645289059947417
 50
224.39015529008313
 51
266.4266907356495
 62
2
  0
ARC
  8
2
 10
301.2150958667857
 20
370.4326954431205
 40
2.9305765560576753
 50
198.4767829559766
 51
222.83508004238632
 62
2
  0
ARC
  8
2
 10
304.8431677781829
 20
371.5863215652556
 40
6.737466613472927
 50
185.2072478150327
 51
198.00352133012632
 62
2
  0
ARC
  8
2
 10
323.13512340280556
 20
373.3534463746672
 40
25.114509495391612
 50
180.1241681382291
 51
185.43465711106865
 62
2
  0
ARC
  8
2
 10
270.2922626786215
 20
373.1648259010428
 40
27.728734922724136
 50
0.2772851937705809
 51
2.995500227864506
 62
2
  0
ARC
  8
2
 10
295.25120269296326
 20
374.48835741189316
 40
2.734788821653923
 50
2.6303144551324635
 51
13.510980123681149
 62
2
  0
ARC
  8
2
 10
297.56266402710304
 20
375.05141583684474
 40
0.3558263983971288
 50
12.312049491705295
 51
41.28446550658565
 62
2
  0
ARC
  8
2
 10
297.7608485246299
 20
375.21686039034387
 40
0.09795395710039327
 50
45.053851198208974
 51
118.55084086082203
 62
2
  0
ARC
  8
2
 10
298.11012363542403
 20
374.67702027986456
 40
0.7406866286809533
 50
122.32777261664057
 51
150.1095176873549
 62
2
  0
ARC
  8
2
 10
304.0955159880104
 20
370.93025868567935
 40
7.801596312588199
 50
148.1586706936298
 51
159.13659172174684
 62
2
  0
ARC
  8
2
 10
318.1517429987199
 20
365.15115034591673
 40
22.997743765147742
 50
158.15449367128474
 51
167.0159171627301
 62
2
  0
ARC
  8
2
 10
309.780827097583
 20
366.9698367497144
 40
14.432636514910103
 50
166.58481148623775
 51
175.5576007649916
 62
2
  0
ARC
  8
2
 10
302.03010484732295
 20
367.54404252339685
 40
6.660781836455555
 50
175.31790040409192
 51
198.41368128914826
 62
2
  0
ARC
  8
2
 10
301.9227287460114
 20
367.64941186994133
 40
6.5935465121520425
 50
199.57723922097634
 51
216.45987598370533
 62
2
  0
ARC
  8
2
 10
318.0136529712942
 20
379.7340983999997
 40
26.71695059937608
 50
216.79700480731614
 51
220.14533531617005
 62
2
  0
ARC
  8
2
 10
646.4632361456049
 20
637.1449858539831
 40
444.000982690567
 50
218.21020401514534
 51
218.4378421482816
 62
2
  0
ARC
  8
2
 10
304.5998174570783
 20
365.7851071056543
 40
7.5302071452310875
 50
218.2325414033021
 51
230.2520230408163
 62
2
  0
ARC
  8
2
 10
302.490807874369
 20
363.3196476707862
 40
4.286314661870309
 50
230.85487113815606
 51
259.7434849102908
 62
2
  0
ARC
  8
2
 10
302.346513803683
 20
362.5672389337851
 40
3.5202458591041976
 50
259.873984123894
 51
295.00317139306173
 62
2
  0
ARC
  8
2
 10
302.0245121387063
 20
363.18544100911623
 40
4.2167232164698705
 50
295.418016966769
 51
314.1143621453274
 62
2
  0
ARC
  8
2
 10
298.9057746421233
 20
366.3165893857248
 40
8.635872809757334
 50
314.5093477898201
 51
328.28483033816786
 62
2
  0
ARC
  8
2
 10
290.98145282952805
 20
371.2380258810761
 40
17.964066989184982
 50
328.21869150335664
 51
343.68284968192245
 62
2
  0
ARC
  8
2
 10
294.6132040263844
 20
370.2456945068604
 40
14.199961561377956
 50
343.4084999168485
 51
359.41452542749386
 62
2
  0
ARC
  8
2
 10
285.53605737746125
 20
370.0959596499327
 40
23.276367320354797
 50
0.011410870202951173
 51
8.806419919278227
 62
2
  0
ARC
  8
2
 10
294.37267496505933
 20
371.5904635291089
 40
14.315656446855185
 50
8.310007578124782
 51
16.23091776451017
 62
2
  0
ARC
  8
2
 10
302.8617775061788
 20
374.0983701202109
 40
5.464034145902661
 50
15.862162800973692
 51
29.006078915440632
 62
2
  0
ARC
  8
2
 10
305.9104345785341
 20
375.8237423903685
 40
1.96137781073474
 50
28.1105582034304
 51
69.78823540577955
 62
2
  0
ARC
  8
2
 10
305.62595711954083
 20
374.742659001766
 40
3.0760204811010627
 50
71.77319397848282
 51
89.07170920837711
 62
2
  0
ARC
  8
2
 10
305.27657314136394
 20
367.966855477981
 40
9.859505936095788
 50
87.67941731530578
 51
89.51502735943552
 62
2
  0
ARC
  8
2
 10
304.9404241373085
 20
337.91735976015684
 40
39.91085426625025
 50
89.39761009595378
 51
89.62524045071952
 62
2
  0
ARC
  8
2
 10
315.2197118321175
 20
364.7665176118319
 40
13.02574591528605
 50
91.54620222116341
 51
97.17703274382707
 62
2
  0
ARC
  8
2
 10
314.9596223279762
 20
374.71066638274283
 40
3.078211155338055
 50
74.61395776338526
 51
91.70122550177751
 62
2
  0
ARC
  8
2
 10
315.43769842169235
 20
376.42833568677355
 40
1.2952697267775761
 50
31.868429617858965
 51
74.84431980488924
 62
2
  0
ARC
  8
2
 10
314.9264451251629
 20
376.18511549886307
 40
1.8589515602601796
 50
7.251549069802081
 51
29.91492615886457
 62
2
  0
ARC
  8
2
 10
308.91309477874324
 20
375.3693075015468
 40
7.927339576415063
 50
-2.29228297626571
 51
7.614687926790824
 62
2
  0
ARC
  8
2
 10
428.8041344898897
 20
371.34869367285455
 40
112.03127645104875
 50
178.1055646199054
 51
179.08951162467963
 62
2
  0
ARC
  8
2
 10
326.2264670079665
 20
372.9687569654642
 40
9.440822451472808
 50
179.02799434219943
 51
189.61710486067784
 62
2
  0
ARC
  8
2
 10
321.9872418902985
 20
372.2840125522828
 40
5.146885422373591
 50
189.98554639621057
 51
216.0480601921788
 62
2
  0
ARC
  8
2
 10
320.8800361922558
 20
371.4691129191735
 40
3.7721516834666193
 50
215.93694648023666
 51
249.70905858012094
 62
2
  0
ARC
  8
2
 10
320.577188221974
 20
370.6225211404327
 40
2.873088161060308
 50
249.5189496883274
 51
283.5193140806907
 62
2
  0
ARC
  8
2
 10
320.63699625280736
 20
370.1584732959385
 40
2.4084429892017662
 50
284.7167554962009
 51
316.89783247046665
 62
2
  0
ARC
  8
2
 10
319.8864787764529
 20
370.8263815195504
 40
3.412898541586767
 50
317.3203152466167
 51
339.73287330803964
 62
2
  0
ARC
  8
2
 10
316.81794249626597
 20
371.95966796788525
 40
6.6840226692394715
 50
339.7312533192011
 51
352.6979057985711
 62
2
  0
ARC
  8
2
 10
300.38947321297354
 20
374.160703235043
 40
23.25920169077434
 50
352.4636105663668
 51
358.6696279064457
 62
2
  0
ARC
  8
2
 10
511.1051457510636
 20
368.6486319894108
 40
187.5286656185531
 50
177.8753080868587
 51
178.4807059088065
 62
2
  0
ARC
  8
2
 10
331.77300336078287
 20
375.32849760365366
 40
8.072204594545683
 50
171.54768850652886
 51
178.0644455889997
 62
2
  0
ARC
  8
2
 10
324.972872786725
 20
376.3520249193622
 40
1.195558393053703
 50
154.984784163697
 51
172.1652041553851
 62
2
  0
ARC
  8
2
 10
324.0387204904713
 20
376.8006039908399
 40
0.15976150312772072
 50
82.9606533083147
 51
159.1074954922872
 62
2
  0
ARC
  8
2
 10
323.91443452608155
 20
376.531978387342
 40
0.4507574750331786
 50
35.554147647837056
 51
71.38771575954102
 62
2
  0
ARC
  8
2
 10
321.1649403193439
 20
374.4179232750304
 40
3.9187912401936056
 50
22.797363256831375
 51
37.32602988673322
 62
2
  0
ARC
  8
2
 10
308.49182919985043
 20
368.8524063026125
 40
17.759745680068477
 50
11.449257946292903
 51
23.507955532612286
 62
2
  0
ARC
  8
2
 10
312.95719058471593
 20
369.6959709635375
 40
13.215927810338574
 50
-6.136984182496462
 51
11.707628181119546
 62
2
  0
ARC
  8
2
 10
305.2905536610788
 20
370.6888147334244
 40
20.94543930743931
 50
346.29528598627394
 51
353.4046945708947
 62
2
  0
ARC
  8
2
 10
316.5142627866894
 20
367.7238178359229
 40
9.341437967359084
 50
338.01008736765965
 51
347.65387927376406
 62
2
  0
ARC
  8
2
 10
321.8798333494724
 20
365.52958214993413
 40
3.5446885555576757
 50
312.90880599353073
 51
338.4223071627002
 62
2
  0
ARC
  8
2
 10
322.2758489354515
 20
365.22499400129976
 40
3.0530956904973374
 50
289.13994045200053
 51
311.3569463561935
 62
2
  0
ARC
  8
2
 10
321.1206884480567
 20
368.7607522423523
 40
6.7724905631507895
 50
273.56081460022284
 51
288.5647448513039
 62
2
  0
ARC
  8
2
 10
320.55024764500797
 20
376.1708119814693
 40
14.204092749609877
 50
262.52777800862805
 51
274.0009656894723
 62
2
  0
ARC
  8
2
 10
319.46452152690523
 20
368.86305637937016
 40
6.818367979085127
 50
253.811255238883
 51
263.5880253189813
 62
2
  0
ARC
  8
2
 10
318.23652868454116
 20
364.61647041521377
 40
2.3978027339875854
 50
226.55222218565137
 51
253.6999621866722
 62
2
  0
ARC
  8
2
 10
320.2417031319557
 20
366.5081559514212
 40
5.152441689247008
 50
211.74350944471033
 51
224.82989612808097
 62
2
  0
ARC
  8
2
 10
328.0746887399151
 20
371.7481976896666
 40
14.574436826095742
 50
194.53579725375735
 51
213.06107435662338
 62
2
  0
ARC
  8
2
 10
328.92165769819434
 20
371.9084707928152
 40
15.434628146842048
 50
183.98259352918436
 51
194.32259475635425
 62
2
  0
ARC
  8
2
 10
348.7432415929509
 20
373.28410059097644
 40
35.30388925777794
 50
178.07813935839636
 51
183.97550346621432
 62
2
  0
ARC
  8
2
 10
413.5779192549851
 20
371.7594890586337
 40
100.15534009165125
 50
177.2249580385295
 51
178.4503156593227
 62
2
  0
ARC
  8
2
 10
623.5164901750748
 20
362.10198452865757
 40
310.31571783808243
 50
177.18733550514935
 51
177.3205872356936
 62
2
  0
ARC
  8
2
 10
1557.9704870244498
 20
316.37517679283127
 40
1245.8878448721462
 50
177.17911044391246
 51
177.19572565943434
 62
2
  0
ARC
  8
2
 10
303.92339594918195
 20
280.76943946116944
 40
50.00605515137299
 50
96.4956401692848
 51
99.49434550292393
 62
2
  0
ARC
  8
2
 10
297.83667283523795
 20
317.1621325621994
 40
13.107866728204629
 50
99.4927633058519
 51
107.79387420972556
 62
2
  0
ARC
  8
2
 10
295.46822584529446
 20
324.4650570323626
 40
5.430567519461703
 50
107.54678777487669
 51
123.1003375768809
 62
2
  0
ARC
  8
2
 10
293.8681369110999
 20
326.84684834781956
 40
2.56179215273454
 50
122.21224297863586
 51
164.14115635012683
 62
2
  0
ARC
  8
2
 10
294.36302270662964
 20
326.79021398678634
 40
3.0543857120044726
 50
165.65623171114692
 51
185.5724558822404
 62
2
  0
ARC
  8
2
 10
298.0239946421078
 20
327.2008971056317
 40
6.738146151064418
 50
186.02521884921072
 51
200.91224157386566
 62
2
  0
ARC
  8
2
 10
306.12494373684785
 20
330.26425540831997
 40
15.39892830174201
 50
200.80075341989604
 51
216.3322888862637
 62
2
  0
ARC
  8
2
 10
303.64320960905076
 20
328.26907556258703
 40
12.218345766957835
 50
215.69002688611806
 51
225.29240691495255
 62
2
  0
ARC
  8
2
 10
299.0761550157537
 20
323.63805362193824
 40
5.714190018626917
 50
225.17170004051843
 51
237.1779964741467
 62
2
  0
ARC
  8
2
 10
297.1671045271413
 20
320.6554229203487
 40
2.1729817656341135
 50
236.8512659324375
 51
257.22249713406256
 62
2
  0
ARC
  8
2
 10
296.880360234032
 20
319.3882518279236
 40
0.8737727993321408
 50
257.1824185888348
 51
303.87187986264956
 62
2
  0
ARC
  8
2
 10
296.5637745129289
 20
319.774872328882
 40
1.3720417757289745
 50
305.8507755017609
 51
331.2813709133615
 62
2
  0
ARC
  8
2
 10
294.4223084230922
 20
320.9588893815541
 40
3.8190280442179496
 50
331.14067422413785
 51
347.13040154783033
 62
2
  0
ARC
  8
2
 10
285.7999656275815
 20
323.01216222656836
 40
12.682364800454005
 50
346.7634921401397
 51
355.91845296614
 62
2
  0
ARC
  8
2
 10
254.03835289125604
 20
325.3892578555178
 40
44.53275186974411
 50
-4.223582325354016
 51
0.6860569797996376
 62
2
  0
ARC
  8
2
 10
152.68994590778257
 20
325.1422339825058
 40
145.8800530330973
 50
0.30644980424398227
 51
1.3529128774078942
 62
2
  0
ARC
  8
2
 10
-149.61732124950856
 20
318.6354295230479
 40
448.2571223022858
 50
1.2720465754943575
 51
1.403248066967019
 62
2
  0
ARC
  8
2
 10
-1331.6674985010272
 20
289.943887060432
 40
1630.6554506899433
 50
1.3939680440078632
 51
1.4120650925257552
 62
2
  0
ARC
  8
2
 10
442.79321035134336
 20
331.57969774772306
 40
113.93900018570734
 50
178.70945750621448
 51
180.66062550576032
 62
2
  0
ARC
  8
2
 10
357.04586970093413
 20
330.58973437981206
 40
28.18594513912427
 50
180.6580949031713
 51
185.84945733307117
 62
2
  0
ARC
  8
2
 10
339.1467465817037
 20
328.74089338395646
 40
10.191607219478874
 50
185.76499144904932
 51
194.67920564634443
 62
2
  0
ARC
  8
2
 10
332.95526307975126
 20
327.0901046509817
 40
3.7839970172226143
 50
194.25611311726482
 51
210.60467086553285
 62
2
  0
ARC
  8
2
 10
330.9521436061542
 20
325.88331755304137
 40
1.4456449150212927
 50
209.85672976784167
 51
245.32018970264704
 62
2
  0
ARC
  8
2
 10
330.8071192441246
 20
325.72813342925815
 40
1.245883341742553
 50
248.4019805068118
 51
278.24316826146105
 62
2
  0
ARC
  8
2
 10
330.5326516953328
 20
327.40866678521223
 40
2.948565610434598
 50
278.8394626770948
 51
299.1779814234805
 62
2
  0
ARC
  8
2
 10
328.11421550921705
 20
331.81717339160997
 40
7.976809725775785
 50
298.9072329715817
 51
313.58318046127533
 62
2
  0
ARC
  8
2
 10
324.8613434965872
 20
335.48980647588576
 40
12.88092071420852
 50
312.8018813941642
 51
325.52438818360304
 62
2
  0
ARC
  8
2
 10
328.2171583711387
 20
333.2419307134736
 40
8.842197061013053
 50
325.2230622708942
 51
336.40699618117475
 62
2
  0
ARC
  8
2
 10
332.55039305874254
 20
331.3748966915857
 40
4.123980247363713
 50
336.0825883279805
 51
352.4696989702438
 62
2
  0
ARC
  8
2
 10
334.837091006549
 20
331.08690987135685
 40
1.8193178474756084
 50
-7.976554472744567
 51
33.72224896937379
 62
2
  0
ARC
  8
2
 10
334.34008937435704
 20
330.6520119409336
 40
2.475621817107591
 50
35.70845406910206
 51
60.87595993464086
 62
2
  0
ARC
  8
2
 10
332.63287408734465
 20
327.63223175764
 40
5.944549813595227
 50
60.667424787674236
 51
75.12693706467492
 62
2
  0
ARC
  8
2
 10
329.68074274501777
 20
316.6666194141667
 40
17.300571205403102
 50
74.99913684571209
 51
83.13113628557798
 62
2
  0
ARC
  8
2
 10
324.9904419440749
 20
281.78129064676176
 40
52.49869251970163
 50
82.60241850171946
 51
84.5962303082848
 62
2
  0
ARC
  8
2
 10
314.35304107729047
 20
173.9029495508678
 40
160.8999389030471
 50
84.44282020078725
 51
84.69322482630837
 62
2
  0
ARC
  8
2
 10
274.9343757942811
 20
-248.516950074675
 40
585.1550435091087
 50
84.67552203292297
 51
84.71006746047433
 62
2
  0
ENDSEC
  0
EOF
