0
SECTION
2
HEADER
9
$ACADVER
1
AC1009
9
$DWGCODEPAGE
3
UTF-8
9
$INSBASE
10
0.0
20
0.0
30
0.0
9
$EXTMIN
10
0.0
20
0.0
30
0.0
9
$EXTMAX
10
1000.0
20
1000.0
30
0.0
9
$INSUNITS
70
4
9
$PDMODE
70
0
0
ENDSEC
0
SECTION
2
TABLES
0
TABLE
2
LAYER
70
7
0
LAYER
2
0
70
0
62
7
6
CONTINUOUS
0
LAYER
2
Bemaßung
70
0
62
4
6
CONTINUOUS
0
LAYER
2
Defpoints
70
0
62
7
6
CONTINUOUS
0
LAYER
2
Farbe
70
0
62
7
6
CONTINUOUS
0
LAYER
2
Fliesen
70
0
62
160
6
CONTINUOUS
0
LAYER
2
Konstruktionslinie
70
0
62
210
6
CONTINUOUS
0
LAYER
2
Schnitt
70
0
62
1
6
CONTINUOUS
0
ENDTAB
0
TABLE
2
LTYPE
70
4
0
LTYPE
2
CONTINUOUS
70
0
3
Solid line
72
65
73
0
40
0.0
0
LTYPE
2
DASHED
70
0
3
Dashed __ __ __
72
65
73
2
40
6.0
49
4.0
49
-2.0
0
LTYPE
2
DASHDOT
70
0
3
Dash dot __.__.__ 
72
65
73
4
40
8.0
49
4.0
49
-1.0
49
0.0
49
-1.0
0
LTYPE
2
DOT
70
0
3
Dot . . . .
72
65
73
2
40
2.0
49
0.0
49
-2.0
0
ENDTAB
0
ENDSEC
0
SECTION
2
ENTITIES
0
POLYLINE
8
Schnitt
66
1
70
1
0
VERTEX
8
Schnitt
10
60.768000
20
94.633000
30
0.0
0
VERTEX
8
Schnitt
10
61.366000
20
95.097000
30
0.0
0
VERTEX
8
Schnitt
10
61.965000
20
95.561000
30
0.0
0
VERTEX
8
Schnitt
10
62.565000
20
96.022000
30
0.0
0
VERTEX
8
Schnitt
10
63.166000
20
96.481000
30
0.0
0
VERTEX
8
Schnitt
10
63.770000
20
96.936000
30
0.0
0
VERTEX
8
Schnitt
10
64.747000
20
97.658000
30
0.0
0
VERTEX
8
Schnitt
10
65.732000
20
98.367000
30
0.0
0
VERTEX
8
Schnitt
10
66.727000
20
99.064000
30
0.0
0
VERTEX
8
Schnitt
10
67.735000
20
99.747000
30
0.0
0
VERTEX
8
Schnitt
10
68.755000
20
100.418000
30
0.0
0
VERTEX
8
Schnitt
10
69.742000
20
101.043000
30
0.0
0
VERTEX
8
Schnitt
10
70.746000
20
101.639000
30
0.0
0
VERTEX
8
Schnitt
10
71.772000
20
102.191000
30
0.0
0
VERTEX
8
Schnitt
10
72.822000
20
102.682000
30
0.0
0
VERTEX
8
Schnitt
10
73.357000
20
102.900000
30
0.0
0
VERTEX
8
Schnitt
10
73.900000
20
103.096000
30
0.0
0
VERTEX
8
Schnitt
10
74.848000
20
103.380000
30
0.0
0
VERTEX
8
Schnitt
10
75.814000
20
103.605000
30
0.0
0
VERTEX
8
Schnitt
10
76.795000
20
103.778000
30
0.0
0
VERTEX
8
Schnitt
10
77.784000
20
103.909000
30
0.0
0
VERTEX
8
Schnitt
10
78.778000
20
104.007000
30
0.0
0
VERTEX
8
Schnitt
10
80.421000
20
104.111000
30
0.0
0
VERTEX
8
Schnitt
10
82.062000
20
104.152000
30
0.0
0
VERTEX
8
Schnitt
10
83.702000
20
104.135000
30
0.0
0
VERTEX
8
Schnitt
10
85.341000
20
104.067000
30
0.0
0
VERTEX
8
Schnitt
10
86.979000
20
103.953000
30
0.0
0
VERTEX
8
Schnitt
10
87.977000
20
103.866000
30
0.0
0
VERTEX
8
Schnitt
10
88.975000
20
103.777000
30
0.0
0
VERTEX
8
Schnitt
10
89.972000
20
103.699000
30
0.0
0
VERTEX
8
Schnitt
10
90.968000
20
103.646000
30
0.0
0
VERTEX
8
Schnitt
10
91.964000
20
103.632000
30
0.0
0
VERTEX
8
Schnitt
10
92.739000
20
103.654000
30
0.0
0
VERTEX
8
Schnitt
10
93.513000
20
103.703000
30
0.0
0
VERTEX
8
Schnitt
10
95.059000
20
103.866000
30
0.0
0
VERTEX
8
Schnitt
10
96.602000
20
104.091000
30
0.0
0
VERTEX
8
Schnitt
10
98.144000
20
104.344000
30
0.0
0
VERTEX
8
Schnitt
10
99.683000
20
104.596000
30
0.0
0
VERTEX
8
Schnitt
10
101.167000
20
104.816000
30
0.0
0
VERTEX
8
Schnitt
10
102.650000
20
105.032000
30
0.0
0
VERTEX
8
Schnitt
10
104.130000
20
105.272000
30
0.0
0
VERTEX
8
Schnitt
10
105.606000
20
105.564000
30
0.0
0
VERTEX
8
Schnitt
10
106.343000
20
105.738000
30
0.0
0
VERTEX
8
Schnitt
10
107.080000
20
105.935000
30
0.0
0
VERTEX
8
Schnitt
10
108.066000
20
106.244000
30
0.0
0
VERTEX
8
Schnitt
10
109.029000
20
106.616000
30
0.0
0
VERTEX
8
Schnitt
10
109.496000
20
106.829000
30
0.0
0
VERTEX
8
Schnitt
10
109.950000
20
107.063000
30
0.0
0
VERTEX
8
Schnitt
10
110.388000
20
107.319000
30
0.0
0
VERTEX
8
Schnitt
10
110.808000
20
107.599000
30
0.0
0
VERTEX
8
Schnitt
10
111.207000
20
107.905000
30
0.0
0
VERTEX
8
Schnitt
10
111.582000
20
108.238000
30
0.0
0
VERTEX
8
Schnitt
10
111.972000
20
108.644000
30
0.0
0
VERTEX
8
Schnitt
10
112.332000
20
109.081000
30
0.0
0
VERTEX
8
Schnitt
10
112.664000
20
109.542000
30
0.0
0
VERTEX
8
Schnitt
10
112.972000
20
110.022000
30
0.0
0
VERTEX
8
Schnitt
10
113.257000
20
110.516000
30
0.0
0
VERTEX
8
Schnitt
10
113.541000
20
111.052000
30
0.0
0
VERTEX
8
Schnitt
10
113.808000
20
111.595000
30
0.0
0
VERTEX
8
Schnitt
10
114.060000
20
112.143000
30
0.0
0
VERTEX
8
Schnitt
10
114.304000
20
112.694000
30
0.0
0
VERTEX
8
Schnitt
10
114.544000
20
113.247000
30
0.0
0
VERTEX
8
Schnitt
10
114.287000
20
113.200000
30
0.0
0
VERTEX
8
Schnitt
10
114.032000
20
113.152000
30
0.0
0
VERTEX
8
Schnitt
10
113.777000
20
113.099000
30
0.0
0
VERTEX
8
Schnitt
10
113.525000
20
113.040000
30
0.0
0
VERTEX
8
Schnitt
10
113.276000
20
112.973000
30
0.0
0
VERTEX
8
Schnitt
10
112.704000
20
112.778000
30
0.0
0
VERTEX
8
Schnitt
10
112.148000
20
112.537000
30
0.0
0
VERTEX
8
Schnitt
10
111.604000
20
112.262000
30
0.0
0
VERTEX
8
Schnitt
10
111.067000
20
111.963000
30
0.0
0
VERTEX
8
Schnitt
10
110.534000
20
111.654000
30
0.0
0
VERTEX
8
Schnitt
10
110.812000
20
112.191000
30
0.0
0
VERTEX
8
Schnitt
10
111.093000
20
112.725000
30
0.0
0
VERTEX
8
Schnitt
10
111.381000
20
113.255000
30
0.0
0
VERTEX
8
Schnitt
10
111.678000
20
113.778000
30
0.0
0
VERTEX
8
Schnitt
10
111.990000
20
114.293000
30
0.0
0
VERTEX
8
Schnitt
10
112.554000
20
115.143000
30
0.0
0
VERTEX
8
Schnitt
10
113.158000
20
115.967000
30
0.0
0
VERTEX
8
Schnitt
10
113.790000
20
116.773000
30
0.0
0
VERTEX
8
Schnitt
10
114.442000
20
117.566000
30
0.0
0
VERTEX
8
Schnitt
10
115.104000
20
118.353000
30
0.0
0
VERTEX
8
Schnitt
10
114.364000
20
118.053000
30
0.0
0
VERTEX
8
Schnitt
10
113.625000
20
117.752000
30
0.0
0
VERTEX
8
Schnitt
10
112.886000
20
117.448000
30
0.0
0
VERTEX
8
Schnitt
10
112.149000
20
117.141000
30
0.0
0
VERTEX
8
Schnitt
10
111.414000
20
116.830000
30
0.0
0
VERTEX
8
Schnitt
10
110.372000
20
116.377000
30
0.0
0
VERTEX
8
Schnitt
10
109.334000
20
115.915000
30
0.0
0
VERTEX
8
Schnitt
10
108.299000
20
115.446000
30
0.0
0
VERTEX
8
Schnitt
10
107.267000
20
114.972000
30
0.0
0
VERTEX
8
Schnitt
10
106.235000
20
114.496000
30
0.0
0
VERTEX
8
Schnitt
10
107.284000
20
115.727000
30
0.0
0
VERTEX
8
Schnitt
10
108.334000
20
116.959000
30
0.0
0
VERTEX
8
Schnitt
10
109.383000
20
118.190000
30
0.0
0
VERTEX
8
Schnitt
10
110.433000
20
119.422000
30
0.0
0
VERTEX
8
Schnitt
10
111.482000
20
120.653000
30
0.0
0
VERTEX
8
Schnitt
10
110.713000
20
120.417000
30
0.0
0
VERTEX
8
Schnitt
10
109.945000
20
120.181000
30
0.0
0
VERTEX
8
Schnitt
10
109.176000
20
119.944000
30
0.0
0
VERTEX
8
Schnitt
10
108.408000
20
119.708000
30
0.0
0
VERTEX
8
Schnitt
10
107.640000
20
119.472000
30
0.0
0
VERTEX
8
Schnitt
10
107.964000
20
119.898000
30
0.0
0
VERTEX
8
Schnitt
10
108.290000
20
120.322000
30
0.0
0
VERTEX
8
Schnitt
10
108.621000
20
120.742000
30
0.0
0
VERTEX
8
Schnitt
10
108.958000
20
121.156000
30
0.0
0
VERTEX
8
Schnitt
10
109.304000
20
121.562000
30
0.0
0
VERTEX
8
Schnitt
10
110.059000
20
122.375000
30
0.0
0
VERTEX
8
Schnitt
10
110.852000
20
123.153000
30
0.0
0
VERTEX
8
Schnitt
10
111.675000
20
123.904000
30
0.0
0
VERTEX
8
Schnitt
10
112.516000
20
124.638000
30
0.0
0
VERTEX
8
Schnitt
10
113.367000
20
125.362000
30
0.0
0
VERTEX
8
Schnitt
10
113.083000
20
125.337000
30
0.0
0
VERTEX
8
Schnitt
10
112.800000
20
125.310000
30
0.0
0
VERTEX
8
Schnitt
10
112.518000
20
125.278000
30
0.0
0
VERTEX
8
Schnitt
10
112.236000
20
125.241000
30
0.0
0
VERTEX
8
Schnitt
10
111.957000
20
125.195000
30
0.0
0
VERTEX
8
Schnitt
10
111.514000
20
125.102000
30
0.0
0
VERTEX
8
Schnitt
10
111.075000
20
124.987000
30
0.0
0
VERTEX
8
Schnitt
10
110.639000
20
124.857000
30
0.0
0
VERTEX
8
Schnitt
10
110.205000
20
124.717000
30
0.0
0
VERTEX
8
Schnitt
10
109.772000
20
124.571000
30
0.0
0
VERTEX
8
Schnitt
10
109.882000
20
124.761000
30
0.0
0
VERTEX
8
Schnitt
10
109.994000
20
124.948000
30
0.0
0
VERTEX
8
Schnitt
10
110.110000
20
125.131000
30
0.0
0
VERTEX
8
Schnitt
10
110.232000
20
125.306000
30
0.0
0
VERTEX
8
Schnitt
10
110.361000
20
125.472000
30
0.0
0
VERTEX
8
Schnitt
10
110.653000
20
125.774000
30
0.0
0
VERTEX
8
Schnitt
10
110.981000
20
126.032000
30
0.0
0
VERTEX
8
Schnitt
10
111.340000
20
126.251000
30
0.0
0
VERTEX
8
Schnitt
10
111.728000
20
126.436000
30
0.0
0
VERTEX
8
Schnitt
10
112.140000
20
126.592000
30
0.0
0
VERTEX
8
Schnitt
10
112.572000
20
126.723000
30
0.0
0
VERTEX
8
Schnitt
10
113.479000
20
126.931000
30
0.0
0
VERTEX
8
Schnitt
10
114.419000
20
127.100000
30
0.0
0
VERTEX
8
Schnitt
10
114.407000
20
127.209000
30
0.0
0
VERTEX
8
Schnitt
10
114.392000
20
127.317000
30
0.0
0
VERTEX
8
Schnitt
10
114.374000
20
127.423000
30
0.0
0
VERTEX
8
Schnitt
10
114.349000
20
127.524000
30
0.0
0
VERTEX
8
Schnitt
10
114.315000
20
127.620000
30
0.0
0
VERTEX
8
Schnitt
10
114.252000
20
127.742000
30
0.0
0
VERTEX
8
Schnitt
10
114.171000
20
127.852000
30
0.0
0
VERTEX
8
Schnitt
10
113.963000
20
128.044000
30
0.0
0
VERTEX
8
Schnitt
10
113.710000
20
128.204000
30
0.0
0
VERTEX
8
Schnitt
10
113.428000
20
128.337000
30
0.0
0
VERTEX
8
Schnitt
10
113.136000
20
128.452000
30
0.0
0
VERTEX
8
Schnitt
10
112.746000
20
128.588000
30
0.0
0
VERTEX
8
Schnitt
10
112.367000
20
128.708000
30
0.0
0
VERTEX
8
Schnitt
10
111.995000
20
128.814000
30
0.0
0
VERTEX
8
Schnitt
10
111.628000
20
128.912000
30
0.0
0
VERTEX
8
Schnitt
10
111.263000
20
129.006000
30
0.0
0
VERTEX
8
Schnitt
10
111.679000
20
129.048000
30
0.0
0
VERTEX
8
Schnitt
10
112.096000
20
129.087000
30
0.0
0
VERTEX
8
Schnitt
10
112.512000
20
129.119000
30
0.0
0
VERTEX
8
Schnitt
10
112.928000
20
129.139000
30
0.0
0
VERTEX
8
Schnitt
10
113.344000
20
129.145000
30
0.0
0
VERTEX
8
Schnitt
10
113.906000
20
129.127000
30
0.0
0
VERTEX
8
Schnitt
10
114.467000
20
129.085000
30
0.0
0
VERTEX
8
Schnitt
10
115.029000
20
129.027000
30
0.0
0
VERTEX
8
Schnitt
10
115.591000
20
128.963000
30
0.0
0
VERTEX
8
Schnitt
10
116.152000
20
128.902000
30
0.0
0
VERTEX
8
Schnitt
10
116.637000
20
128.858000
30
0.0
0
VERTEX
8
Schnitt
10
117.123000
20
128.819000
30
0.0
0
VERTEX
8
Schnitt
10
117.608000
20
128.786000
30
0.0
0
VERTEX
8
Schnitt
10
118.094000
20
128.757000
30
0.0
0
VERTEX
8
Schnitt
10
118.579000
20
128.729000
30
0.0
0
VERTEX
8
Schnitt
10
117.692000
20
129.415000
30
0.0
0
VERTEX
8
Schnitt
10
116.804000
20
130.101000
30
0.0
0
VERTEX
8
Schnitt
10
115.917000
20
130.788000
30
0.0
0
VERTEX
8
Schnitt
10
115.029000
20
131.474000
30
0.0
0
VERTEX
8
Schnitt
10
114.141000
20
132.160000
30
0.0
0
VERTEX
8
Schnitt
10
114.860000
20
132.203000
30
0.0
0
VERTEX
8
Schnitt
10
115.577000
20
132.237000
30
0.0
0
VERTEX
8
Schnitt
10
116.292000
20
132.253000
30
0.0
0
VERTEX
8
Schnitt
10
117.005000
20
132.241000
30
0.0
0
VERTEX
8
Schnitt
10
117.713000
20
132.194000
30
0.0
0
VERTEX
8
Schnitt
10
118.625000
20
132.070000
30
0.0
0
VERTEX
8
Schnitt
10
119.530000
20
131.886000
30
0.0
0
VERTEX
8
Schnitt
10
120.429000
20
131.656000
30
0.0
0
VERTEX
8
Schnitt
10
121.326000
20
131.395000
30
0.0
0
VERTEX
8
Schnitt
10
122.220000
20
131.120000
30
0.0
0
VERTEX
8
Schnitt
10
121.545000
20
131.856000
30
0.0
0
VERTEX
8
Schnitt
10
120.870000
20
132.591000
30
0.0
0
VERTEX
8
Schnitt
10
120.194000
20
133.326000
30
0.0
0
VERTEX
8
Schnitt
10
119.518000
20
134.061000
30
0.0
0
VERTEX
8
Schnitt
10
118.841000
20
134.795000
30
0.0
0
VERTEX
8
Schnitt
10
118.245000
20
135.439000
30
0.0
0
VERTEX
8
Schnitt
10
117.649000
20
136.084000
30
0.0
0
VERTEX
8
Schnitt
10
117.052000
20
136.727000
30
0.0
0
VERTEX
8
Schnitt
10
116.455000
20
137.371000
30
0.0
0
VERTEX
8
Schnitt
10
115.858000
20
138.014000
30
0.0
0
VERTEX
8
Schnitt
10
116.679000
20
137.992000
30
0.0
0
VERTEX
8
Schnitt
10
117.494000
20
137.949000
30
0.0
0
VERTEX
8
Schnitt
10
118.296000
20
137.868000
30
0.0
0
VERTEX
8
Schnitt
10
119.079000
20
137.728000
30
0.0
0
VERTEX
8
Schnitt
10
119.461000
20
137.630000
30
0.0
0
VERTEX
8
Schnitt
10
119.837000
20
137.510000
30
0.0
0
VERTEX
8
Schnitt
10
120.373000
20
137.293000
30
0.0
0
VERTEX
8
Schnitt
10
120.895000
20
137.034000
30
0.0
0
VERTEX
8
Schnitt
10
121.407000
20
136.744000
30
0.0
0
VERTEX
8
Schnitt
10
121.913000
20
136.432000
30
0.0
0
VERTEX
8
Schnitt
10
122.415000
20
136.110000
30
0.0
0
VERTEX
8
Schnitt
10
122.060000
20
136.786000
30
0.0
0
VERTEX
8
Schnitt
10
121.718000
20
137.465000
30
0.0
0
VERTEX
8
Schnitt
10
121.402000
20
138.151000
30
0.0
0
VERTEX
8
Schnitt
10
121.125000
20
138.848000
30
0.0
0
VERTEX
8
Schnitt
10
120.899000
20
139.559000
30
0.0
0
VERTEX
8
Schnitt
10
120.735000
20
140.286000
30
0.0
0
VERTEX
8
Schnitt
10
120.623000
20
141.027000
30
0.0
0
VERTEX
8
Schnitt
10
120.549000
20
141.779000
30
0.0
0
VERTEX
8
Schnitt
10
120.502000
20
142.537000
30
0.0
0
VERTEX
8
Schnitt
10
120.468000
20
143.299000
30
0.0
0
VERTEX
8
Schnitt
10
120.645000
20
142.733000
30
0.0
0
VERTEX
8
Schnitt
10
120.836000
20
142.179000
30
0.0
0
VERTEX
8
Schnitt
10
121.055000
20
141.648000
30
0.0
0
VERTEX
8
Schnitt
10
121.315000
20
141.151000
30
0.0
0
VERTEX
8
Schnitt
10
121.465000
20
140.918000
30
0.0
0
VERTEX
8
Schnitt
10
121.631000
20
140.699000
30
0.0
0
VERTEX
8
Schnitt
10
121.821000
20
140.485000
30
0.0
0
VERTEX
8
Schnitt
10
122.029000
20
140.285000
30
0.0
0
VERTEX
8
Schnitt
10
122.487000
20
139.921000
30
0.0
0
VERTEX
8
Schnitt
10
122.989000
20
139.594000
30
0.0
0
VERTEX
8
Schnitt
10
123.522000
20
139.292000
30
0.0
0
VERTEX
8
Schnitt
10
124.070000
20
139.003000
30
0.0
0
VERTEX
8
Schnitt
10
124.051000
20
139.723000
30
0.0
0
VERTEX
8
Schnitt
10
124.040000
20
140.443000
30
0.0
0
VERTEX
8
Schnitt
10
124.048000
20
141.160000
30
0.0
0
VERTEX
8
Schnitt
10
124.084000
20
141.874000
30
0.0
0
VERTEX
8
Schnitt
10
124.156000
20
142.584000
30
0.0
0
VERTEX
8
Schnitt
10
124.240000
20
143.119000
30
0.0
0
VERTEX
8
Schnitt
10
124.345000
20
143.652000
30
0.0
0
VERTEX
8
Schnitt
10
124.466000
20
144.183000
30
0.0
0
VERTEX
8
Schnitt
10
124.597000
20
144.712000
30
0.0
0
VERTEX
8
Schnitt
10
124.734000
20
145.241000
30
0.0
0
VERTEX
8
Schnitt
10
124.785000
20
144.738000
30
0.0
0
VERTEX
8
Schnitt
10
124.853000
20
144.245000
30
0.0
0
VERTEX
8
Schnitt
10
124.952000
20
143.773000
30
0.0
0
VERTEX
8
Schnitt
10
125.100000
20
143.331000
30
0.0
0
VERTEX
8
Schnitt
10
125.197000
20
143.125000
30
0.0
0
VERTEX
8
Schnitt
10
125.313000
20
142.930000
30
0.0
0
VERTEX
8
Schnitt
10
125.562000
20
142.617000
30
0.0
0
VERTEX
8
Schnitt
10
125.860000
20
142.336000
30
0.0
0
VERTEX
8
Schnitt
10
126.196000
20
142.078000
30
0.0
0
VERTEX
8
Schnitt
10
126.557000
20
141.836000
30
0.0
0
VERTEX
8
Schnitt
10
126.931000
20
141.602000
30
0.0
0
VERTEX
8
Schnitt
10
126.946000
20
141.964000
30
0.0
0
VERTEX
8
Schnitt
10
126.966000
20
142.325000
30
0.0
0
VERTEX
8
Schnitt
10
126.996000
20
142.682000
30
0.0
0
VERTEX
8
Schnitt
10
127.041000
20
143.036000
30
0.0
0
VERTEX
8
Schnitt
10
127.105000
20
143.383000
30
0.0
0
VERTEX
8
Schnitt
10
127.207000
20
143.774000
30
0.0
0
VERTEX
8
Schnitt
10
127.338000
20
144.157000
30
0.0
0
VERTEX
8
Schnitt
10
127.494000
20
144.532000
30
0.0
0
VERTEX
8
Schnitt
10
127.673000
20
144.900000
30
0.0
0
VERTEX
8
Schnitt
10
128.085000
20
145.619000
30
0.0
0
VERTEX
8
Schnitt
10
128.548000
20
146.323000
30
0.0
0
VERTEX
8
Schnitt
10
129.036000
20
147.020000
30
0.0
0
VERTEX
8
Schnitt
10
128.948000
20
146.636000
30
0.0
0
VERTEX
8
Schnitt
10
128.868000
20
146.254000
30
0.0
0
VERTEX
8
Schnitt
10
128.807000
20
145.874000
30
0.0
0
VERTEX
8
Schnitt
10
128.773000
20
145.498000
30
0.0
0
VERTEX
8
Schnitt
10
128.776000
20
145.127000
30
0.0
0
VERTEX
8
Schnitt
10
128.815000
20
144.804000
30
0.0
0
VERTEX
8
Schnitt
10
128.886000
20
144.486000
30
0.0
0
VERTEX
8
Schnitt
10
128.986000
20
144.172000
30
0.0
0
VERTEX
8
Schnitt
10
129.111000
20
143.861000
30
0.0
0
VERTEX
8
Schnitt
10
129.421000
20
143.249000
30
0.0
0
VERTEX
8
Schnitt
10
129.790000
20
142.646000
30
0.0
0
VERTEX
8
Schnitt
10
130.187000
20
142.047000
30
0.0
0
VERTEX
8
Schnitt
10
130.218500
20
141.998000
30
0.0
0
VERTEX
8
Schnitt
10
130.252000
20
141.953000
30
0.0
0
VERTEX
8
Schnitt
10
130.278000
20
141.928000
30
0.0
0
VERTEX
8
Schnitt
10
130.307000
20
141.907000
30
0.0
0
VERTEX
8
Schnitt
10
130.356000
20
141.888000
30
0.0
0
VERTEX
8
Schnitt
10
130.411000
20
141.881000
30
0.0
0
VERTEX
8
Schnitt
10
130.468000
20
141.886000
30
0.0
0
VERTEX
8
Schnitt
10
130.523000
20
141.901000
30
0.0
0
VERTEX
8
Schnitt
10
130.573000
20
141.924000
30
0.0
0
VERTEX
8
Schnitt
10
130.603000
20
141.945000
30
0.0
0
VERTEX
8
Schnitt
10
130.629000
20
141.968000
30
0.0
0
VERTEX
8
Schnitt
10
130.654000
20
141.993000
30
0.0
0
VERTEX
8
Schnitt
10
130.688000
20
142.033500
30
0.0
0
VERTEX
8
Schnitt
10
130.796000
20
142.645000
30
0.0
0
VERTEX
8
Schnitt
10
130.902000
20
143.238000
30
0.0
0
VERTEX
8
Schnitt
10
131.026000
20
143.825000
30
0.0
0
VERTEX
8
Schnitt
10
131.177000
20
144.400000
30
0.0
0
VERTEX
8
Schnitt
10
131.365000
20
144.961000
30
0.0
0
VERTEX
8
Schnitt
10
131.672000
20
145.663000
30
0.0
0
VERTEX
8
Schnitt
10
132.041000
20
146.340000
30
0.0
0
VERTEX
8
Schnitt
10
132.455000
20
146.999000
30
0.0
0
VERTEX
8
Schnitt
10
132.900000
20
147.645000
30
0.0
0
VERTEX
8
Schnitt
10
133.361000
20
148.285000
30
0.0
0
VERTEX
8
Schnitt
10
133.251000
20
147.863000
30
0.0
0
VERTEX
8
Schnitt
10
133.155000
20
147.443000
30
0.0
0
VERTEX
8
Schnitt
10
133.087000
20
147.027000
30
0.0
0
VERTEX
8
Schnitt
10
133.061000
20
146.615000
30
0.0
0
VERTEX
8
Schnitt
10
133.090000
20
146.209000
30
0.0
0
VERTEX
8
Schnitt
10
133.138000
20
145.977000
30
0.0
0
VERTEX
8
Schnitt
10
133.208000
20
145.749000
30
0.0
0
VERTEX
8
Schnitt
10
133.408000
20
145.305000
30
0.0
0
VERTEX
8
Schnitt
10
133.682000
20
144.882000
30
0.0
0
VERTEX
8
Schnitt
10
134.018000
20
144.487000
30
0.0
0
VERTEX
8
Schnitt
10
134.405000
20
144.125000
30
0.0
0
VERTEX
8
Schnitt
10
134.833000
20
143.801000
30
0.0
0
VERTEX
8
Schnitt
10
135.292000
20
143.520000
30
0.0
0
VERTEX
8
Schnitt
10
135.770000
20
143.288000
30
0.0
0
VERTEX
8
Schnitt
10
136.257000
20
143.110000
30
0.0
0
VERTEX
8
Schnitt
10
136.742000
20
142.992000
30
0.0
0
VERTEX
8
Schnitt
10
137.041000
20
142.951000
30
0.0
0
VERTEX
8
Schnitt
10
137.335000
20
142.933000
30
0.0
0
VERTEX
8
Schnitt
10
137.625000
20
142.938000
30
0.0
0
VERTEX
8
Schnitt
10
137.911000
20
142.965000
30
0.0
0
VERTEX
8
Schnitt
10
138.476000
20
143.079000
30
0.0
0
VERTEX
8
Schnitt
10
139.031000
20
143.263000
30
0.0
0
VERTEX
8
Schnitt
10
139.582000
20
143.507000
30
0.0
0
VERTEX
8
Schnitt
10
140.130000
20
143.802000
30
0.0
0
VERTEX
8
Schnitt
10
140.681000
20
144.137000
30
0.0
0
VERTEX
8
Schnitt
10
141.236000
20
144.502000
30
0.0
0
VERTEX
8
Schnitt
10
142.375000
20
145.281000
30
0.0
0
VERTEX
8
Schnitt
10
142.525000
20
145.384000
30
0.0
0
VERTEX
8
Schnitt
10
142.666000
20
145.488000
30
0.0
0
VERTEX
8
Schnitt
10
142.787000
20
145.598000
30
0.0
0
VERTEX
8
Schnitt
10
142.880000
20
145.713000
30
0.0
0
VERTEX
8
Schnitt
10
142.932000
20
145.838000
30
0.0
0
VERTEX
8
Schnitt
10
142.941000
20
145.935000
30
0.0
0
VERTEX
8
Schnitt
10
142.926000
20
146.036000
30
0.0
0
VERTEX
8
Schnitt
10
142.835000
20
146.242000
30
0.0
0
VERTEX
8
Schnitt
10
142.678000
20
146.443000
30
0.0
0
VERTEX
8
Schnitt
10
142.477000
20
146.622000
30
0.0
0
VERTEX
8
Schnitt
10
142.251000
20
146.766000
30
0.0
0
VERTEX
8
Schnitt
10
142.076000
20
146.843000
30
0.0
0
VERTEX
8
Schnitt
10
141.899000
20
146.894000
30
0.0
0
VERTEX
8
Schnitt
10
141.722000
20
146.921000
30
0.0
0
VERTEX
8
Schnitt
10
141.544000
20
146.927000
30
0.0
0
VERTEX
8
Schnitt
10
141.192000
20
146.883000
30
0.0
0
VERTEX
8
Schnitt
10
140.848000
20
146.782000
30
0.0
0
VERTEX
8
Schnitt
10
140.518000
20
146.642000
30
0.0
0
VERTEX
8
Schnitt
10
140.377000
20
146.573000
30
0.0
0
VERTEX
8
Schnitt
10
140.240000
20
146.500000
30
0.0
0
VERTEX
8
Schnitt
10
140.104000
20
146.425000
30
0.0
0
VERTEX
8
Schnitt
10
139.904500
20
146.309500
30
0.0
0
VERTEX
8
Schnitt
10
139.818000
20
146.355000
30
0.0
0
VERTEX
8
Schnitt
10
139.799000
20
146.439000
30
0.0
0
VERTEX
8
Schnitt
10
139.783000
20
146.521000
30
0.0
0
VERTEX
8
Schnitt
10
139.771000
20
146.602000
30
0.0
0
VERTEX
8
Schnitt
10
139.765000
20
146.679000
30
0.0
0
VERTEX
8
Schnitt
10
139.792000
20
146.919000
30
0.0
0
VERTEX
8
Schnitt
10
139.890000
20
147.123000
30
0.0
0
VERTEX
8
Schnitt
10
140.052000
20
147.296000
30
0.0
0
VERTEX
8
Schnitt
10
140.270000
20
147.440000
30
0.0
0
VERTEX
8
Schnitt
10
140.535000
20
147.561000
30
0.0
0
VERTEX
8
Schnitt
10
140.840000
20
147.661000
30
0.0
0
VERTEX
8
Schnitt
10
141.537000
20
147.819000
30
0.0
0
VERTEX
8
Schnitt
10
142.297000
20
147.944000
30
0.0
0
VERTEX
8
Schnitt
10
142.160000
20
148.021500
30
0.0
0
VERTEX
8
Schnitt
10
142.022000
20
148.096000
30
0.0
0
VERTEX
8
Schnitt
10
141.928000
20
148.142000
30
0.0
0
VERTEX
8
Schnitt
10
141.833000
20
148.185000
30
0.0
0
VERTEX
8
Schnitt
10
141.592000
20
148.273000
30
0.0
0
VERTEX
8
Schnitt
10
141.342000
20
148.337000
30
0.0
0
VERTEX
8
Schnitt
10
141.085000
20
148.382000
30
0.0
0
VERTEX
8
Schnitt
10
140.826000
20
148.412000
30
0.0
0
VERTEX
8
Schnitt
10
140.565000
20
148.429000
30
0.0
0
VERTEX
8
Schnitt
10
140.375000
20
148.437000
30
0.0
0
VERTEX
8
Schnitt
10
140.185000
20
148.442000
30
0.0
0
VERTEX
8
Schnitt
10
139.901500
20
148.444500
30
0.0
0
VERTEX
8
Schnitt
10
139.618000
20
148.445000
30
0.0
0
VERTEX
8
Schnitt
10
139.809000
20
148.591500
30
0.0
0
VERTEX
8
Schnitt
10
140.002000
20
148.736000
30
0.0
0
VERTEX
8
Schnitt
10
140.133000
20
148.831000
30
0.0
0
VERTEX
8
Schnitt
10
140.265000
20
148.924000
30
0.0
0
VERTEX
8
Schnitt
10
140.696000
20
149.195000
30
0.0
0
VERTEX
8
Schnitt
10
141.147000
20
149.435000
30
0.0
0
VERTEX
8
Schnitt
10
141.614000
20
149.641000
30
0.0
0
VERTEX
8
Schnitt
10
142.093000
20
149.811000
30
0.0
0
VERTEX
8
Schnitt
10
142.580000
20
149.942000
30
0.0
0
VERTEX
8
Schnitt
10
143.069000
20
150.032000
30
0.0
0
VERTEX
8
Schnitt
10
143.562000
20
150.085000
30
0.0
0
VERTEX
8
Schnitt
10
144.058000
20
150.105000
30
0.0
0
VERTEX
8
Schnitt
10
144.557000
20
150.096000
30
0.0
0
VERTEX
8
Schnitt
10
145.059000
20
150.062000
30
0.0
0
VERTEX
8
Schnitt
10
145.564000
20
150.008000
30
0.0
0
VERTEX
8
Schnitt
10
146.577000
20
149.855000
30
0.0
0
VERTEX
8
Schnitt
10
147.594000
20
149.668000
30
0.0
0
VERTEX
8
Schnitt
10
147.586500
20
149.725500
30
0.0
0
VERTEX
8
Schnitt
10
147.573000
20
149.802500
30
0.0
0
VERTEX
8
Schnitt
10
147.558000
20
149.860000
30
0.0
0
VERTEX
8
Schnitt
10
147.483000
20
150.029000
30
0.0
0
VERTEX
8
Schnitt
10
147.374000
20
150.190000
30
0.0
0
VERTEX
8
Schnitt
10
147.253000
20
150.338000
30
0.0
0
VERTEX
8
Schnitt
10
147.140000
20
150.469000
30
0.0
0
VERTEX
8
Schnitt
10
147.054000
20
150.579000
30
0.0
0
VERTEX
8
Schnitt
10
147.017000
20
150.652000
30
0.0
0
VERTEX
8
Schnitt
10
147.012000
20
150.707000
30
0.0
0
VERTEX
8
Schnitt
10
147.038000
20
150.745000
30
0.0
0
VERTEX
8
Schnitt
10
147.092000
20
150.768000
30
0.0
0
VERTEX
8
Schnitt
10
147.277000
20
150.770000
30
0.0
0
VERTEX
8
Schnitt
10
147.548000
20
150.724000
30
0.0
0
VERTEX
8
Schnitt
10
148.277000
20
150.520000
30
0.0
0
VERTEX
8
Schnitt
10
149.135000
20
150.232000
30
0.0
0
VERTEX
8
Schnitt
10
149.976000
20
149.932000
30
0.0
0
VERTEX
8
Schnitt
10
150.600000
20
149.711000
30
0.0
0
VERTEX
8
Schnitt
10
151.127000
20
149.519000
30
0.0
0
VERTEX
8
Schnitt
10
151.583000
20
149.340000
30
0.0
0
VERTEX
8
Schnitt
10
151.992000
20
149.157000
30
0.0
0
VERTEX
8
Schnitt
10
152.380000
20
148.952000
30
0.0
0
VERTEX
8
Schnitt
10
152.997000
20
148.554000
30
0.0
0
VERTEX
8
Schnitt
10
153.625000
20
148.080000
30
0.0
0
VERTEX
8
Schnitt
10
154.923000
20
147.002000
30
0.0
0
VERTEX
8
Schnitt
10
155.597000
20
146.445000
30
0.0
0
VERTEX
8
Schnitt
10
156.290000
20
145.910000
30
0.0
0
VERTEX
8
Schnitt
10
157.004000
20
145.419000
30
0.0
0
VERTEX
8
Schnitt
10
157.370000
20
145.198000
30
0.0
0
VERTEX
8
Schnitt
10
157.743000
20
144.997000
30
0.0
0
VERTEX
8
Schnitt
10
158.121000
20
144.819000
30
0.0
0
VERTEX
8
Schnitt
10
158.506000
20
144.667000
30
0.0
0
VERTEX
8
Schnitt
10
158.899000
20
144.545000
30
0.0
0
VERTEX
8
Schnitt
10
159.298000
20
144.455000
30
0.0
0
VERTEX
8
Schnitt
10
159.454000
20
144.429000
30
0.0
0
VERTEX
8
Schnitt
10
159.611000
20
144.409000
30
0.0
0
VERTEX
8
Schnitt
10
159.770000
20
144.396000
30
0.0
0
VERTEX
8
Schnitt
10
159.929000
20
144.390000
30
0.0
0
VERTEX
8
Schnitt
10
160.091000
20
144.391000
30
0.0
0
VERTEX
8
Schnitt
10
160.203000
20
144.397000
30
0.0
0
VERTEX
8
Schnitt
10
160.315000
20
144.408000
30
0.0
0
VERTEX
8
Schnitt
10
160.424000
20
144.426000
30
0.0
0
VERTEX
8
Schnitt
10
160.530000
20
144.453000
30
0.0
0
VERTEX
8
Schnitt
10
160.632000
20
144.490000
30
0.0
0
VERTEX
8
Schnitt
10
160.805000
20
144.587000
30
0.0
0
VERTEX
8
Schnitt
10
160.962000
20
144.715000
30
0.0
0
VERTEX
8
Schnitt
10
161.105000
20
144.866000
30
0.0
0
VERTEX
8
Schnitt
10
161.240000
20
145.032000
30
0.0
0
VERTEX
8
Schnitt
10
161.370000
20
145.203000
30
0.0
0
VERTEX
8
Schnitt
10
161.689000
20
145.617000
30
0.0
0
VERTEX
8
Schnitt
10
162.001000
20
146.023000
30
0.0
0
VERTEX
8
Schnitt
10
162.299000
20
146.428000
30
0.0
0
VERTEX
8
Schnitt
10
162.577000
20
146.842000
30
0.0
0
VERTEX
8
Schnitt
10
162.826000
20
147.274000
30
0.0
0
VERTEX
8
Schnitt
10
162.964000
20
147.552000
30
0.0
0
VERTEX
8
Schnitt
10
163.096000
20
147.836000
30
0.0
0
VERTEX
8
Schnitt
10
163.227000
20
148.121000
30
0.0
0
VERTEX
8
Schnitt
10
163.365000
20
148.402000
30
0.0
0
VERTEX
8
Schnitt
10
163.515000
20
148.676000
30
0.0
0
VERTEX
8
Schnitt
10
163.809000
20
149.109000
30
0.0
0
VERTEX
8
Schnitt
10
164.151000
20
149.507000
30
0.0
0
VERTEX
8
Schnitt
10
164.536000
20
149.870000
30
0.0
0
VERTEX
8
Schnitt
10
164.957000
20
150.200000
30
0.0
0
VERTEX
8
Schnitt
10
165.410000
20
150.496000
30
0.0
0
VERTEX
8
Schnitt
10
165.534000
20
150.568000
30
0.0
0
VERTEX
8
Schnitt
10
165.661000
20
150.633000
30
0.0
0
VERTEX
8
Schnitt
10
165.791000
20
150.688000
30
0.0
0
VERTEX
8
Schnitt
10
165.925000
20
150.726000
30
0.0
0
VERTEX
8
Schnitt
10
166.063000
20
150.744000
30
0.0
0
VERTEX
8
Schnitt
10
166.100000
20
150.745000
30
0.0
0
VERTEX
8
Schnitt
10
166.157000
20
150.742500
30
0.0
0
VERTEX
8
Schnitt
10
166.213000
20
150.735000
30
0.0
0
VERTEX
8
Schnitt
10
166.250000
20
150.726000
30
0.0
0
VERTEX
8
Schnitt
10
166.283000
20
150.716000
30
0.0
0
VERTEX
8
Schnitt
10
166.330000
20
150.697000
30
0.0
0
VERTEX
8
Schnitt
10
166.409333
20
150.658667
30
0.0
0
VERTEX
8
Schnitt
10
166.480000
20
150.620000
30
0.0
0
VERTEX
8
Schnitt
10
166.515000
20
150.598000
30
0.0
0
VERTEX
8
Schnitt
10
166.547000
20
150.573000
30
0.0
0
VERTEX
8
Schnitt
10
166.577000
20
150.545000
30
0.0
0
VERTEX
8
Schnitt
10
166.611000
20
150.503000
30
0.0
0
VERTEX
8
Schnitt
10
166.638000
20
150.456000
30
0.0
0
VERTEX
8
Schnitt
10
166.658000
20
150.405000
30
0.0
0
VERTEX
8
Schnitt
10
166.670000
20
150.352000
30
0.0
0
VERTEX
8
Schnitt
10
166.674000
20
150.298000
30
0.0
0
VERTEX
8
Schnitt
10
166.667000
20
150.239000
30
0.0
0
VERTEX
8
Schnitt
10
166.650000
20
150.182000
30
0.0
0
VERTEX
8
Schnitt
10
166.624000
20
150.128000
30
0.0
0
VERTEX
8
Schnitt
10
166.591000
20
150.077000
30
0.0
0
VERTEX
8
Schnitt
10
166.553000
20
150.032000
30
0.0
0
VERTEX
8
Schnitt
10
166.510000
20
149.993000
30
0.0
0
VERTEX
8
Schnitt
10
166.465000
20
149.958000
30
0.0
0
VERTEX
8
Schnitt
10
166.370333
20
149.894667
30
0.0
0
VERTEX
8
Schnitt
10
166.252000
20
149.810000
30
0.0
0
VERTEX
8
Schnitt
10
166.186000
20
149.752000
30
0.0
0
VERTEX
8
Schnitt
10
166.124000
20
149.690000
30
0.0
0
VERTEX
8
Schnitt
10
166.067000
20
149.624000
30
0.0
0
VERTEX
8
Schnitt
10
166.014000
20
149.554000
30
0.0
0
VERTEX
8
Schnitt
10
165.936000
20
149.424000
30
0.0
0
VERTEX
8
Schnitt
10
165.871000
20
149.285000
30
0.0
0
VERTEX
8
Schnitt
10
165.819000
20
149.141000
30
0.0
0
VERTEX
8
Schnitt
10
165.777000
20
148.992000
30
0.0
0
VERTEX
8
Schnitt
10
165.742000
20
148.841000
30
0.0
0
VERTEX
8
Schnitt
10
165.700000
20
148.610000
30
0.0
0
VERTEX
8
Schnitt
10
165.668000
20
148.379000
30
0.0
0
VERTEX
8
Schnitt
10
165.645000
20
148.148000
30
0.0
0
VERTEX
8
Schnitt
10
165.630000
20
147.916000
30
0.0
0
VERTEX
8
Schnitt
10
165.621000
20
147.683000
30
0.0
0
VERTEX
8
Schnitt
10
165.616000
20
147.446000
30
0.0
0
VERTEX
8
Schnitt
10
165.610000
20
147.210000
30
0.0
0
VERTEX
8
Schnitt
10
165.603000
20
147.052000
30
0.0
0
VERTEX
8
Schnitt
10
165.590000
20
146.895000
30
0.0
0
VERTEX
8
Schnitt
10
165.553000
20
146.628000
30
0.0
0
VERTEX
8
Schnitt
10
165.498000
20
146.362000
30
0.0
0
VERTEX
8
Schnitt
10
165.430000
20
146.099000
30
0.0
0
VERTEX
8
Schnitt
10
165.351000
20
145.839000
30
0.0
0
VERTEX
8
Schnitt
10
165.265000
20
145.581000
30
0.0
0
VERTEX
8
Schnitt
10
165.192500
20
145.375500
30
0.0
0
VERTEX
8
Schnitt
10
165.119000
20
145.170000
30
0.0
0
VERTEX
8
Schnitt
10
165.042500
20
144.965500
30
0.0
0
VERTEX
8
Schnitt
10
164.926000
20
144.656000
30
0.0
0
VERTEX
8
Schnitt
10
164.830000
20
144.416000
30
0.0
0
VERTEX
8
Schnitt
10
164.728000
20
144.179000
30
0.0
0
VERTEX
8
Schnitt
10
164.616000
20
143.947000
30
0.0
0
VERTEX
8
Schnitt
10
164.491000
20
143.723000
30
0.0
0
VERTEX
8
Schnitt
10
164.377000
20
143.542000
30
0.0
0
VERTEX
8
Schnitt
10
164.254000
20
143.366000
30
0.0
0
VERTEX
8
Schnitt
10
164.125000
20
143.195000
30
0.0
0
VERTEX
8
Schnitt
10
163.992000
20
143.025000
30
0.0
0
VERTEX
8
Schnitt
10
163.857000
20
142.857000
30
0.0
0
VERTEX
8
Schnitt
10
163.997500
20
142.720500
30
0.0
0
VERTEX
8
Schnitt
10
164.134000
20
142.581000
30
0.0
0
VERTEX
8
Schnitt
10
164.221000
20
142.485000
30
0.0
0
VERTEX
8
Schnitt
10
164.304000
20
142.385000
30
0.0
0
VERTEX
8
Schnitt
10
164.360000
20
142.310000
30
0.0
0
VERTEX
8
Schnitt
10
164.413000
20
142.233000
30
0.0
0
VERTEX
8
Schnitt
10
164.462000
20
142.153000
30
0.0
0
VERTEX
8
Schnitt
10
164.508000
20
142.072000
30
0.0
0
VERTEX
8
Schnitt
10
164.551000
20
141.989000
30
0.0
0
VERTEX
8
Schnitt
10
164.610000
20
141.857000
30
0.0
0
VERTEX
8
Schnitt
10
164.659000
20
141.721000
30
0.0
0
VERTEX
8
Schnitt
10
164.699000
20
141.582000
30
0.0
0
VERTEX
8
Schnitt
10
164.729000
20
141.440000
30
0.0
0
VERTEX
8
Schnitt
10
164.749000
20
141.296000
30
0.0
0
VERTEX
8
Schnitt
10
164.758000
20
141.172000
30
0.0
0
VERTEX
8
Schnitt
10
164.758000
20
141.047000
30
0.0
0
VERTEX
8
Schnitt
10
164.749000
20
140.922000
30
0.0
0
VERTEX
8
Schnitt
10
164.730000
20
140.799000
30
0.0
0
VERTEX
8
Schnitt
10
164.700000
20
140.679000
30
0.0
0
VERTEX
8
Schnitt
10
164.654000
20
140.552000
30
0.0
0
VERTEX
8
Schnitt
10
164.596000
20
140.431000
30
0.0
0
VERTEX
8
Schnitt
10
164.526000
20
140.316000
30
0.0
0
VERTEX
8
Schnitt
10
164.445000
20
140.209000
30
0.0
0
VERTEX
8
Schnitt
10
164.353000
20
140.110000
30
0.0
0
VERTEX
8
Schnitt
10
164.288000
20
140.050000
30
0.0
0
VERTEX
8
Schnitt
10
164.188000
20
139.964500
30
0.0
0
VERTEX
8
Schnitt
10
164.091000
20
139.877000
30
0.0
0
VERTEX
8
Schnitt
10
164.032000
20
139.814000
30
0.0
0
VERTEX
8
Schnitt
10
163.956000
20
139.711000
30
0.0
0
VERTEX
8
Schnitt
10
163.895000
20
139.598000
30
0.0
0
VERTEX
8
Schnitt
10
163.847000
20
139.476000
30
0.0
0
VERTEX
8
Schnitt
10
163.810000
20
139.350000
30
0.0
0
VERTEX
8
Schnitt
10
163.784000
20
139.220000
30
0.0
0
VERTEX
8
Schnitt
10
163.767000
20
139.089000
30
0.0
0
VERTEX
8
Schnitt
10
163.761000
20
138.959000
30
0.0
0
VERTEX
8
Schnitt
10
163.765000
20
138.830000
30
0.0
0
VERTEX
8
Schnitt
10
163.781000
20
138.702000
30
0.0
0
VERTEX
8
Schnitt
10
163.808000
20
138.577000
30
0.0
0
VERTEX
8
Schnitt
10
163.827000
20
138.516000
30
0.0
0
VERTEX
8
Schnitt
10
163.849000
20
138.456000
30
0.0
0
VERTEX
8
Schnitt
10
163.874000
20
138.396000
30
0.0
0
VERTEX
8
Schnitt
10
163.902000
20
138.338000
30
0.0
0
VERTEX
8
Schnitt
10
163.932000
20
138.281000
30
0.0
0
VERTEX
8
Schnitt
10
164.028667
20
138.123000
30
0.0
0
VERTEX
8
Schnitt
10
164.120000
20
137.966000
30
0.0
0
VERTEX
8
Schnitt
10
164.155000
20
137.885000
30
0.0
0
VERTEX
8
Schnitt
10
164.184000
20
137.769000
30
0.0
0
VERTEX
8
Schnitt
10
164.196000
20
137.648000
30
0.0
0
VERTEX
8
Schnitt
10
164.196000
20
137.523000
30
0.0
0
VERTEX
8
Schnitt
10
164.184000
20
137.331500
30
0.0
0
VERTEX
8
Schnitt
10
164.170000
20
137.072000
30
0.0
0
VERTEX
8
Schnitt
10
164.159000
20
136.879000
30
0.0
0
VERTEX
8
Schnitt
10
164.139000
20
136.691000
30
0.0
0
VERTEX
8
Schnitt
10
164.099000
20
136.512000
30
0.0
0
VERTEX
8
Schnitt
10
164.032000
20
136.343000
30
0.0
0
VERTEX
8
Schnitt
10
163.996000
20
136.279000
30
0.0
0
VERTEX
8
Schnitt
10
163.934000
20
136.184500
30
0.0
0
VERTEX
8
Schnitt
10
163.872000
20
136.088000
30
0.0
0
VERTEX
8
Schnitt
10
163.834000
20
136.022000
30
0.0
0
VERTEX
8
Schnitt
10
163.734000
20
135.753000
30
0.0
0
VERTEX
8
Schnitt
10
163.700000
20
135.461000
30
0.0
0
VERTEX
8
Schnitt
10
163.728000
20
135.164000
30
0.0
0
VERTEX
8
Schnitt
10
163.815000
20
134.883000
30
0.0
0
VERTEX
8
Schnitt
10
163.958000
20
134.637000
30
0.0
0
VERTEX
8
Schnitt
10
164.113000
20
134.474000
30
0.0
0
VERTEX
8
Schnitt
10
164.293000
20
134.338000
30
0.0
0
VERTEX
8
Schnitt
10
164.487000
20
134.215000
30
0.0
0
VERTEX
8
Schnitt
10
164.684000
20
134.097000
30
0.0
0
VERTEX
8
Schnitt
10
164.873000
20
133.970000
30
0.0
0
VERTEX
8
Schnitt
10
165.143000
20
133.733000
30
0.0
0
VERTEX
8
Schnitt
10
165.380000
20
133.461000
30
0.0
0
VERTEX
8
Schnitt
10
165.594000
20
133.166000
30
0.0
0
VERTEX
8
Schnitt
10
165.801000
20
132.861000
30
0.0
0
VERTEX
8
Schnitt
10
166.011000
20
132.561000
30
0.0
0
VERTEX
8
Schnitt
10
166.317000
20
132.177000
30
0.0
0
VERTEX
8
Schnitt
10
166.640000
20
131.811000
30
0.0
0
VERTEX
8
Schnitt
10
166.969000
20
131.451000
30
0.0
0
VERTEX
8
Schnitt
10
167.289000
20
131.084000
30
0.0
0
VERTEX
8
Schnitt
10
167.590000
20
130.697000
30
0.0
0
VERTEX
8
Schnitt
10
167.755000
20
130.450000
30
0.0
0
VERTEX
8
Schnitt
10
167.905000
20
130.192000
30
0.0
0
VERTEX
8
Schnitt
10
168.035000
20
129.926000
30
0.0
0
VERTEX
8
Schnitt
10
168.142000
20
129.651000
30
0.0
0
VERTEX
8
Schnitt
10
168.222000
20
129.369000
30
0.0
0
VERTEX
8
Schnitt
10
168.284000
20
128.985000
30
0.0
0
VERTEX
8
Schnitt
10
168.300000
20
128.593000
30
0.0
0
VERTEX
8
Schnitt
10
168.279000
20
128.198000
30
0.0
0
VERTEX
8
Schnitt
10
168.229000
20
127.802000
30
0.0
0
VERTEX
8
Schnitt
10
168.159000
20
127.409000
30
0.0
0
VERTEX
8
Schnitt
10
168.070000
20
126.987000
30
0.0
0
VERTEX
8
Schnitt
10
167.973000
20
126.570000
30
0.0
0
VERTEX
8
Schnitt
10
167.877000
20
126.155000
30
0.0
0
VERTEX
8
Schnitt
10
167.789000
20
125.740000
30
0.0
0
VERTEX
8
Schnitt
10
167.716000
20
125.323000
30
0.0
0
VERTEX
8
Schnitt
10
167.652000
20
124.772000
30
0.0
0
VERTEX
8
Schnitt
10
167.623000
20
124.216000
30
0.0
0
VERTEX
8
Schnitt
10
167.626000
20
123.657000
30
0.0
0
VERTEX
8
Schnitt
10
167.658000
20
123.098000
30
0.0
0
VERTEX
8
Schnitt
10
167.716000
20
122.540000
30
0.0
0
VERTEX
8
Schnitt
10
167.863000
20
121.632000
30
0.0
0
VERTEX
8
Schnitt
10
168.066000
20
120.736000
30
0.0
0
VERTEX
8
Schnitt
10
168.315000
20
119.851000
30
0.0
0
VERTEX
8
Schnitt
10
168.602000
20
118.978000
30
0.0
0
VERTEX
8
Schnitt
10
168.918000
20
118.114000
30
0.0
0
VERTEX
8
Schnitt
10
169.126000
20
117.579000
30
0.0
0
VERTEX
8
Schnitt
10
169.337000
20
117.045000
30
0.0
0
VERTEX
8
Schnitt
10
169.545000
20
116.510000
30
0.0
0
VERTEX
8
Schnitt
10
169.746000
20
115.973000
30
0.0
0
VERTEX
8
Schnitt
10
169.935000
20
115.430000
30
0.0
0
VERTEX
8
Schnitt
10
170.132000
20
114.808000
30
0.0
0
VERTEX
8
Schnitt
10
170.318000
20
114.181000
30
0.0
0
VERTEX
8
Schnitt
10
170.508000
20
113.556000
30
0.0
0
VERTEX
8
Schnitt
10
170.714000
20
112.938000
30
0.0
0
VERTEX
8
Schnitt
10
170.948000
20
112.333000
30
0.0
0
VERTEX
8
Schnitt
10
171.211000
20
111.759000
30
0.0
0
VERTEX
8
Schnitt
10
171.504000
20
111.198000
30
0.0
0
VERTEX
8
Schnitt
10
171.816000
20
110.645000
30
0.0
0
VERTEX
8
Schnitt
10
172.140000
20
110.098000
30
0.0
0
VERTEX
8
Schnitt
10
172.466000
20
109.551000
30
0.0
0
VERTEX
8
Schnitt
10
172.673000
20
109.198000
30
0.0
0
VERTEX
8
Schnitt
10
172.877000
20
108.844000
30
0.0
0
VERTEX
8
Schnitt
10
173.079000
20
108.489000
30
0.0
0
VERTEX
8
Schnitt
10
173.279000
20
108.135000
30
0.0
0
VERTEX
8
Schnitt
10
173.478000
20
107.780000
30
0.0
0
VERTEX
8
Schnitt
10
173.633000
20
107.506000
30
0.0
0
VERTEX
8
Schnitt
10
173.786000
20
107.230000
30
0.0
0
VERTEX
8
Schnitt
10
173.938000
20
106.953000
30
0.0
0
VERTEX
8
Schnitt
10
174.089000
20
106.673000
30
0.0
0
VERTEX
8
Schnitt
10
174.237000
20
106.389000
30
0.0
0
VERTEX
8
Schnitt
10
174.437000
20
105.987000
30
0.0
0
VERTEX
8
Schnitt
10
174.619000
20
105.576000
30
0.0
0
VERTEX
8
Schnitt
10
174.771000
20
105.158000
30
0.0
0
VERTEX
8
Schnitt
10
174.880000
20
104.733000
30
0.0
0
VERTEX
8
Schnitt
10
174.934000
20
104.302000
30
0.0
0
VERTEX
8
Schnitt
10
174.932000
20
103.997000
30
0.0
0
VERTEX
8
Schnitt
10
174.899000
20
103.690000
30
0.0
0
VERTEX
8
Schnitt
10
174.834000
20
103.385000
30
0.0
0
VERTEX
8
Schnitt
10
174.740000
20
103.083000
30
0.0
0
VERTEX
8
Schnitt
10
174.617000
20
102.785000
30
0.0
0
VERTEX
8
Schnitt
10
174.497000
20
102.550000
30
0.0
0
VERTEX
8
Schnitt
10
174.357000
20
102.328000
30
0.0
0
VERTEX
8
Schnitt
10
174.195000
20
102.129000
30
0.0
0
VERTEX
8
Schnitt
10
174.008000
20
101.962000
30
0.0
0
VERTEX
8
Schnitt
10
173.794000
20
101.837000
30
0.0
0
VERTEX
8
Schnitt
10
173.605000
20
101.770000
30
0.0
0
VERTEX
8
Schnitt
10
173.407000
20
101.721000
30
0.0
0
VERTEX
8
Schnitt
10
173.208000
20
101.673000
30
0.0
0
VERTEX
8
Schnitt
10
173.018000
20
101.612000
30
0.0
0
VERTEX
8
Schnitt
10
172.846000
20
101.521000
30
0.0
0
VERTEX
8
Schnitt
10
172.750000
20
101.443000
30
0.0
0
VERTEX
8
Schnitt
10
172.664000
20
101.350000
30
0.0
0
VERTEX
8
Schnitt
10
172.589000
20
101.246000
30
0.0
0
VERTEX
8
Schnitt
10
172.523000
20
101.133000
30
0.0
0
VERTEX
8
Schnitt
10
172.466000
20
101.015000
30
0.0
0
VERTEX
8
Schnitt
10
172.368000
20
100.738000
30
0.0
0
VERTEX
8
Schnitt
10
172.299000
20
100.455000
30
0.0
0
VERTEX
8
Schnitt
10
172.241000
20
100.171000
30
0.0
0
VERTEX
8
Schnitt
10
172.176000
20
99.893000
30
0.0
0
VERTEX
8
Schnitt
10
172.087000
20
99.624000
30
0.0
0
VERTEX
8
Schnitt
10
171.994000
20
99.430000
30
0.0
0
VERTEX
8
Schnitt
10
171.881000
20
99.245000
30
0.0
0
VERTEX
8
Schnitt
10
171.751000
20
99.069000
30
0.0
0
VERTEX
8
Schnitt
10
171.608000
20
98.900000
30
0.0
0
VERTEX
8
Schnitt
10
171.454000
20
98.739000
30
0.0
0
VERTEX
8
Schnitt
10
171.202000
20
98.504000
30
0.0
0
VERTEX
8
Schnitt
10
170.935000
20
98.289000
30
0.0
0
VERTEX
8
Schnitt
10
170.656000
20
98.097000
30
0.0
0
VERTEX
8
Schnitt
10
170.364000
20
97.930000
30
0.0
0
VERTEX
8
Schnitt
10
170.062000
20
97.790000
30
0.0
0
VERTEX
8
Schnitt
10
169.745000
20
97.676000
30
0.0
0
VERTEX
8
Schnitt
10
169.419000
20
97.590000
30
0.0
0
VERTEX
8
Schnitt
10
169.086000
20
97.526000
30
0.0
0
VERTEX
8
Schnitt
10
168.747000
20
97.482000
30
0.0
0
VERTEX
8
Schnitt
10
168.055000
20
97.436000
30
0.0
0
VERTEX
8
Schnitt
10
167.352000
20
97.423000
30
0.0
0
VERTEX
8
Schnitt
10
166.645000
20
97.411000
30
0.0
0
VERTEX
8
Schnitt
10
166.140000
20
97.392000
30
0.0
0
VERTEX
8
Schnitt
10
165.639000
20
97.377000
30
0.0
0
VERTEX
8
Schnitt
10
165.144000
20
97.383000
30
0.0
0
VERTEX
8
Schnitt
10
164.656000
20
97.431000
30
0.0
0
VERTEX
8
Schnitt
10
164.177000
20
97.538000
30
0.0
0
VERTEX
8
Schnitt
10
163.825000
20
97.666000
30
0.0
0
VERTEX
8
Schnitt
10
163.482000
20
97.835000
30
0.0
0
VERTEX
8
Schnitt
10
163.154000
20
98.041000
30
0.0
0
VERTEX
8
Schnitt
10
162.845000
20
98.282000
30
0.0
0
VERTEX
8
Schnitt
10
162.560000
20
98.553000
30
0.0
0
VERTEX
8
Schnitt
10
162.303000
20
98.852000
30
0.0
0
VERTEX
8
Schnitt
10
162.079000
20
99.175000
30
0.0
0
VERTEX
8
Schnitt
10
161.892000
20
99.518000
30
0.0
0
VERTEX
8
Schnitt
10
161.746000
20
99.880000
30
0.0
0
VERTEX
8
Schnitt
10
161.647000
20
100.256000
30
0.0
0
VERTEX
8
Schnitt
10
161.589000
20
100.682000
30
0.0
0
VERTEX
8
Schnitt
10
161.561000
20
101.110000
30
0.0
0
VERTEX
8
Schnitt
10
161.530000
20
101.526000
30
0.0
0
VERTEX
8
Schnitt
10
161.464000
20
101.920000
30
0.0
0
VERTEX
8
Schnitt
10
161.408000
20
102.105000
30
0.0
0
VERTEX
8
Schnitt
10
161.330000
20
102.279000
30
0.0
0
VERTEX
8
Schnitt
10
161.167000
20
102.525000
30
0.0
0
VERTEX
8
Schnitt
10
160.958000
20
102.748000
30
0.0
0
VERTEX
8
Schnitt
10
160.717000
20
102.957000
30
0.0
0
VERTEX
8
Schnitt
10
160.457000
20
103.157000
30
0.0
0
VERTEX
8
Schnitt
10
160.191000
20
103.355000
30
0.0
0
VERTEX
8
Schnitt
10
159.817000
20
103.642000
30
0.0
0
VERTEX
8
Schnitt
10
159.455000
20
103.931000
30
0.0
0
VERTEX
8
Schnitt
10
159.103000
20
104.215000
30
0.0
0
VERTEX
8
Schnitt
10
158.758000
20
104.488000
30
0.0
0
VERTEX
8
Schnitt
10
158.419000
20
104.745000
30
0.0
0
VERTEX
8
Schnitt
10
157.961000
20
105.065000
30
0.0
0
VERTEX
8
Schnitt
10
157.490000
20
105.366000
30
0.0
0
VERTEX
8
Schnitt
10
156.989000
20
105.671000
30
0.0
0
VERTEX
8
Schnitt
10
156.441000
20
106.004000
30
0.0
0
VERTEX
8
Schnitt
10
155.826000
20
106.389000
30
0.0
0
VERTEX
8
Schnitt
10
155.592000
20
106.537000
30
0.0
0
VERTEX
8
Schnitt
10
155.361000
20
106.672000
30
0.0
0
VERTEX
8
Schnitt
10
155.146000
20
106.771000
30
0.0
0
VERTEX
8
Schnitt
10
154.959000
20
106.810000
30
0.0
0
VERTEX
8
Schnitt
10
154.880000
20
106.801000
30
0.0
0
VERTEX
8
Schnitt
10
154.813000
20
106.769000
30
0.0
0
VERTEX
8
Schnitt
10
154.740000
20
106.678000
30
0.0
0
VERTEX
8
Schnitt
10
154.689000
20
106.545000
30
0.0
0
VERTEX
8
Schnitt
10
154.656000
20
106.382000
30
0.0
0
VERTEX
8
Schnitt
10
154.636000
20
106.199000
30
0.0
0
VERTEX
8
Schnitt
10
154.623000
20
106.010000
30
0.0
0
VERTEX
8
Schnitt
10
154.595000
20
105.257000
30
0.0
0
VERTEX
8
Schnitt
10
154.599000
20
104.572000
30
0.0
0
VERTEX
8
Schnitt
10
154.630000
20
103.935000
30
0.0
0
VERTEX
8
Schnitt
10
154.682000
20
103.325000
30
0.0
0
VERTEX
8
Schnitt
10
154.750000
20
102.722000
30
0.0
0
VERTEX
8
Schnitt
10
154.949000
20
101.297000
30
0.0
0
VERTEX
8
Schnitt
10
155.208000
20
99.824000
30
0.0
0
VERTEX
8
Schnitt
10
155.528000
20
98.324000
30
0.0
0
VERTEX
8
Schnitt
10
155.910000
20
96.823000
30
0.0
0
VERTEX
8
Schnitt
10
156.356000
20
95.344000
30
0.0
0
VERTEX
8
Schnitt
10
156.823000
20
94.012000
30
0.0
0
VERTEX
8
Schnitt
10
157.325000
20
92.707000
30
0.0
0
VERTEX
8
Schnitt
10
157.844000
20
91.417000
30
0.0
0
VERTEX
8
Schnitt
10
158.360000
20
90.130000
30
0.0
0
VERTEX
8
Schnitt
10
158.853000
20
88.834000
30
0.0
0
VERTEX
8
Schnitt
10
159.061000
20
88.250000
30
0.0
0
VERTEX
8
Schnitt
10
159.258000
20
87.662000
30
0.0
0
VERTEX
8
Schnitt
10
159.445000
20
87.069000
30
0.0
0
VERTEX
8
Schnitt
10
159.618000
20
86.470000
30
0.0
0
VERTEX
8
Schnitt
10
159.776000
20
85.866000
30
0.0
0
VERTEX
8
Schnitt
10
159.994000
20
84.897000
30
0.0
0
VERTEX
8
Schnitt
10
160.162000
20
83.917000
30
0.0
0
VERTEX
8
Schnitt
10
160.270000
20
82.932000
30
0.0
0
VERTEX
8
Schnitt
10
160.310000
20
81.945000
30
0.0
0
VERTEX
8
Schnitt
10
160.301000
20
81.453000
30
0.0
0
VERTEX
8
Schnitt
10
160.271000
20
80.962000
30
0.0
0
VERTEX
8
Schnitt
10
160.210000
20
80.399000
30
0.0
0
VERTEX
8
Schnitt
10
160.126000
20
79.838000
30
0.0
0
VERTEX
8
Schnitt
10
160.022000
20
79.280000
30
0.0
0
VERTEX
8
Schnitt
10
159.905000
20
78.723000
30
0.0
0
VERTEX
8
Schnitt
10
159.779000
20
78.167000
30
0.0
0
VERTEX
8
Schnitt
10
159.625000
20
77.518000
30
0.0
0
VERTEX
8
Schnitt
10
159.461000
20
76.871000
30
0.0
0
VERTEX
8
Schnitt
10
159.283000
20
76.229000
30
0.0
0
VERTEX
8
Schnitt
10
159.086000
20
75.594000
30
0.0
0
VERTEX
8
Schnitt
10
158.866000
20
74.967000
30
0.0
0
VERTEX
8
Schnitt
10
158.793000
20
74.775000
30
0.0
0
VERTEX
8
Schnitt
10
158.718000
20
74.583000
30
0.0
0
VERTEX
8
Schnitt
10
158.641000
20
74.392000
30
0.0
0
VERTEX
8
Schnitt
10
158.563000
20
74.201000
30
0.0
0
VERTEX
8
Schnitt
10
158.484000
20
74.010000
30
0.0
0
VERTEX
8
Schnitt
10
158.699000
20
73.887000
30
0.0
0
VERTEX
8
Schnitt
10
158.915000
20
73.766000
30
0.0
0
VERTEX
8
Schnitt
10
159.132000
20
73.647000
30
0.0
0
VERTEX
8
Schnitt
10
159.352000
20
73.532000
30
0.0
0
VERTEX
8
Schnitt
10
159.575000
20
73.423000
30
0.0
0
VERTEX
8
Schnitt
10
160.053000
20
73.215000
30
0.0
0
VERTEX
8
Schnitt
10
160.545000
20
73.040000
30
0.0
0
VERTEX
8
Schnitt
10
161.048000
20
72.900000
30
0.0
0
VERTEX
8
Schnitt
10
161.559000
20
72.800000
30
0.0
0
VERTEX
8
Schnitt
10
162.075000
20
72.741000
30
0.0
0
VERTEX
8
Schnitt
10
162.504000
20
72.725000
30
0.0
0
VERTEX
8
Schnitt
10
162.933000
20
72.730000
30
0.0
0
VERTEX
8
Schnitt
10
163.363000
20
72.745000
30
0.0
0
VERTEX
8
Schnitt
10
163.792000
20
72.761000
30
0.0
0
VERTEX
8
Schnitt
10
164.222000
20
72.767000
30
0.0
0
VERTEX
8
Schnitt
10
164.823000
20
72.746000
30
0.0
0
VERTEX
8
Schnitt
10
165.424000
20
72.698000
30
0.0
0
VERTEX
8
Schnitt
10
166.024000
20
72.639000
30
0.0
0
VERTEX
8
Schnitt
10
166.625000
20
72.582000
30
0.0
0
VERTEX
8
Schnitt
10
167.227000
20
72.539000
30
0.0
0
VERTEX
8
Schnitt
10
167.642000
20
72.525000
30
0.0
0
VERTEX
8
Schnitt
10
168.057000
20
72.517000
30
0.0
0
VERTEX
8
Schnitt
10
168.472000
20
72.509000
30
0.0
0
VERTEX
8
Schnitt
10
168.886000
20
72.493000
30
0.0
0
VERTEX
8
Schnitt
10
169.298000
20
72.464000
30
0.0
0
VERTEX
8
Schnitt
10
169.783000
20
72.402000
30
0.0
0
VERTEX
8
Schnitt
10
170.264000
20
72.311000
30
0.0
0
VERTEX
8
Schnitt
10
170.740000
20
72.190000
30
0.0
0
VERTEX
8
Schnitt
10
171.210000
20
72.039000
30
0.0
0
VERTEX
8
Schnitt
10
171.673000
20
71.858000
30
0.0
0
VERTEX
8
Schnitt
10
172.227000
20
71.596000
30
0.0
0
VERTEX
8
Schnitt
10
172.757000
20
71.288000
30
0.0
0
VERTEX
8
Schnitt
10
173.250000
20
70.931000
30
0.0
0
VERTEX
8
Schnitt
10
173.693000
20
70.525000
30
0.0
0
VERTEX
8
Schnitt
10
173.891000
20
70.302000
30
0.0
0
VERTEX
8
Schnitt
10
174.072000
20
70.066000
30
0.0
0
VERTEX
8
Schnitt
10
174.301000
20
69.702000
30
0.0
0
VERTEX
8
Schnitt
10
174.495000
20
69.316000
30
0.0
0
VERTEX
8
Schnitt
10
174.658000
20
68.912000
30
0.0
0
VERTEX
8
Schnitt
10
174.793000
20
68.496000
30
0.0
0
VERTEX
8
Schnitt
10
174.906000
20
68.072000
30
0.0
0
VERTEX
8
Schnitt
10
175.065000
20
67.279000
30
0.0
0
VERTEX
8
Schnitt
10
175.165000
20
66.480000
30
0.0
0
VERTEX
8
Schnitt
10
175.209000
20
65.678000
30
0.0
0
VERTEX
8
Schnitt
10
175.203000
20
64.875000
30
0.0
0
VERTEX
8
Schnitt
10
175.151000
20
64.072000
30
0.0
0
VERTEX
8
Schnitt
10
175.098000
20
63.578000
30
0.0
0
VERTEX
8
Schnitt
10
175.039000
20
63.085000
30
0.0
0
VERTEX
8
Schnitt
10
174.981000
20
62.593000
30
0.0
0
VERTEX
8
Schnitt
10
174.935000
20
62.101000
30
0.0
0
VERTEX
8
Schnitt
10
174.908000
20
61.610000
30
0.0
0
VERTEX
8
Schnitt
10
174.919000
20
60.846000
30
0.0
0
VERTEX
8
Schnitt
10
174.983000
20
60.081000
30
0.0
0
VERTEX
8
Schnitt
10
175.081000
20
59.315000
30
0.0
0
VERTEX
8
Schnitt
10
175.197000
20
58.547000
30
0.0
0
VERTEX
8
Schnitt
10
175.312000
20
57.776000
30
0.0
0
VERTEX
8
Schnitt
10
175.487000
20
56.365000
30
0.0
0
VERTEX
8
Schnitt
10
175.638000
20
54.952000
30
0.0
0
VERTEX
8
Schnitt
10
175.802000
20
53.551000
30
0.0
0
VERTEX
8
Schnitt
10
176.016000
20
52.175000
30
0.0
0
VERTEX
8
Schnitt
10
176.152000
20
51.501000
30
0.0
0
VERTEX
8
Schnitt
10
176.314000
20
50.837000
30
0.0
0
VERTEX
8
Schnitt
10
176.408000
20
50.499000
30
0.0
0
VERTEX
8
Schnitt
10
176.506000
20
50.161000
30
0.0
0
VERTEX
8
Schnitt
10
176.603000
20
49.817000
30
0.0
0
VERTEX
8
Schnitt
10
176.694000
20
49.463000
30
0.0
0
VERTEX
8
Schnitt
10
176.776000
20
49.094000
30
0.0
0
VERTEX
8
Schnitt
10
176.850000
20
48.656000
30
0.0
0
VERTEX
8
Schnitt
10
176.887000
20
48.214000
30
0.0
0
VERTEX
8
Schnitt
10
176.870000
20
47.787000
30
0.0
0
VERTEX
8
Schnitt
10
176.835000
20
47.585000
30
0.0
0
VERTEX
8
Schnitt
10
176.780000
20
47.394000
30
0.0
0
VERTEX
8
Schnitt
10
176.702000
20
47.217000
30
0.0
0
VERTEX
8
Schnitt
10
176.599000
20
47.055000
30
0.0
0
VERTEX
8
Schnitt
10
176.447000
20
46.891000
30
0.0
0
VERTEX
8
Schnitt
10
176.268000
20
46.745000
30
0.0
0
VERTEX
8
Schnitt
10
176.067000
20
46.613000
30
0.0
0
VERTEX
8
Schnitt
10
175.854000
20
46.491000
30
0.0
0
VERTEX
8
Schnitt
10
175.636000
20
46.371000
30
0.0
0
VERTEX
8
Schnitt
10
175.267000
20
46.163000
30
0.0
0
VERTEX
8
Schnitt
10
174.913000
20
45.943000
30
0.0
0
VERTEX
8
Schnitt
10
174.582000
20
45.706000
30
0.0
0
VERTEX
8
Schnitt
10
174.279000
20
45.445000
30
0.0
0
VERTEX
8
Schnitt
10
174.013000
20
45.156000
30
0.0
0
VERTEX
8
Schnitt
10
173.791000
20
44.840000
30
0.0
0
VERTEX
8
Schnitt
10
173.598000
20
44.499000
30
0.0
0
VERTEX
8
Schnitt
10
173.422000
20
44.140000
30
0.0
0
VERTEX
8
Schnitt
10
173.251000
20
43.773000
30
0.0
0
VERTEX
8
Schnitt
10
173.072000
20
43.404000
30
0.0
0
VERTEX
8
Schnitt
10
172.867000
20
43.027000
30
0.0
0
VERTEX
8
Schnitt
10
172.637000
20
42.668000
30
0.0
0
VERTEX
8
Schnitt
10
172.381000
20
42.334000
30
0.0
0
VERTEX
8
Schnitt
10
172.095000
20
42.037000
30
0.0
0
VERTEX
8
Schnitt
10
171.776000
20
41.784000
30
0.0
0
VERTEX
8
Schnitt
10
171.471000
20
41.605000
30
0.0
0
VERTEX
8
Schnitt
10
171.145000
20
41.459000
30
0.0
0
VERTEX
8
Schnitt
10
170.803000
20
41.338000
30
0.0
0
VERTEX
8
Schnitt
10
170.449000
20
41.233000
30
0.0
0
VERTEX
8
Schnitt
10
170.091000
20
41.136000
30
0.0
0
VERTEX
8
Schnitt
10
169.870000
20
41.026500
30
0.0
0
VERTEX
8
Schnitt
10
169.648000
20
40.919000
30
0.0
0
VERTEX
8
Schnitt
10
169.499000
20
40.850000
30
0.0
0
VERTEX
8
Schnitt
10
169.348000
20
40.784000
30
0.0
0
VERTEX
8
Schnitt
10
169.143000
20
40.701000
30
0.0
0
VERTEX
8
Schnitt
10
168.936000
20
40.620000
30
0.0
0
VERTEX
8
Schnitt
10
168.729000
20
40.537000
30
0.0
0
VERTEX
8
Schnitt
10
168.526000
20
40.449000
30
0.0
0
VERTEX
8
Schnitt
10
168.328000
20
40.351000
30
0.0
0
VERTEX
8
Schnitt
10
168.014000
20
40.161000
30
0.0
0
VERTEX
8
Schnitt
10
167.711000
20
39.949000
30
0.0
0
VERTEX
8
Schnitt
10
167.413000
20
39.733000
30
0.0
0
VERTEX
8
Schnitt
10
167.110000
20
39.530000
30
0.0
0
VERTEX
8
Schnitt
10
166.796000
20
39.356000
30
0.0
0
VERTEX
8
Schnitt
10
166.539000
20
39.251000
30
0.0
0
VERTEX
8
Schnitt
10
166.272000
20
39.168000
30
0.0
0
VERTEX
8
Schnitt
10
165.996000
20
39.103000
30
0.0
0
VERTEX
8
Schnitt
10
165.711000
20
39.048000
30
0.0
0
VERTEX
8
Schnitt
10
165.418000
20
38.999000
30
0.0
0
VERTEX
8
Schnitt
10
164.774000
20
38.900000
30
0.0
0
VERTEX
8
Schnitt
10
164.123000
20
38.831000
30
0.0
0
VERTEX
8
Schnitt
10
163.803000
20
38.819000
30
0.0
0
VERTEX
8
Schnitt
10
163.491000
20
38.828000
30
0.0
0
VERTEX
8
Schnitt
10
163.190000
20
38.861000
30
0.0
0
VERTEX
8
Schnitt
10
162.902000
20
38.924000
30
0.0
0
VERTEX
8
Schnitt
10
162.632000
20
39.019000
30
0.0
0
VERTEX
8
Schnitt
10
162.381000
20
39.152000
30
0.0
0
VERTEX
8
Schnitt
10
162.212000
20
39.274000
30
0.0
0
VERTEX
8
Schnitt
10
162.056000
20
39.416000
30
0.0
0
VERTEX
8
Schnitt
10
161.776000
20
39.752000
30
0.0
0
VERTEX
8
Schnitt
10
161.539000
20
40.142000
30
0.0
0
VERTEX
8
Schnitt
10
161.342000
20
40.568000
30
0.0
0
VERTEX
8
Schnitt
10
161.181000
20
41.014000
30
0.0
0
VERTEX
8
Schnitt
10
161.069000
20
41.401000
30
0.0
0
VERTEX
8
Schnitt
10
160.982000
20
41.789000
30
0.0
0
VERTEX
8
Schnitt
10
160.918000
20
42.177000
30
0.0
0
VERTEX
8
Schnitt
10
160.876000
20
42.563000
30
0.0
0
VERTEX
8
Schnitt
10
160.857000
20
42.948000
30
0.0
0
VERTEX
8
Schnitt
10
160.860000
20
43.330000
30
0.0
0
VERTEX
8
Schnitt
10
160.884000
20
43.709000
30
0.0
0
VERTEX
8
Schnitt
10
160.929000
20
44.083000
30
0.0
0
VERTEX
8
Schnitt
10
160.994000
20
44.452000
30
0.0
0
VERTEX
8
Schnitt
10
161.079000
20
44.814000
30
0.0
0
VERTEX
8
Schnitt
10
161.184000
20
45.173000
30
0.0
0
VERTEX
8
Schnitt
10
161.308000
20
45.525000
30
0.0
0
VERTEX
8
Schnitt
10
161.611000
20
46.212000
30
0.0
0
VERTEX
8
Schnitt
10
161.983000
20
46.881000
30
0.0
0
VERTEX
8
Schnitt
10
162.420000
20
47.535000
30
0.0
0
VERTEX
8
Schnitt
10
162.917000
20
48.181000
30
0.0
0
VERTEX
8
Schnitt
10
163.299000
20
48.626000
30
0.0
0
VERTEX
8
Schnitt
10
163.708000
20
49.037000
30
0.0
0
VERTEX
8
Schnitt
10
163.924000
20
49.219000
30
0.0
0
VERTEX
8
Schnitt
10
164.147000
20
49.380000
30
0.0
0
VERTEX
8
Schnitt
10
164.377000
20
49.517000
30
0.0
0
VERTEX
8
Schnitt
10
164.614000
20
49.624000
30
0.0
0
VERTEX
8
Schnitt
10
164.859000
20
49.699000
30
0.0
0
VERTEX
8
Schnitt
10
165.112000
20
49.737000
30
0.0
0
VERTEX
8
Schnitt
10
165.294000
20
49.739000
30
0.0
0
VERTEX
8
Schnitt
10
165.481000
20
49.726000
30
0.0
0
VERTEX
8
Schnitt
10
165.670000
20
49.701000
30
0.0
0
VERTEX
8
Schnitt
10
165.959000
20
49.652000
30
0.0
0
VERTEX
8
Schnitt
10
166.399000
20
49.579000
30
0.0
0
VERTEX
8
Schnitt
10
166.742000
20
49.541000
30
0.0
0
VERTEX
8
Schnitt
10
167.080000
20
49.534000
30
0.0
0
VERTEX
8
Schnitt
10
167.406000
20
49.569000
30
0.0
0
VERTEX
8
Schnitt
10
167.715000
20
49.660000
30
0.0
0
VERTEX
8
Schnitt
10
167.894000
20
49.748000
30
0.0
0
VERTEX
8
Schnitt
10
168.064000
20
49.857000
30
0.0
0
VERTEX
8
Schnitt
10
168.227000
20
49.984000
30
0.0
0
VERTEX
8
Schnitt
10
168.383000
20
50.124000
30
0.0
0
VERTEX
8
Schnitt
10
168.531000
20
50.272000
30
0.0
0
VERTEX
8
Schnitt
10
168.857000
20
50.642000
30
0.0
0
VERTEX
8
Schnitt
10
169.149000
20
51.035000
30
0.0
0
VERTEX
8
Schnitt
10
169.408000
20
51.448000
30
0.0
0
VERTEX
8
Schnitt
10
169.637000
20
51.879000
30
0.0
0
VERTEX
8
Schnitt
10
169.838000
20
52.324000
30
0.0
0
VERTEX
8
Schnitt
10
170.011000
20
52.782000
30
0.0
0
VERTEX
8
Schnitt
10
170.160000
20
53.250000
30
0.0
0
VERTEX
8
Schnitt
10
170.285000
20
53.725000
30
0.0
0
VERTEX
8
Schnitt
10
170.471000
20
54.685000
30
0.0
0
VERTEX
8
Schnitt
10
170.545000
20
55.242000
30
0.0
0
VERTEX
8
Schnitt
10
170.595000
20
55.799000
30
0.0
0
VERTEX
8
Schnitt
10
170.622000
20
56.357000
30
0.0
0
VERTEX
8
Schnitt
10
170.627000
20
56.916000
30
0.0
0
VERTEX
8
Schnitt
10
170.610000
20
57.477000
30
0.0
0
VERTEX
8
Schnitt
10
170.552000
20
58.236000
30
0.0
0
VERTEX
8
Schnitt
10
170.449000
20
58.991000
30
0.0
0
VERTEX
8
Schnitt
10
170.293000
20
59.734000
30
0.0
0
VERTEX
8
Schnitt
10
170.077000
20
60.456000
30
0.0
0
VERTEX
8
Schnitt
10
169.793000
20
61.148000
30
0.0
0
VERTEX
8
Schnitt
10
169.628000
20
61.474000
30
0.0
0
VERTEX
8
Schnitt
10
169.448000
20
61.794000
30
0.0
0
VERTEX
8
Schnitt
10
169.257000
20
62.110000
30
0.0
0
VERTEX
8
Schnitt
10
169.058000
20
62.424000
30
0.0
0
VERTEX
8
Schnitt
10
168.855000
20
62.739000
30
0.0
0
VERTEX
8
Schnitt
10
168.684000
20
63.002000
30
0.0
0
VERTEX
8
Schnitt
10
168.506000
20
63.260000
30
0.0
0
VERTEX
8
Schnitt
10
168.316000
20
63.505000
30
0.0
0
VERTEX
8
Schnitt
10
168.107000
20
63.728000
30
0.0
0
VERTEX
8
Schnitt
10
167.875000
20
63.922000
30
0.0
0
VERTEX
8
Schnitt
10
167.697000
20
64.035000
30
0.0
0
VERTEX
8
Schnitt
10
167.508000
20
64.132000
30
0.0
0
VERTEX
8
Schnitt
10
167.309000
20
64.212000
30
0.0
0
VERTEX
8
Schnitt
10
167.104000
20
64.278000
30
0.0
0
VERTEX
8
Schnitt
10
166.895000
20
64.330000
30
0.0
0
VERTEX
8
Schnitt
10
166.438000
20
64.397000
30
0.0
0
VERTEX
8
Schnitt
10
165.978000
20
64.411000
30
0.0
0
VERTEX
8
Schnitt
10
165.518000
20
64.379000
30
0.0
0
VERTEX
8
Schnitt
10
165.060000
20
64.309000
30
0.0
0
VERTEX
8
Schnitt
10
164.609000
20
64.207000
30
0.0
0
VERTEX
8
Schnitt
10
164.183000
20
64.087000
30
0.0
0
VERTEX
8
Schnitt
10
163.763000
20
63.949000
30
0.0
0
VERTEX
8
Schnitt
10
163.348000
20
63.798000
30
0.0
0
VERTEX
8
Schnitt
10
162.937000
20
63.638000
30
0.0
0
VERTEX
8
Schnitt
10
162.528000
20
63.473000
30
0.0
0
VERTEX
8
Schnitt
10
161.776000
20
63.168000
30
0.0
0
VERTEX
8
Schnitt
10
161.023000
20
62.860000
30
0.0
0
VERTEX
8
Schnitt
10
160.272000
20
62.551000
30
0.0
0
VERTEX
8
Schnitt
10
159.522000
20
62.239000
30
0.0
0
VERTEX
8
Schnitt
10
158.773000
20
61.923000
30
0.0
0
VERTEX
8
Schnitt
10
158.022000
20
61.603000
30
0.0
0
VERTEX
8
Schnitt
10
157.272000
20
61.281000
30
0.0
0
VERTEX
8
Schnitt
10
156.522000
20
60.960000
30
0.0
0
VERTEX
8
Schnitt
10
155.771000
20
60.643000
30
0.0
0
VERTEX
8
Schnitt
10
155.017000
20
60.332000
30
0.0
0
VERTEX
8
Schnitt
10
154.511000
20
60.128000
30
0.0
0
VERTEX
8
Schnitt
10
154.005000
20
59.926000
30
0.0
0
VERTEX
8
Schnitt
10
153.498000
20
59.724000
30
0.0
0
VERTEX
8
Schnitt
10
152.992000
20
59.520000
30
0.0
0
VERTEX
8
Schnitt
10
152.487000
20
59.312000
30
0.0
0
VERTEX
8
Schnitt
10
151.970000
20
59.096000
30
0.0
0
VERTEX
8
Schnitt
10
151.450000
20
58.885000
30
0.0
0
VERTEX
8
Schnitt
10
150.924000
20
58.694000
30
0.0
0
VERTEX
8
Schnitt
10
150.387000
20
58.533000
30
0.0
0
VERTEX
8
Schnitt
10
149.834000
20
58.415000
30
0.0
0
VERTEX
8
Schnitt
10
149.536000
20
58.375000
30
0.0
0
VERTEX
8
Schnitt
10
149.237000
20
58.355000
30
0.0
0
VERTEX
8
Schnitt
10
148.939000
20
58.359000
30
0.0
0
VERTEX
8
Schnitt
10
148.647000
20
58.391000
30
0.0
0
VERTEX
8
Schnitt
10
148.364000
20
58.456000
30
0.0
0
VERTEX
8
Schnitt
10
148.080000
20
58.562000
30
0.0
0
VERTEX
8
Schnitt
10
147.808000
20
58.703000
30
0.0
0
VERTEX
8
Schnitt
10
147.548000
20
58.873000
30
0.0
0
VERTEX
8
Schnitt
10
147.298000
20
59.064000
30
0.0
0
VERTEX
8
Schnitt
10
147.058000
20
59.272000
30
0.0
0
VERTEX
8
Schnitt
10
146.868000
20
59.446000
30
0.0
0
VERTEX
8
Schnitt
10
146.679000
20
59.619000
30
0.0
0
VERTEX
8
Schnitt
10
146.488000
20
59.782000
30
0.0
0
VERTEX
8
Schnitt
10
146.289000
20
59.927000
30
0.0
0
VERTEX
8
Schnitt
10
146.078000
20
60.047000
30
0.0
0
VERTEX
8
Schnitt
10
145.787000
20
60.153000
30
0.0
0
VERTEX
8
Schnitt
10
145.476000
20
60.213000
30
0.0
0
VERTEX
8
Schnitt
10
145.152000
20
60.236000
30
0.0
0
VERTEX
8
Schnitt
10
144.820000
20
60.232000
30
0.0
0
VERTEX
8
Schnitt
10
144.487000
20
60.210000
30
0.0
0
VERTEX
8
Schnitt
10
143.817000
20
60.136000
30
0.0
0
VERTEX
8
Schnitt
10
143.166000
20
60.027000
30
0.0
0
VERTEX
8
Schnitt
10
142.530000
20
59.881000
30
0.0
0
VERTEX
8
Schnitt
10
141.910000
20
59.698000
30
0.0
0
VERTEX
8
Schnitt
10
141.303000
20
59.476000
30
0.0
0
VERTEX
8
Schnitt
10
140.820000
20
59.268000
30
0.0
0
VERTEX
8
Schnitt
10
140.344000
20
59.039000
30
0.0
0
VERTEX
8
Schnitt
10
139.872000
20
58.797000
30
0.0
0
VERTEX
8
Schnitt
10
139.403000
20
58.546000
30
0.0
0
VERTEX
8
Schnitt
10
138.935000
20
58.293000
30
0.0
0
VERTEX
8
Schnitt
10
138.000000
20
57.794000
30
0.0
0
VERTEX
8
Schnitt
10
137.064000
20
57.303000
30
0.0
0
VERTEX
8
Schnitt
10
136.130000
20
56.812000
30
0.0
0
VERTEX
8
Schnitt
10
135.198000
20
56.315000
30
0.0
0
VERTEX
8
Schnitt
10
134.270000
20
55.805000
30
0.0
0
VERTEX
8
Schnitt
10
133.861000
20
55.574000
30
0.0
0
VERTEX
8
Schnitt
10
133.450000
20
55.347000
30
0.0
0
VERTEX
8
Schnitt
10
133.034000
20
55.130000
30
0.0
0
VERTEX
8
Schnitt
10
132.611000
20
54.932000
30
0.0
0
VERTEX
8
Schnitt
10
132.178000
20
54.759000
30
0.0
0
VERTEX
8
Schnitt
10
131.852000
20
54.651000
30
0.0
0
VERTEX
8
Schnitt
10
131.521000
20
54.555000
30
0.0
0
VERTEX
8
Schnitt
10
131.187000
20
54.467000
30
0.0
0
VERTEX
8
Schnitt
10
130.854000
20
54.382000
30
0.0
0
VERTEX
8
Schnitt
10
130.522000
20
54.293000
30
0.0
0
VERTEX
8
Schnitt
10
130.259000
20
54.218000
30
0.0
0
VERTEX
8
Schnitt
10
129.996000
20
54.141000
30
0.0
0
VERTEX
8
Schnitt
10
129.731000
20
54.066000
30
0.0
0
VERTEX
8
Schnitt
10
129.463000
20
53.998000
30
0.0
0
VERTEX
8
Schnitt
10
129.188000
20
53.940000
30
0.0
0
VERTEX
8
Schnitt
10
128.871000
20
53.888000
30
0.0
0
VERTEX
8
Schnitt
10
128.552000
20
53.839000
30
0.0
0
VERTEX
8
Schnitt
10
128.240000
20
53.779000
30
0.0
0
VERTEX
8
Schnitt
10
127.946000
20
53.694000
30
0.0
0
VERTEX
8
Schnitt
10
127.678000
20
53.570000
30
0.0
0
VERTEX
8
Schnitt
10
127.525000
20
53.466000
30
0.0
0
VERTEX
8
Schnitt
10
127.386000
20
53.342000
30
0.0
0
VERTEX
8
Schnitt
10
127.140000
20
53.046000
30
0.0
0
VERTEX
8
Schnitt
10
126.932000
20
52.701000
30
0.0
0
VERTEX
8
Schnitt
10
126.750000
20
52.323000
30
0.0
0
VERTEX
8
Schnitt
10
126.585000
20
51.932000
30
0.0
0
VERTEX
8
Schnitt
10
126.050000
20
50.541000
30
0.0
0
VERTEX
8
Schnitt
10
125.580000
20
49.187000
30
0.0
0
VERTEX
8
Schnitt
10
125.150000
20
47.857000
30
0.0
0
VERTEX
8
Schnitt
10
124.735000
20
46.539000
30
0.0
0
VERTEX
8
Schnitt
10
124.313000
20
45.220000
30
0.0
0
VERTEX
8
Schnitt
10
123.926000
20
44.063000
30
0.0
0
VERTEX
8
Schnitt
10
123.528000
20
42.897000
30
0.0
0
VERTEX
8
Schnitt
10
123.136000
20
41.722000
30
0.0
0
VERTEX
8
Schnitt
10
122.762000
20
40.539000
30
0.0
0
VERTEX
8
Schnitt
10
122.423000
20
39.347000
30
0.0
0
VERTEX
8
Schnitt
10
122.062000
20
37.859000
30
0.0
0
VERTEX
8
Schnitt
10
121.752000
20
36.363000
30
0.0
0
VERTEX
8
Schnitt
10
121.471000
20
34.860000
30
0.0
0
VERTEX
8
Schnitt
10
121.195000
20
33.355000
30
0.0
0
VERTEX
8
Schnitt
10
120.901000
20
31.850000
30
0.0
0
VERTEX
8
Schnitt
10
120.769000
20
31.234000
30
0.0
0
VERTEX
8
Schnitt
10
120.626000
20
30.621000
30
0.0
0
VERTEX
8
Schnitt
10
120.465000
20
30.013000
30
0.0
0
VERTEX
8
Schnitt
10
120.283000
20
29.414000
30
0.0
0
VERTEX
8
Schnitt
10
120.073000
20
28.824000
30
0.0
0
VERTEX
8
Schnitt
10
119.910000
20
28.424000
30
0.0
0
VERTEX
8
Schnitt
10
119.735000
20
28.029000
30
0.0
0
VERTEX
8
Schnitt
10
119.551000
20
27.638000
30
0.0
0
VERTEX
8
Schnitt
10
119.360000
20
27.248000
30
0.0
0
VERTEX
8
Schnitt
10
119.167000
20
26.859000
30
0.0
0
VERTEX
8
Schnitt
10
118.877000
20
26.274000
30
0.0
0
VERTEX
8
Schnitt
10
118.595000
20
25.686000
30
0.0
0
VERTEX
8
Schnitt
10
118.328000
20
25.093000
30
0.0
0
VERTEX
8
Schnitt
10
118.085000
20
24.493000
30
0.0
0
VERTEX
8
Schnitt
10
117.873000
20
23.885000
30
0.0
0
VERTEX
8
Schnitt
10
117.629000
20
22.989000
30
0.0
0
VERTEX
8
Schnitt
10
117.442000
20
22.075000
30
0.0
0
VERTEX
8
Schnitt
10
117.288000
20
21.150000
30
0.0
0
VERTEX
8
Schnitt
10
117.142000
20
20.217000
30
0.0
0
VERTEX
8
Schnitt
10
116.980000
20
19.280000
30
0.0
0
VERTEX
8
Schnitt
10
116.869000
20
18.720000
30
0.0
0
VERTEX
8
Schnitt
10
116.759000
20
18.161000
30
0.0
0
VERTEX
8
Schnitt
10
116.664000
20
17.605000
30
0.0
0
VERTEX
8
Schnitt
10
116.601000
20
17.052000
30
0.0
0
VERTEX
8
Schnitt
10
116.583000
20
16.502000
30
0.0
0
VERTEX
8
Schnitt
10
116.604000
20
16.139000
30
0.0
0
VERTEX
8
Schnitt
10
116.647000
20
15.778000
30
0.0
0
VERTEX
8
Schnitt
10
116.793000
20
15.057000
30
0.0
0
VERTEX
8
Schnitt
10
116.993000
20
14.335000
30
0.0
0
VERTEX
8
Schnitt
10
117.219000
20
13.606000
30
0.0
0
VERTEX
8
Schnitt
10
117.444000
20
12.864000
30
0.0
0
VERTEX
8
Schnitt
10
117.642000
20
12.145000
30
0.0
0
VERTEX
8
Schnitt
10
117.844000
20
11.433000
30
0.0
0
VERTEX
8
Schnitt
10
118.079000
20
10.749000
30
0.0
0
VERTEX
8
Schnitt
10
118.219000
20
10.424000
30
0.0
0
VERTEX
8
Schnitt
10
118.377000
20
10.116000
30
0.0
0
VERTEX
8
Schnitt
10
118.559000
20
9.826000
30
0.0
0
VERTEX
8
Schnitt
10
118.768000
20
9.557000
30
0.0
0
VERTEX
8
Schnitt
10
119.074000
20
9.247000
30
0.0
0
VERTEX
8
Schnitt
10
119.418000
20
8.965000
30
0.0
0
VERTEX
8
Schnitt
10
119.787000
20
8.699000
30
0.0
0
VERTEX
8
Schnitt
10
120.170000
20
8.437000
30
0.0
0
VERTEX
8
Schnitt
10
120.555000
20
8.168000
30
0.0
0
VERTEX
8
Schnitt
10
120.881000
20
7.920000
30
0.0
0
VERTEX
8
Schnitt
10
121.187000
20
7.655000
30
0.0
0
VERTEX
8
Schnitt
10
121.464000
20
7.368000
30
0.0
0
VERTEX
8
Schnitt
10
121.698000
20
7.055000
30
0.0
0
VERTEX
8
Schnitt
10
121.878000
20
6.713000
30
0.0
0
VERTEX
8
Schnitt
10
121.997000
20
6.352000
30
0.0
0
VERTEX
8
Schnitt
10
122.079000
20
5.973000
30
0.0
0
VERTEX
8
Schnitt
10
122.148000
20
5.590000
30
0.0
0
VERTEX
8
Schnitt
10
122.228000
20
5.215000
30
0.0
0
VERTEX
8
Schnitt
10
122.342000
20
4.861000
30
0.0
0
VERTEX
8
Schnitt
10
122.441000
20
4.656000
30
0.0
0
VERTEX
8
Schnitt
10
122.560000
20
4.462000
30
0.0
0
VERTEX
8
Schnitt
10
122.850000
20
4.101000
30
0.0
0
VERTEX
8
Schnitt
10
123.189000
20
3.760000
30
0.0
0
VERTEX
8
Schnitt
10
123.556000
20
3.424000
30
0.0
0
VERTEX
8
Schnitt
10
123.931000
20
3.075000
30
0.0
0
VERTEX
8
Schnitt
10
124.261000
20
2.733000
30
0.0
0
VERTEX
8
Schnitt
10
124.555000
20
2.367000
30
0.0
0
VERTEX
8
Schnitt
10
124.790000
20
1.981000
30
0.0
0
VERTEX
8
Schnitt
10
124.878000
20
1.781000
30
0.0
0
VERTEX
8
Schnitt
10
124.943000
20
1.577000
30
0.0
0
VERTEX
8
Schnitt
10
124.981000
20
1.369000
30
0.0
0
VERTEX
8
Schnitt
10
124.990000
20
1.157000
30
0.0
0
VERTEX
8
Schnitt
10
124.983000
20
1.055000
30
0.0
0
VERTEX
8
Schnitt
10
124.970000
20
0.952000
30
0.0
0
VERTEX
8
Schnitt
10
124.953000
20
0.849000
30
0.0
0
VERTEX
8
Schnitt
10
124.922000
20
0.694000
30
0.0
0
VERTEX
8
Schnitt
10
122.588000
20
0.615000
30
0.0
0
VERTEX
8
Schnitt
10
120.264000
20
0.588000
30
0.0
0
VERTEX
8
Schnitt
10
117.941000
20
0.562000
30
0.0
0
VERTEX
8
Schnitt
10
115.617000
20
0.535000
30
0.0
0
VERTEX
8
Schnitt
10
113.293000
20
0.509000
30
0.0
0
VERTEX
8
Schnitt
10
113.242000
20
0.642333
30
0.0
0
VERTEX
8
Schnitt
10
113.175000
20
0.808500
30
0.0
0
VERTEX
8
Schnitt
10
113.038000
20
1.111000
30
0.0
0
VERTEX
8
Schnitt
10
112.898000
20
1.373000
30
0.0
0
VERTEX
8
Schnitt
10
112.744000
20
1.627000
30
0.0
0
VERTEX
8
Schnitt
10
112.575000
20
1.871000
30
0.0
0
VERTEX
8
Schnitt
10
112.391000
20
2.102000
30
0.0
0
VERTEX
8
Schnitt
10
112.201000
20
2.314000
30
0.0
0
VERTEX
8
Schnitt
10
112.000000
20
2.515000
30
0.0
0
VERTEX
8
Schnitt
10
111.791000
20
2.709000
30
0.0
0
VERTEX
8
Schnitt
10
111.576000
20
2.898000
30
0.0
0
VERTEX
8
Schnitt
10
111.359000
20
3.084000
30
0.0
0
VERTEX
8
Schnitt
10
109.639000
20
3.085000
30
0.0
0
VERTEX
8
Schnitt
10
107.920000
20
3.086000
30
0.0
0
VERTEX
8
Schnitt
10
106.200000
20
3.086000
30
0.0
0
VERTEX
8
Schnitt
10
104.480000
20
3.087000
30
0.0
0
VERTEX
8
Schnitt
10
102.760000
20
3.088000
30
0.0
0
VERTEX
8
Schnitt
10
102.613000
20
3.259000
30
0.0
0
VERTEX
8
Schnitt
10
102.465000
20
3.429000
30
0.0
0
VERTEX
8
Schnitt
10
102.314000
20
3.598000
30
0.0
0
VERTEX
8
Schnitt
10
102.158000
20
3.765000
30
0.0
0
VERTEX
8
Schnitt
10
101.997000
20
3.930000
30
0.0
0
VERTEX
8
Schnitt
10
101.639000
20
4.268000
30
0.0
0
VERTEX
8
Schnitt
10
101.275000
20
4.604000
30
0.0
0
VERTEX
8
Schnitt
10
100.928000
20
4.946000
30
0.0
0
VERTEX
8
Schnitt
10
100.625000
20
5.306000
30
0.0
0
VERTEX
8
Schnitt
10
100.498000
20
5.496000
30
0.0
0
VERTEX
8
Schnitt
10
100.391000
20
5.693000
30
0.0
0
VERTEX
8
Schnitt
10
100.278000
20
5.985000
30
0.0
0
VERTEX
8
Schnitt
10
100.205000
20
6.293000
30
0.0
0
VERTEX
8
Schnitt
10
100.164000
20
6.614000
30
0.0
0
VERTEX
8
Schnitt
10
100.150000
20
6.946000
30
0.0
0
VERTEX
8
Schnitt
10
100.172000
20
7.634000
30
0.0
0
VERTEX
8
Schnitt
10
100.217000
20
8.337000
30
0.0
0
VERTEX
8
Schnitt
10
100.233000
20
9.035000
30
0.0
0
VERTEX
8
Schnitt
10
100.181000
20
9.666000
30
0.0
0
VERTEX
8
Schnitt
10
100.065000
20
10.278000
30
0.0
0
VERTEX
8
Schnitt
10
99.892000
20
10.874000
30
0.0
0
VERTEX
8
Schnitt
10
99.669000
20
11.454000
30
0.0
0
VERTEX
8
Schnitt
10
99.403000
20
12.020000
30
0.0
0
VERTEX
8
Schnitt
10
99.103000
20
12.576000
30
0.0
0
VERTEX
8
Schnitt
10
98.776000
20
13.121000
30
0.0
0
VERTEX
8
Schnitt
10
98.429000
20
13.658000
30
0.0
0
VERTEX
8
Schnitt
10
97.705000
20
14.715000
30
0.0
0
VERTEX
8
Schnitt
10
96.610000
20
16.294000
30
0.0
0
VERTEX
8
Schnitt
10
95.526000
20
17.849000
30
0.0
0
VERTEX
8
Schnitt
10
94.437000
20
19.379000
30
0.0
0
VERTEX
8
Schnitt
10
93.330000
20
20.887000
30
0.0
0
VERTEX
8
Schnitt
10
92.188000
20
22.374000
30
0.0
0
VERTEX
8
Schnitt
10
91.268000
20
23.523000
30
0.0
0
VERTEX
8
Schnitt
10
90.335000
20
24.668000
30
0.0
0
VERTEX
8
Schnitt
10
89.407000
20
25.818000
30
0.0
0
VERTEX
8
Schnitt
10
88.501000
20
26.983000
30
0.0
0
VERTEX
8
Schnitt
10
87.634000
20
28.170000
30
0.0
0
VERTEX
8
Schnitt
10
87.231000
20
28.756000
30
0.0
0
VERTEX
8
Schnitt
10
86.835000
20
29.346000
30
0.0
0
VERTEX
8
Schnitt
10
86.438000
20
29.938000
30
0.0
0
VERTEX
8
Schnitt
10
86.033000
20
30.529000
30
0.0
0
VERTEX
8
Schnitt
10
85.613000
20
31.116000
30
0.0
0
VERTEX
8
Schnitt
10
85.337000
20
31.486000
30
0.0
0
VERTEX
8
Schnitt
10
85.068000
20
31.859000
30
0.0
0
VERTEX
8
Schnitt
10
84.817000
20
32.240000
30
0.0
0
VERTEX
8
Schnitt
10
84.601000
20
32.636000
30
0.0
0
VERTEX
8
Schnitt
10
84.433000
20
33.051000
30
0.0
0
VERTEX
8
Schnitt
10
84.361000
20
33.311000
30
0.0
0
VERTEX
8
Schnitt
10
84.310000
20
33.578000
30
0.0
0
VERTEX
8
Schnitt
10
84.278000
20
33.850000
30
0.0
0
VERTEX
8
Schnitt
10
84.263000
20
34.124000
30
0.0
0
VERTEX
8
Schnitt
10
84.265000
20
34.398000
30
0.0
0
VERTEX
8
Schnitt
10
84.302000
20
34.881000
30
0.0
0
VERTEX
8
Schnitt
10
84.379000
20
35.358000
30
0.0
0
VERTEX
8
Schnitt
10
84.487000
20
35.828000
30
0.0
0
VERTEX
8
Schnitt
10
84.619000
20
36.294000
30
0.0
0
VERTEX
8
Schnitt
10
84.770000
20
36.754000
30
0.0
0
VERTEX
8
Schnitt
10
85.068000
20
37.568000
30
0.0
0
VERTEX
8
Schnitt
10
85.385000
20
38.373000
30
0.0
0
VERTEX
8
Schnitt
10
85.705000
20
39.175000
30
0.0
0
VERTEX
8
Schnitt
10
86.011000
20
39.980000
30
0.0
0
VERTEX
8
Schnitt
10
86.286000
20
40.794000
30
0.0
0
VERTEX
8
Schnitt
10
86.522000
20
41.635000
30
0.0
0
VERTEX
8
Schnitt
10
86.717000
20
42.488000
30
0.0
0
VERTEX
8
Schnitt
10
86.878000
20
43.350000
30
0.0
0
VERTEX
8
Schnitt
10
87.013000
20
44.217000
30
0.0
0
VERTEX
8
Schnitt
10
87.129000
20
45.087000
30
0.0
0
VERTEX
8
Schnitt
10
87.261000
20
46.226000
30
0.0
0
VERTEX
8
Schnitt
10
87.368000
20
47.365000
30
0.0
0
VERTEX
8
Schnitt
10
87.442000
20
48.507000
30
0.0
0
VERTEX
8
Schnitt
10
87.477000
20
49.654000
30
0.0
0
VERTEX
8
Schnitt
10
87.466000
20
50.810000
30
0.0
0
VERTEX
8
Schnitt
10
87.438000
20
51.422000
30
0.0
0
VERTEX
8
Schnitt
10
87.387000
20
52.031000
30
0.0
0
VERTEX
8
Schnitt
10
87.303000
20
52.632000
30
0.0
0
VERTEX
8
Schnitt
10
87.177000
20
53.221000
30
0.0
0
VERTEX
8
Schnitt
10
87.001000
20
53.791000
30
0.0
0
VERTEX
8
Schnitt
10
86.802000
20
54.266000
30
0.0
0
VERTEX
8
Schnitt
10
86.562000
20
54.725000
30
0.0
0
VERTEX
8
Schnitt
10
86.285000
20
55.166000
30
0.0
0
VERTEX
8
Schnitt
10
85.976000
20
55.591000
30
0.0
0
VERTEX
8
Schnitt
10
85.639000
20
56.001000
30
0.0
0
VERTEX
8
Schnitt
10
85.278000
20
56.395000
30
0.0
0
VERTEX
8
Schnitt
10
84.896000
20
56.774000
30
0.0
0
VERTEX
8
Schnitt
10
84.499000
20
57.140000
30
0.0
0
VERTEX
8
Schnitt
10
83.674000
20
57.830000
30
0.0
0
VERTEX
8
Schnitt
10
83.063000
20
58.300000
30
0.0
0
VERTEX
8
Schnitt
10
82.443000
20
58.744000
30
0.0
0
VERTEX
8
Schnitt
10
81.813000
20
59.164000
30
0.0
0
VERTEX
8
Schnitt
10
81.171000
20
59.560000
30
0.0
0
VERTEX
8
Schnitt
10
80.516000
20
59.935000
30
0.0
0
VERTEX
8
Schnitt
10
79.995000
20
60.213000
30
0.0
0
VERTEX
8
Schnitt
10
79.470000
20
60.484000
30
0.0
0
VERTEX
8
Schnitt
10
78.944000
20
60.755000
30
0.0
0
VERTEX
8
Schnitt
10
78.421000
20
61.033000
30
0.0
0
VERTEX
8
Schnitt
10
77.905000
20
61.323000
30
0.0
0
VERTEX
8
Schnitt
10
77.622000
20
61.493000
30
0.0
0
VERTEX
8
Schnitt
10
77.343000
20
61.667000
30
0.0
0
VERTEX
8
Schnitt
10
77.065000
20
61.845000
30
0.0
0
VERTEX
8
Schnitt
10
76.790000
20
62.025000
30
0.0
0
VERTEX
8
Schnitt
10
76.515000
20
62.207000
30
0.0
0
VERTEX
8
Schnitt
10
76.313000
20
62.342000
30
0.0
0
VERTEX
8
Schnitt
10
76.110000
20
62.476000
30
0.0
0
VERTEX
8
Schnitt
10
75.908000
20
62.611000
30
0.0
0
VERTEX
8
Schnitt
10
75.707000
20
62.746000
30
0.0
0
VERTEX
8
Schnitt
10
75.505000
20
62.880000
30
0.0
0
VERTEX
8
Schnitt
10
75.324000
20
62.731000
30
0.0
0
VERTEX
8
Schnitt
10
75.144000
20
62.582000
30
0.0
0
VERTEX
8
Schnitt
10
74.965000
20
62.431000
30
0.0
0
VERTEX
8
Schnitt
10
74.788000
20
62.278000
30
0.0
0
VERTEX
8
Schnitt
10
74.613000
20
62.122000
30
0.0
0
VERTEX
8
Schnitt
10
74.003000
20
61.529000
30
0.0
0
VERTEX
8
Schnitt
10
73.430000
20
60.899000
30
0.0
0
VERTEX
8
Schnitt
10
72.887000
20
60.239000
30
0.0
0
VERTEX
8
Schnitt
10
72.368000
20
59.557000
30
0.0
0
VERTEX
8
Schnitt
10
71.866000
20
58.862000
30
0.0
0
VERTEX
8
Schnitt
10
70.865000
20
57.405000
30
0.0
0
VERTEX
8
Schnitt
10
69.887000
20
55.937000
30
0.0
0
VERTEX
8
Schnitt
10
68.908000
20
54.475000
30
0.0
0
VERTEX
8
Schnitt
10
67.902000
20
53.036000
30
0.0
0
VERTEX
8
Schnitt
10
67.382000
20
52.330000
30
0.0
0
VERTEX
8
Schnitt
10
66.845000
20
51.636000
30
0.0
0
VERTEX
8
Schnitt
10
66.270000
20
50.932000
30
0.0
0
VERTEX
8
Schnitt
10
65.678000
20
50.239000
30
0.0
0
VERTEX
8
Schnitt
10
64.463000
20
48.879000
30
0.0
0
VERTEX
8
Schnitt
10
63.232000
20
47.530000
30
0.0
0
VERTEX
8
Schnitt
10
62.019000
20
46.167000
30
0.0
0
VERTEX
8
Schnitt
10
61.429000
20
45.474000
30
0.0
0
VERTEX
8
Schnitt
10
60.856000
20
44.768000
30
0.0
0
VERTEX
8
Schnitt
10
60.146000
20
43.841000
30
0.0
0
VERTEX
8
Schnitt
10
59.448000
20
42.905000
30
0.0
0
VERTEX
8
Schnitt
10
58.736000
20
41.977000
30
0.0
0
VERTEX
8
Schnitt
10
57.989000
20
41.073000
30
0.0
0
VERTEX
8
Schnitt
10
57.594000
20
40.636000
30
0.0
0
VERTEX
8
Schnitt
10
57.182000
20
40.211000
30
0.0
0
VERTEX
8
Schnitt
10
56.872000
20
39.911000
30
0.0
0
VERTEX
8
Schnitt
10
56.563000
20
39.612000
30
0.0
0
VERTEX
8
Schnitt
10
56.266000
20
39.306000
30
0.0
0
VERTEX
8
Schnitt
10
55.992000
20
38.987000
30
0.0
0
VERTEX
8
Schnitt
10
55.753000
20
38.647000
30
0.0
0
VERTEX
8
Schnitt
10
55.535000
20
38.238000
30
0.0
0
VERTEX
8
Schnitt
10
55.363000
20
37.802000
30
0.0
0
VERTEX
8
Schnitt
10
55.225000
20
37.346000
30
0.0
0
VERTEX
8
Schnitt
10
55.109000
20
36.877000
30
0.0
0
VERTEX
8
Schnitt
10
55.004000
20
36.403000
30
0.0
0
VERTEX
8
Schnitt
10
54.856000
20
35.745000
30
0.0
0
VERTEX
8
Schnitt
10
54.693000
20
35.097000
30
0.0
0
VERTEX
8
Schnitt
10
54.501000
20
34.465000
30
0.0
0
VERTEX
8
Schnitt
10
54.269000
20
33.855000
30
0.0
0
VERTEX
8
Schnitt
10
53.983000
20
33.275000
30
0.0
0
VERTEX
8
Schnitt
10
53.705000
20
32.828000
30
0.0
0
VERTEX
8
Schnitt
10
53.393000
20
32.399000
30
0.0
0
VERTEX
8
Schnitt
10
53.057000
20
31.983000
30
0.0
0
VERTEX
8
Schnitt
10
52.706000
20
31.574000
30
0.0
0
VERTEX
8
Schnitt
10
52.350000
20
31.167000
30
0.0
0
VERTEX
8
Schnitt
10
51.716000
20
30.421000
30
0.0
0
VERTEX
8
Schnitt
10
51.109000
20
29.660000
30
0.0
0
VERTEX
8
Schnitt
10
50.540000
20
28.877000
30
0.0
0
VERTEX
8
Schnitt
10
50.020000
20
28.066000
30
0.0
0
VERTEX
8
Schnitt
10
49.560000
20
27.223000
30
0.0
0
VERTEX
8
Schnitt
10
49.258000
20
26.568000
30
0.0
0
VERTEX
8
Schnitt
10
48.986000
20
25.897000
30
0.0
0
VERTEX
8
Schnitt
10
48.733000
20
25.217000
30
0.0
0
VERTEX
8
Schnitt
10
48.487000
20
24.533000
30
0.0
0
VERTEX
8
Schnitt
10
48.240000
20
23.852000
30
0.0
0
VERTEX
8
Schnitt
10
47.947000
20
23.091000
30
0.0
0
VERTEX
8
Schnitt
10
47.642000
20
22.336000
30
0.0
0
VERTEX
8
Schnitt
10
47.327000
20
21.583000
30
0.0
0
VERTEX
8
Schnitt
10
47.005000
20
20.829000
30
0.0
0
VERTEX
8
Schnitt
10
46.681000
20
20.068000
30
0.0
0
VERTEX
8
Schnitt
10
46.531000
20
19.709000
30
0.0
0
VERTEX
8
Schnitt
10
46.391000
20
19.347000
30
0.0
0
VERTEX
8
Schnitt
10
46.271000
20
18.981000
30
0.0
0
VERTEX
8
Schnitt
10
46.180000
20
18.611000
30
0.0
0
VERTEX
8
Schnitt
10
46.128000
20
18.236000
30
0.0
0
VERTEX
8
Schnitt
10
46.118000
20
18.037000
30
0.0
0
VERTEX
8
Schnitt
10
46.119000
20
17.836000
30
0.0
0
VERTEX
8
Schnitt
10
46.126000
20
17.635000
30
0.0
0
VERTEX
8
Schnitt
10
46.136000
20
17.433000
30
0.0
0
VERTEX
8
Schnitt
10
46.144000
20
17.231000
30
0.0
0
VERTEX
8
Schnitt
10
46.150000
20
16.929000
30
0.0
0
VERTEX
8
Schnitt
10
46.147000
20
16.628000
30
0.0
0
VERTEX
8
Schnitt
10
46.136000
20
16.326000
30
0.0
0
VERTEX
8
Schnitt
10
46.118000
20
16.026000
30
0.0
0
VERTEX
8
Schnitt
10
46.094000
20
15.725000
30
0.0
0
VERTEX
8
Schnitt
10
46.059000
20
15.369000
30
0.0
0
VERTEX
8
Schnitt
10
46.012000
20
15.014000
30
0.0
0
VERTEX
8
Schnitt
10
45.952000
20
14.661000
30
0.0
0
VERTEX
8
Schnitt
10
45.874000
20
14.312000
30
0.0
0
VERTEX
8
Schnitt
10
45.776000
20
13.967000
30
0.0
0
VERTEX
8
Schnitt
10
45.699000
20
13.747000
30
0.0
0
VERTEX
8
Schnitt
10
45.612000
20
13.531000
30
0.0
0
VERTEX
8
Schnitt
10
45.512000
20
13.322000
30
0.0
0
VERTEX
8
Schnitt
10
45.400000
20
13.120000
30
0.0
0
VERTEX
8
Schnitt
10
45.273000
20
12.929000
30
0.0
0
VERTEX
8
Schnitt
10
45.050000
20
12.655000
30
0.0
0
VERTEX
8
Schnitt
10
44.801000
20
12.400000
30
0.0
0
VERTEX
8
Schnitt
10
44.539000
20
12.156000
30
0.0
0
VERTEX
8
Schnitt
10
44.273000
20
11.914000
30
0.0
0
VERTEX
8
Schnitt
10
44.015000
20
11.664000
30
0.0
0
VERTEX
8
Schnitt
10
43.831000
20
11.470500
30
0.0
0
VERTEX
8
Schnitt
10
43.646000
20
11.278000
30
0.0
0
VERTEX
8
Schnitt
10
43.516000
20
11.157000
30
0.0
0
VERTEX
8
Schnitt
10
43.378000
20
11.045000
30
0.0
0
VERTEX
8
Schnitt
10
43.241000
20
10.950500
30
0.0
0
VERTEX
8
Schnitt
10
43.105000
20
10.856000
30
0.0
0
VERTEX
8
Schnitt
10
43.020000
20
10.787000
30
0.0
0
VERTEX
8
Schnitt
10
42.943000
20
10.710000
30
0.0
0
VERTEX
8
Schnitt
10
42.877000
20
10.623000
30
0.0
0
VERTEX
8
Schnitt
10
42.823000
20
10.527000
30
0.0
0
VERTEX
8
Schnitt
10
42.780000
20
10.425000
30
0.0
0
VERTEX
8
Schnitt
10
42.747000
20
10.317000
30
0.0
0
VERTEX
8
Schnitt
10
42.725000
20
10.208000
30
0.0
0
VERTEX
8
Schnitt
10
42.710000
20
10.044000
30
0.0
0
VERTEX
8
Schnitt
10
42.712000
20
9.880000
30
0.0
0
VERTEX
8
Schnitt
10
42.725000
20
9.716000
30
0.0
0
VERTEX
8
Schnitt
10
42.750000
20
9.470000
30
0.0
0
VERTEX
8
Schnitt
10
42.771000
20
9.110000
30
0.0
0
VERTEX
8
Schnitt
10
42.766000
20
8.832000
30
0.0
0
VERTEX
8
Schnitt
10
42.746000
20
8.554000
30
0.0
0
VERTEX
8
Schnitt
10
42.714000
20
8.276000
30
0.0
0
VERTEX
8
Schnitt
10
42.674000
20
7.998000
30
0.0
0
VERTEX
8
Schnitt
10
42.623000
20
7.697000
30
0.0
0
VERTEX
8
Schnitt
10
42.561000
20
7.397000
30
0.0
0
VERTEX
8
Schnitt
10
42.482000
20
7.103000
30
0.0
0
VERTEX
8
Schnitt
10
42.382000
20
6.817000
30
0.0
0
VERTEX
8
Schnitt
10
42.255000
20
6.542000
30
0.0
0
VERTEX
8
Schnitt
10
42.113000
20
6.302000
30
0.0
0
VERTEX
8
Schnitt
10
41.947000
20
6.076000
30
0.0
0
VERTEX
8
Schnitt
10
41.757000
20
5.868000
30
0.0
0
VERTEX
8
Schnitt
10
41.547000
20
5.682000
30
0.0
0
VERTEX
8
Schnitt
10
41.317000
20
5.521000
30
0.0
0
VERTEX
8
Schnitt
10
41.067000
20
5.383000
30
0.0
0
VERTEX
8
Schnitt
10
40.809000
20
5.261000
30
0.0
0
VERTEX
8
Schnitt
10
40.551000
20
5.141000
30
0.0
0
VERTEX
8
Schnitt
10
40.304000
20
5.009000
30
0.0
0
VERTEX
8
Schnitt
10
40.078000
20
4.851000
30
0.0
0
VERTEX
8
Schnitt
10
39.938000
20
4.721000
30
0.0
0
VERTEX
8
Schnitt
10
39.811000
20
4.576000
30
0.0
0
VERTEX
8
Schnitt
10
39.695000
20
4.419000
30
0.0
0
VERTEX
8
Schnitt
10
39.589000
20
4.253000
30
0.0
0
VERTEX
8
Schnitt
10
39.491000
20
4.081000
30
0.0
0
VERTEX
8
Schnitt
10
39.320000
20
3.737000
30
0.0
0
VERTEX
8
Schnitt
10
39.167000
20
3.387000
30
0.0
0
VERTEX
8
Schnitt
10
39.021000
20
3.037000
30
0.0
0
VERTEX
8
Schnitt
10
38.873000
20
2.690000
30
0.0
0
VERTEX
8
Schnitt
10
38.714000
20
2.351000
30
0.0
0
VERTEX
8
Schnitt
10
38.599000
20
2.136000
30
0.0
0
VERTEX
8
Schnitt
10
38.474000
20
1.926000
30
0.0
0
VERTEX
8
Schnitt
10
38.338000
20
1.721000
30
0.0
0
VERTEX
8
Schnitt
10
38.190000
20
1.520000
30
0.0
0
VERTEX
8
Schnitt
10
38.028000
20
1.324000
30
0.0
0
VERTEX
8
Schnitt
10
37.836000
20
1.115000
30
0.0
0
VERTEX
8
Schnitt
10
37.627000
20
0.922000
30
0.0
0
VERTEX
8
Schnitt
10
37.404000
20
0.757000
30
0.0
0
VERTEX
8
Schnitt
10
37.166000
20
0.630000
30
0.0
0
VERTEX
8
Schnitt
10
36.914000
20
0.552000
30
0.0
0
VERTEX
8
Schnitt
10
36.648000
20
0.532000
30
0.0
0
VERTEX
8
Schnitt
10
36.375000
20
0.565000
30
0.0
0
VERTEX
8
Schnitt
10
36.103000
20
0.643000
30
0.0
0
VERTEX
8
Schnitt
10
35.837000
20
0.755000
30
0.0
0
VERTEX
8
Schnitt
10
35.586000
20
0.895000
30
0.0
0
VERTEX
8
Schnitt
10
35.286000
20
1.104000
30
0.0
0
VERTEX
8
Schnitt
10
35.014000
20
1.339000
30
0.0
0
VERTEX
8
Schnitt
10
34.763000
20
1.592000
30
0.0
0
VERTEX
8
Schnitt
10
34.527000
20
1.860000
30
0.0
0
VERTEX
8
Schnitt
10
34.300000
20
2.137000
30
0.0
0
VERTEX
8
Schnitt
10
33.847000
20
2.715000
30
0.0
0
VERTEX
8
Schnitt
10
33.418000
20
3.312000
30
0.0
0
VERTEX
8
Schnitt
10
33.026000
20
3.933000
30
0.0
0
VERTEX
8
Schnitt
10
32.687000
20
4.582000
30
0.0
0
VERTEX
8
Schnitt
10
32.542000
20
4.918000
30
0.0
0
VERTEX
8
Schnitt
10
32.415000
20
5.263000
30
0.0
0
VERTEX
8
Schnitt
10
32.306000
20
5.628000
30
0.0
0
VERTEX
8
Schnitt
10
32.219000
20
6.002000
30
0.0
0
VERTEX
8
Schnitt
10
32.153000
20
6.381000
30
0.0
0
VERTEX
8
Schnitt
10
32.111000
20
6.764000
30
0.0
0
VERTEX
8
Schnitt
10
32.090000
20
7.149000
30
0.0
0
VERTEX
8
Schnitt
10
32.092000
20
7.534000
30
0.0
0
VERTEX
8
Schnitt
10
32.117000
20
7.917000
30
0.0
0
VERTEX
8
Schnitt
10
32.165000
20
8.295000
30
0.0
0
VERTEX
8
Schnitt
10
32.236000
20
8.667000
30
0.0
0
VERTEX
8
Schnitt
10
32.329000
20
9.031000
30
0.0
0
VERTEX
8
Schnitt
10
32.554000
20
9.656000
30
0.0
0
VERTEX
8
Schnitt
10
32.847000
20
10.252000
30
0.0
0
VERTEX
8
Schnitt
10
33.203000
20
10.822000
30
0.0
0
VERTEX
8
Schnitt
10
33.618000
20
11.370000
30
0.0
0
VERTEX
8
Schnitt
10
34.086000
20
11.900000
30
0.0
0
VERTEX
8
Schnitt
10
34.379000
20
12.196000
30
0.0
0
VERTEX
8
Schnitt
10
34.689000
20
12.469000
30
0.0
0
VERTEX
8
Schnitt
10
35.014000
20
12.701000
30
0.0
0
VERTEX
8
Schnitt
10
35.356000
20
12.874000
30
0.0
0
VERTEX
8
Schnitt
10
35.533000
20
12.933000
30
0.0
0
VERTEX
8
Schnitt
10
35.714000
20
12.970000
30
0.0
0
VERTEX
8
Schnitt
10
35.969000
20
12.985000
30
0.0
0
VERTEX
8
Schnitt
10
36.231000
20
12.964000
30
0.0
0
VERTEX
8
Schnitt
10
36.498000
20
12.920000
30
0.0
0
VERTEX
8
Schnitt
10
36.769000
20
12.861000
30
0.0
0
VERTEX
8
Schnitt
10
37.043000
20
12.799000
30
0.0
0
VERTEX
8
Schnitt
10
37.149000
20
12.777500
30
0.0
0
VERTEX
8
Schnitt
10
37.253000
20
12.760000
30
0.0
0
VERTEX
8
Schnitt
10
37.321000
20
12.755000
30
0.0
0
VERTEX
8
Schnitt
10
37.386000
20
12.756000
30
0.0
0
VERTEX
8
Schnitt
10
37.509000
20
12.780000
30
0.0
0
VERTEX
8
Schnitt
10
37.621000
20
12.833000
30
0.0
0
VERTEX
8
Schnitt
10
37.723000
20
12.910000
30
0.0
0
VERTEX
8
Schnitt
10
37.816000
20
13.009000
30
0.0
0
VERTEX
8
Schnitt
10
37.979000
20
13.258000
30
0.0
0
VERTEX
8
Schnitt
10
38.118000
20
13.553000
30
0.0
0
VERTEX
8
Schnitt
10
38.243000
20
13.869000
30
0.0
0
VERTEX
8
Schnitt
10
38.801000
20
15.441000
30
0.0
0
VERTEX
8
Schnitt
10
39.266000
20
16.880000
30
0.0
0
VERTEX
8
Schnitt
10
39.701000
20
18.221000
30
0.0
0
VERTEX
8
Schnitt
10
40.166000
20
19.493000
30
0.0
0
VERTEX
8
Schnitt
10
40.430000
20
20.114000
30
0.0
0
VERTEX
8
Schnitt
10
40.726000
20
20.730000
30
0.0
0
VERTEX
8
Schnitt
10
41.276000
20
21.723000
30
0.0
0
VERTEX
8
Schnitt
10
41.893000
20
22.718000
30
0.0
0
VERTEX
8
Schnitt
10
42.540000
20
23.720000
30
0.0
0
VERTEX
8
Schnitt
10
43.182000
20
24.734000
30
0.0
0
VERTEX
8
Schnitt
10
43.784000
20
25.766000
30
0.0
0
VERTEX
8
Schnitt
10
44.143000
20
26.455000
30
0.0
0
VERTEX
8
Schnitt
10
44.475000
20
27.153000
30
0.0
0
VERTEX
8
Schnitt
10
44.788000
20
27.860000
30
0.0
0
VERTEX
8
Schnitt
10
45.086000
20
28.574000
30
0.0
0
VERTEX
8
Schnitt
10
45.378000
20
29.295000
30
0.0
0
VERTEX
8
Schnitt
10
45.475000
20
29.540000
30
0.0
0
VERTEX
8
Schnitt
10
45.567000
20
29.787000
30
0.0
0
VERTEX
8
Schnitt
10
45.649000
20
30.036000
30
0.0
0
VERTEX
8
Schnitt
10
45.717000
20
30.288000
30
0.0
0
VERTEX
8
Schnitt
10
45.765000
20
30.544000
30
0.0
0
VERTEX
8
Schnitt
10
45.798000
20
31.069000
30
0.0
0
VERTEX
8
Schnitt
10
45.775000
20
31.604000
30
0.0
0
VERTEX
8
Schnitt
10
45.741000
20
32.139000
30
0.0
0
VERTEX
8
Schnitt
10
45.738000
20
32.664000
30
0.0
0
VERTEX
8
Schnitt
10
45.761000
20
32.920000
30
0.0
0
VERTEX
8
Schnitt
10
45.808000
20
33.169000
30
0.0
0
VERTEX
8
Schnitt
10
45.884000
20
33.417000
30
0.0
0
VERTEX
8
Schnitt
10
45.985000
20
33.659000
30
0.0
0
VERTEX
8
Schnitt
10
46.239000
20
34.131000
30
0.0
0
VERTEX
8
Schnitt
10
46.525000
20
34.596000
30
0.0
0
VERTEX
8
Schnitt
10
46.799000
20
35.068000
30
0.0
0
VERTEX
8
Schnitt
10
46.918000
20
35.310000
30
0.0
0
VERTEX
8
Schnitt
10
47.017000
20
35.558000
30
0.0
0
VERTEX
8
Schnitt
10
47.131000
20
35.997000
30
0.0
0
VERTEX
8
Schnitt
10
47.182000
20
36.450000
30
0.0
0
VERTEX
8
Schnitt
10
47.180000
20
36.913000
30
0.0
0
VERTEX
8
Schnitt
10
47.136000
20
37.378000
30
0.0
0
VERTEX
8
Schnitt
10
47.060000
20
37.839000
30
0.0
0
VERTEX
8
Schnitt
10
46.967000
20
38.273000
30
0.0
0
VERTEX
8
Schnitt
10
46.868000
20
38.702000
30
0.0
0
VERTEX
8
Schnitt
10
46.777000
20
39.128000
30
0.0
0
VERTEX
8
Schnitt
10
46.707000
20
39.557000
30
0.0
0
VERTEX
8
Schnitt
10
46.672000
20
39.991000
30
0.0
0
VERTEX
8
Schnitt
10
46.678000
20
40.337000
30
0.0
0
VERTEX
8
Schnitt
10
46.714000
20
40.684000
30
0.0
0
VERTEX
8
Schnitt
10
46.783000
20
41.025000
30
0.0
0
VERTEX
8
Schnitt
10
46.883000
20
41.356000
30
0.0
0
VERTEX
8
Schnitt
10
47.017000
20
41.670000
30
0.0
0
VERTEX
8
Schnitt
10
47.190000
20
41.976000
30
0.0
0
VERTEX
8
Schnitt
10
47.394000
20
42.262000
30
0.0
0
VERTEX
8
Schnitt
10
47.623000
20
42.532000
30
0.0
0
VERTEX
8
Schnitt
10
47.871000
20
42.789000
30
0.0
0
VERTEX
8
Schnitt
10
48.401000
20
43.284000
30
0.0
0
VERTEX
8
Schnitt
10
48.935000
20
43.776000
30
0.0
0
VERTEX
8
Schnitt
10
49.429000
20
44.296000
30
0.0
0
VERTEX
8
Schnitt
10
49.661000
20
44.595000
30
0.0
0
VERTEX
8
Schnitt
10
49.872000
20
44.908000
30
0.0
0
VERTEX
8
Schnitt
10
50.239000
20
45.570000
30
0.0
0
VERTEX
8
Schnitt
10
50.558000
20
46.267000
30
0.0
0
VERTEX
8
Schnitt
10
50.854000
20
46.981000
30
0.0
0
VERTEX
8
Schnitt
10
51.152000
20
47.696000
30
0.0
0
VERTEX
8
Schnitt
10
51.611000
20
48.691000
30
0.0
0
VERTEX
8
Schnitt
10
52.094000
20
49.670000
30
0.0
0
VERTEX
8
Schnitt
10
52.565000
20
50.645000
30
0.0
0
VERTEX
8
Schnitt
10
52.992000
20
51.630000
30
0.0
0
VERTEX
8
Schnitt
10
53.178000
20
52.131000
30
0.0
0
VERTEX
8
Schnitt
10
53.340000
20
52.639000
30
0.0
0
VERTEX
8
Schnitt
10
53.463000
20
53.108000
30
0.0
0
VERTEX
8
Schnitt
10
53.565000
20
53.585000
30
0.0
0
VERTEX
8
Schnitt
10
53.712000
20
54.554000
30
0.0
0
VERTEX
8
Schnitt
10
53.795000
20
55.538000
30
0.0
0
VERTEX
8
Schnitt
10
53.826000
20
56.532000
30
0.0
0
VERTEX
8
Schnitt
10
53.822000
20
57.526000
30
0.0
0
VERTEX
8
Schnitt
10
53.780000
20
58.832000
30
0.0
0
VERTEX
8
Schnitt
10
53.705000
20
60.130000
30
0.0
0
VERTEX
8
Schnitt
10
53.603000
20
61.422000
30
0.0
0
VERTEX
8
Schnitt
10
53.479000
20
62.710000
30
0.0
0
VERTEX
8
Schnitt
10
53.340000
20
63.997000
30
0.0
0
VERTEX
8
Schnitt
10
53.248000
20
64.795000
30
0.0
0
VERTEX
8
Schnitt
10
53.153000
20
65.593000
30
0.0
0
VERTEX
8
Schnitt
10
53.056000
20
66.392000
30
0.0
0
VERTEX
8
Schnitt
10
52.957000
20
67.191000
30
0.0
0
VERTEX
8
Schnitt
10
52.858000
20
67.990000
30
0.0
0
VERTEX
8
Schnitt
10
51.967000
20
66.518000
30
0.0
0
VERTEX
8
Schnitt
10
51.059000
20
65.059000
30
0.0
0
VERTEX
8
Schnitt
10
50.118000
20
63.627000
30
0.0
0
VERTEX
8
Schnitt
10
49.126000
20
62.234000
30
0.0
0
VERTEX
8
Schnitt
10
48.607000
20
61.557000
30
0.0
0
VERTEX
8
Schnitt
10
48.069000
20
60.894000
30
0.0
0
VERTEX
8
Schnitt
10
47.614000
20
60.364000
30
0.0
0
VERTEX
8
Schnitt
10
47.145000
20
59.845000
30
0.0
0
VERTEX
8
Schnitt
10
46.664000
20
59.337000
30
0.0
0
VERTEX
8
Schnitt
10
46.170000
20
58.839000
30
0.0
0
VERTEX
8
Schnitt
10
45.665000
20
58.351000
30
0.0
0
VERTEX
8
Schnitt
10
44.701000
20
57.467000
30
0.0
0
VERTEX
8
Schnitt
10
43.726000
20
56.595000
30
0.0
0
VERTEX
8
Schnitt
10
42.766000
20
55.712000
30
0.0
0
VERTEX
8
Schnitt
10
41.848000
20
54.798000
30
0.0
0
VERTEX
8
Schnitt
10
41.413000
20
54.322000
30
0.0
0
VERTEX
8
Schnitt
10
40.999000
20
53.829000
30
0.0
0
VERTEX
8
Schnitt
10
40.360000
20
52.968000
30
0.0
0
VERTEX
8
Schnitt
10
39.775000
20
52.065000
30
0.0
0
VERTEX
8
Schnitt
10
39.232000
20
51.128000
30
0.0
0
VERTEX
8
Schnitt
10
38.718000
20
50.169000
30
0.0
0
VERTEX
8
Schnitt
10
37.729000
20
48.219000
30
0.0
0
VERTEX
8
Schnitt
10
37.229000
20
47.249000
30
0.0
0
VERTEX
8
Schnitt
10
36.709000
20
46.295000
30
0.0
0
VERTEX
8
Schnitt
10
36.156000
20
45.367000
30
0.0
0
VERTEX
8
Schnitt
10
35.557000
20
44.476000
30
0.0
0
VERTEX
8
Schnitt
10
34.976000
20
43.715000
30
0.0
0
VERTEX
8
Schnitt
10
34.354000
20
42.988000
30
0.0
0
VERTEX
8
Schnitt
10
33.694000
20
42.290000
30
0.0
0
VERTEX
8
Schnitt
10
33.003000
20
41.618000
30
0.0
0
VERTEX
8
Schnitt
10
32.283000
20
40.969000
30
0.0
0
VERTEX
8
Schnitt
10
31.541000
20
40.337000
30
0.0
0
VERTEX
8
Schnitt
10
30.006000
20
39.115000
30
0.0
0
VERTEX
8
Schnitt
10
28.434000
20
37.922000
30
0.0
0
VERTEX
8
Schnitt
10
28.698000
20
38.341000
30
0.0
0
VERTEX
8
Schnitt
10
28.965000
20
38.759000
30
0.0
0
VERTEX
8
Schnitt
10
29.236000
20
39.173000
30
0.0
0
VERTEX
8
Schnitt
10
29.514000
20
39.582000
30
0.0
0
VERTEX
8
Schnitt
10
29.800000
20
39.985000
30
0.0
0
VERTEX
8
Schnitt
10
30.015000
20
40.274000
30
0.0
0
VERTEX
8
Schnitt
10
30.235000
20
40.560000
30
0.0
0
VERTEX
8
Schnitt
10
30.458000
20
40.842000
30
0.0
0
VERTEX
8
Schnitt
10
30.683000
20
41.124000
30
0.0
0
VERTEX
8
Schnitt
10
30.910000
20
41.404000
30
0.0
0
VERTEX
8
Schnitt
10
30.202000
20
40.847000
30
0.0
0
VERTEX
8
Schnitt
10
29.489000
20
40.300000
30
0.0
0
VERTEX
8
Schnitt
10
28.766000
20
39.775000
30
0.0
0
VERTEX
8
Schnitt
10
28.029000
20
39.282000
30
0.0
0
VERTEX
8
Schnitt
10
27.272000
20
38.833000
30
0.0
0
VERTEX
8
Schnitt
10
26.338000
20
38.362000
30
0.0
0
VERTEX
8
Schnitt
10
25.372000
20
37.960000
30
0.0
0
VERTEX
8
Schnitt
10
24.378000
20
37.620000
30
0.0
0
VERTEX
8
Schnitt
10
23.361000
20
37.333000
30
0.0
0
VERTEX
8
Schnitt
10
22.322000
20
37.091000
30
0.0
0
VERTEX
8
Schnitt
10
21.266000
20
36.888000
30
0.0
0
VERTEX
8
Schnitt
10
20.195000
20
36.716000
30
0.0
0
VERTEX
8
Schnitt
10
19.115000
20
36.567000
30
0.0
0
VERTEX
8
Schnitt
10
16.936000
20
36.306000
30
0.0
0
VERTEX
8
Schnitt
10
17.144500
20
36.474500
30
0.0
0
VERTEX
8
Schnitt
10
17.355000
20
36.637000
30
0.0
0
VERTEX
8
Schnitt
10
17.499000
20
36.741000
30
0.0
0
VERTEX
8
Schnitt
10
17.646000
20
36.838000
30
0.0
0
VERTEX
8
Schnitt
10
17.991000
20
37.030000
30
0.0
0
VERTEX
8
Schnitt
10
18.355000
20
37.191000
30
0.0
0
VERTEX
8
Schnitt
10
18.731000
20
37.328000
30
0.0
0
VERTEX
8
Schnitt
10
19.116000
20
37.450000
30
0.0
0
VERTEX
8
Schnitt
10
19.505000
20
37.564000
30
0.0
0
VERTEX
8
Schnitt
10
17.249000
20
37.534000
30
0.0
0
VERTEX
8
Schnitt
10
14.993000
20
37.516000
30
0.0
0
VERTEX
8
Schnitt
10
12.738000
20
37.520000
30
0.0
0
VERTEX
8
Schnitt
10
10.484000
20
37.560000
30
0.0
0
VERTEX
8
Schnitt
10
8.232000
20
37.646000
30
0.0
0
VERTEX
8
Schnitt
10
6.774000
20
37.730000
30
0.0
0
VERTEX
8
Schnitt
10
5.316000
20
37.834000
30
0.0
0
VERTEX
8
Schnitt
10
3.859000
20
37.953000
30
0.0
0
VERTEX
8
Schnitt
10
2.402000
20
38.081000
30
0.0
0
VERTEX
8
Schnitt
10
0.946000
20
38.214000
30
0.0
0
VERTEX
8
Schnitt
10
1.644000
20
38.555000
30
0.0
0
VERTEX
8
Schnitt
10
2.339000
20
38.902000
30
0.0
0
VERTEX
8
Schnitt
10
3.026000
20
39.261000
30
0.0
0
VERTEX
8
Schnitt
10
3.701000
20
39.638000
30
0.0
0
VERTEX
8
Schnitt
10
4.360000
20
40.039000
30
0.0
0
VERTEX
8
Schnitt
10
4.957000
20
40.438000
30
0.0
0
VERTEX
8
Schnitt
10
5.541000
20
40.857000
30
0.0
0
VERTEX
8
Schnitt
10
6.114000
20
41.292000
30
0.0
0
VERTEX
8
Schnitt
10
6.681000
20
41.738000
30
0.0
0
VERTEX
8
Schnitt
10
7.244000
20
42.189000
30
0.0
0
VERTEX
8
Schnitt
10
6.826000
20
42.181000
30
0.0
0
VERTEX
8
Schnitt
10
6.410000
20
42.179000
30
0.0
0
VERTEX
8
Schnitt
10
5.996000
20
42.190000
30
0.0
0
VERTEX
8
Schnitt
10
5.587000
20
42.222000
30
0.0
0
VERTEX
8
Schnitt
10
5.184000
20
42.281000
30
0.0
0
VERTEX
8
Schnitt
10
4.583000
20
42.430000
30
0.0
0
VERTEX
8
Schnitt
10
3.996000
20
42.642000
30
0.0
0
VERTEX
8
Schnitt
10
3.420000
20
42.900000
30
0.0
0
VERTEX
8
Schnitt
10
2.850000
20
43.189000
30
0.0
0
VERTEX
8
Schnitt
10
2.284000
20
43.494000
30
0.0
0
VERTEX
8
Schnitt
10
3.537000
20
43.614000
30
0.0
0
VERTEX
8
Schnitt
10
4.789000
20
43.747000
30
0.0
0
VERTEX
8
Schnitt
10
6.039000
20
43.903000
30
0.0
0
VERTEX
8
Schnitt
10
7.285000
20
44.097000
30
0.0
0
VERTEX
8
Schnitt
10
8.525000
20
44.338000
30
0.0
0
VERTEX
8
Schnitt
10
9.331000
20
44.529000
30
0.0
0
VERTEX
8
Schnitt
10
10.128000
20
44.750000
30
0.0
0
VERTEX
8
Schnitt
10
10.912000
20
45.010000
30
0.0
0
VERTEX
8
Schnitt
10
11.676000
20
45.313000
30
0.0
0
VERTEX
8
Schnitt
10
12.415000
20
45.665000
30
0.0
0
VERTEX
8
Schnitt
10
13.214000
20
46.122000
30
0.0
0
VERTEX
8
Schnitt
10
13.985000
20
46.627000
30
0.0
0
VERTEX
8
Schnitt
10
14.742000
20
47.160000
30
0.0
0
VERTEX
8
Schnitt
10
15.496000
20
47.700000
30
0.0
0
VERTEX
8
Schnitt
10
16.260000
20
48.226000
30
0.0
0
VERTEX
8
Schnitt
10
17.156000
20
48.793000
30
0.0
0
VERTEX
8
Schnitt
10
18.069000
20
49.333000
30
0.0
0
VERTEX
8
Schnitt
10
18.986000
20
49.863000
30
0.0
0
VERTEX
8
Schnitt
10
19.897000
20
50.403000
30
0.0
0
VERTEX
8
Schnitt
10
20.791000
20
50.970000
30
0.0
0
VERTEX
8
Schnitt
10
21.625000
20
51.557000
30
0.0
0
VERTEX
8
Schnitt
10
22.431000
20
52.183000
30
0.0
0
VERTEX
8
Schnitt
10
23.210000
20
52.845000
30
0.0
0
VERTEX
8
Schnitt
10
23.960000
20
53.540000
30
0.0
0
VERTEX
8
Schnitt
10
24.681000
20
54.264000
30
0.0
0
VERTEX
8
Schnitt
10
25.242000
20
54.866000
30
0.0
0
VERTEX
8
Schnitt
10
25.787000
20
55.483000
30
0.0
0
VERTEX
8
Schnitt
10
26.841000
20
56.745000
30
0.0
0
VERTEX
8
Schnitt
10
27.871000
20
58.029000
30
0.0
0
VERTEX
8
Schnitt
10
28.902000
20
59.312000
30
0.0
0
VERTEX
8
Schnitt
10
29.961000
20
60.570000
30
0.0
0
VERTEX
8
Schnitt
10
30.960000
20
61.676000
30
0.0
0
VERTEX
8
Schnitt
10
31.983000
20
62.761000
30
0.0
0
VERTEX
8
Schnitt
10
33.010000
20
63.843000
30
0.0
0
VERTEX
8
Schnitt
10
34.021000
20
64.940000
30
0.0
0
VERTEX
8
Schnitt
10
34.995000
20
66.068000
30
0.0
0
VERTEX
8
Schnitt
10
35.899000
20
67.217000
30
0.0
0
VERTEX
8
Schnitt
10
36.753000
20
68.408000
30
0.0
0
VERTEX
8
Schnitt
10
37.561000
20
69.635000
30
0.0
0
VERTEX
8
Schnitt
10
38.328000
20
70.891000
30
0.0
0
VERTEX
8
Schnitt
10
39.058000
20
72.171000
30
0.0
0
VERTEX
8
Schnitt
10
39.755000
20
73.469000
30
0.0
0
VERTEX
8
Schnitt
10
40.423000
20
74.779000
30
0.0
0
VERTEX
8
Schnitt
10
41.068000
20
76.096000
30
0.0
0
VERTEX
8
Schnitt
10
42.302000
20
78.724000
30
0.0
0
VERTEX
8
Schnitt
10
43.073000
20
80.397000
30
0.0
0
VERTEX
8
Schnitt
10
43.850000
20
82.064000
30
0.0
0
VERTEX
8
Schnitt
10
44.658000
20
83.736000
30
0.0
0
VERTEX
8
Schnitt
10
45.521000
20
85.427000
30
0.0
0
VERTEX
8
Schnitt
10
46.466000
20
87.148000
30
0.0
0
VERTEX
8
Schnitt
10
47.104000
20
88.236000
30
0.0
0
VERTEX
8
Schnitt
10
47.784000
20
89.319000
30
0.0
0
VERTEX
8
Schnitt
10
48.507000
20
90.377000
30
0.0
0
VERTEX
8
Schnitt
10
49.274000
20
91.389000
30
0.0
0
VERTEX
8
Schnitt
10
49.674000
20
91.870000
30
0.0
0
VERTEX
8
Schnitt
10
50.086000
20
92.333000
30
0.0
0
VERTEX
8
Schnitt
10
50.509000
20
92.773000
30
0.0
0
VERTEX
8
Schnitt
10
50.943000
20
93.188000
30
0.0
0
VERTEX
8
Schnitt
10
51.389000
20
93.576000
30
0.0
0
VERTEX
8
Schnitt
10
51.847000
20
93.934000
30
0.0
0
VERTEX
8
Schnitt
10
52.317000
20
94.259000
30
0.0
0
VERTEX
8
Schnitt
10
52.799000
20
94.549000
30
0.0
0
VERTEX
8
Schnitt
10
53.294000
20
94.801000
30
0.0
0
VERTEX
8
Schnitt
10
53.800000
20
95.012000
30
0.0
0
VERTEX
8
Schnitt
10
54.319000
20
95.180000
30
0.0
0
VERTEX
8
Schnitt
10
54.851000
20
95.303000
30
0.0
0
VERTEX
8
Schnitt
10
55.405000
20
95.379000
30
0.0
0
VERTEX
8
Schnitt
10
55.971000
20
95.410000
30
0.0
0
VERTEX
8
Schnitt
10
56.548000
20
95.400000
30
0.0
0
VERTEX
8
Schnitt
10
57.134000
20
95.356000
30
0.0
0
VERTEX
8
Schnitt
10
57.727000
20
95.282000
30
0.0
0
VERTEX
8
Schnitt
10
58.328000
20
95.182000
30
0.0
0
VERTEX
8
Schnitt
10
59.543000
20
94.928000
30
0.0
0
SEQEND
8
Schnitt
0
POLYLINE
8
Schnitt
66
1
70
1
0
VERTEX
8
Schnitt
10
101.117000
20
60.032000
30
0.0
0
VERTEX
8
Schnitt
10
102.451000
20
59.590000
30
0.0
0
VERTEX
8
Schnitt
10
103.787000
20
59.160000
30
0.0
0
VERTEX
8
Schnitt
10
105.128000
20
58.752000
30
0.0
0
VERTEX
8
Schnitt
10
106.476000
20
58.380000
30
0.0
0
VERTEX
8
Schnitt
10
107.834000
20
58.054000
30
0.0
0
VERTEX
8
Schnitt
10
108.792000
20
57.859000
30
0.0
0
VERTEX
8
Schnitt
10
109.756000
20
57.689000
30
0.0
0
VERTEX
8
Schnitt
10
110.724000
20
57.543000
30
0.0
0
VERTEX
8
Schnitt
10
111.696000
20
57.416000
30
0.0
0
VERTEX
8
Schnitt
10
113.650000
20
57.211000
30
0.0
0
VERTEX
8
Schnitt
10
115.613000
20
57.051000
30
0.0
0
VERTEX
8
Schnitt
10
117.581000
20
56.915000
30
0.0
0
VERTEX
8
Schnitt
10
117.500000
20
56.190000
30
0.0
0
VERTEX
8
Schnitt
10
117.419000
20
55.464000
30
0.0
0
VERTEX
8
Schnitt
10
117.336000
20
54.739000
30
0.0
0
VERTEX
8
Schnitt
10
117.250000
20
54.014000
30
0.0
0
VERTEX
8
Schnitt
10
117.162000
20
53.289000
30
0.0
0
VERTEX
8
Schnitt
10
116.876000
20
51.138000
30
0.0
0
VERTEX
8
Schnitt
10
116.554000
20
48.991000
30
0.0
0
VERTEX
8
Schnitt
10
116.196000
20
46.851000
30
0.0
0
VERTEX
8
Schnitt
10
115.800000
20
44.716000
30
0.0
0
VERTEX
8
Schnitt
10
115.364000
20
42.589000
30
0.0
0
VERTEX
8
Schnitt
10
115.083000
20
41.304000
30
0.0
0
VERTEX
8
Schnitt
10
114.799000
20
40.020000
30
0.0
0
VERTEX
8
Schnitt
10
114.525000
20
38.735000
30
0.0
0
VERTEX
8
Schnitt
10
114.275000
20
37.445000
30
0.0
0
VERTEX
8
Schnitt
10
114.060000
20
36.150000
30
0.0
0
VERTEX
8
Schnitt
10
113.943000
20
35.282000
30
0.0
0
VERTEX
8
Schnitt
10
113.845000
20
34.411000
30
0.0
0
VERTEX
8
Schnitt
10
113.768000
20
33.537000
30
0.0
0
VERTEX
8
Schnitt
10
113.708000
20
32.663000
30
0.0
0
VERTEX
8
Schnitt
10
113.667000
20
31.787000
30
0.0
0
VERTEX
8
Schnitt
10
113.647000
20
31.111000
30
0.0
0
VERTEX
8
Schnitt
10
113.637000
20
30.435000
30
0.0
0
VERTEX
8
Schnitt
10
113.639000
20
29.759000
30
0.0
0
VERTEX
8
Schnitt
10
113.654000
20
29.082000
30
0.0
0
VERTEX
8
Schnitt
10
113.682000
20
28.405000
30
0.0
0
VERTEX
8
Schnitt
10
113.718000
20
27.794000
30
0.0
0
VERTEX
8
Schnitt
10
113.756000
20
27.184000
30
0.0
0
VERTEX
8
Schnitt
10
113.789000
20
26.575000
30
0.0
0
VERTEX
8
Schnitt
10
113.807000
20
25.967000
30
0.0
0
VERTEX
8
Schnitt
10
113.802000
20
25.362000
30
0.0
0
VERTEX
8
Schnitt
10
113.742000
20
24.492000
30
0.0
0
VERTEX
8
Schnitt
10
113.629000
20
23.626000
30
0.0
0
VERTEX
8
Schnitt
10
113.477000
20
22.761000
30
0.0
0
VERTEX
8
Schnitt
10
113.299000
20
21.894000
30
0.0
0
VERTEX
8
Schnitt
10
113.109000
20
21.023000
30
0.0
0
VERTEX
8
Schnitt
10
112.945000
20
20.286000
30
0.0
0
VERTEX
8
Schnitt
10
112.764000
20
19.555000
30
0.0
0
VERTEX
8
Schnitt
10
112.544000
20
18.842000
30
0.0
0
VERTEX
8
Schnitt
10
112.266000
20
18.159000
30
0.0
0
VERTEX
8
Schnitt
10
112.099000
20
17.832000
30
0.0
0
VERTEX
8
Schnitt
10
111.910000
20
17.517000
30
0.0
0
VERTEX
8
Schnitt
10
111.656000
20
17.157000
30
0.0
0
VERTEX
8
Schnitt
10
111.383000
20
16.807000
30
0.0
0
VERTEX
8
Schnitt
10
111.107000
20
16.459000
30
0.0
0
VERTEX
8
Schnitt
10
110.844000
20
16.104000
30
0.0
0
VERTEX
8
Schnitt
10
110.608000
20
15.735000
30
0.0
0
VERTEX
8
Schnitt
10
110.461000
20
15.452000
30
0.0
0
VERTEX
8
Schnitt
10
110.337000
20
15.160000
30
0.0
0
VERTEX
8
Schnitt
10
110.143000
20
14.547000
30
0.0
0
VERTEX
8
Schnitt
10
110.013000
20
13.909000
30
0.0
0
VERTEX
8
Schnitt
10
109.932000
20
13.257000
30
0.0
0
VERTEX
8
Schnitt
10
109.885000
20
12.603000
30
0.0
0
VERTEX
8
Schnitt
10
109.867000
20
12.204000
30
0.0
0
VERTEX
8
Schnitt
10
109.854000
20
11.807000
30
0.0
0
VERTEX
8
Schnitt
10
109.846000
20
11.413000
30
0.0
0
VERTEX
8
Schnitt
10
109.841000
20
11.019000
30
0.0
0
VERTEX
8
Schnitt
10
109.837000
20
10.627000
30
0.0
0
VERTEX
8
Schnitt
10
109.519000
20
10.991000
30
0.0
0
VERTEX
8
Schnitt
10
109.198000
20
11.353000
30
0.0
0
VERTEX
8
Schnitt
10
108.872000
20
11.711000
30
0.0
0
VERTEX
8
Schnitt
10
108.540000
20
12.064000
30
0.0
0
VERTEX
8
Schnitt
10
108.197000
20
12.410000
30
0.0
0
VERTEX
8
Schnitt
10
107.749000
20
12.838000
30
0.0
0
VERTEX
8
Schnitt
10
107.298000
20
13.262000
30
0.0
0
VERTEX
8
Schnitt
10
106.858000
20
13.695000
30
0.0
0
VERTEX
8
Schnitt
10
106.445000
20
14.146000
30
0.0
0
VERTEX
8
Schnitt
10
106.076000
20
14.627000
30
0.0
0
VERTEX
8
Schnitt
10
105.753000
20
15.154000
30
0.0
0
VERTEX
8
Schnitt
10
105.472000
20
15.711000
30
0.0
0
VERTEX
8
Schnitt
10
105.212000
20
16.283000
30
0.0
0
VERTEX
8
Schnitt
10
104.954000
20
16.857000
30
0.0
0
VERTEX
8
Schnitt
10
104.678000
20
17.421000
30
0.0
0
VERTEX
8
Schnitt
10
104.401000
20
17.910000
30
0.0
0
VERTEX
8
Schnitt
10
104.097000
20
18.381000
30
0.0
0
VERTEX
8
Schnitt
10
103.771000
20
18.837000
30
0.0
0
VERTEX
8
Schnitt
10
103.425000
20
19.281000
30
0.0
0
VERTEX
8
Schnitt
10
102.691000
20
20.140000
30
0.0
0
VERTEX
8
Schnitt
10
101.925000
20
20.975000
30
0.0
0
VERTEX
8
Schnitt
10
101.159000
20
21.805000
30
0.0
0
VERTEX
8
Schnitt
10
100.375000
20
22.690000
30
0.0
0
VERTEX
8
Schnitt
10
99.613000
20
23.588000
30
0.0
0
VERTEX
8
Schnitt
10
98.862000
20
24.496000
30
0.0
0
VERTEX
8
Schnitt
10
98.111000
20
25.412000
30
0.0
0
VERTEX
8
Schnitt
10
97.350000
20
26.334000
30
0.0
0
VERTEX
8
Schnitt
10
96.928000
20
26.842000
30
0.0
0
VERTEX
8
Schnitt
10
96.516000
20
27.358000
30
0.0
0
VERTEX
8
Schnitt
10
96.133000
20
27.886000
30
0.0
0
VERTEX
8
Schnitt
10
95.793000
20
28.434000
30
0.0
0
VERTEX
8
Schnitt
10
95.514000
20
29.007000
30
0.0
0
VERTEX
8
Schnitt
10
95.383000
20
29.360000
30
0.0
0
VERTEX
8
Schnitt
10
95.277000
20
29.722000
30
0.0
0
VERTEX
8
Schnitt
10
95.194000
20
30.093000
30
0.0
0
VERTEX
8
Schnitt
10
95.130000
20
30.471000
30
0.0
0
VERTEX
8
Schnitt
10
95.053000
20
31.243000
30
0.0
0
VERTEX
8
Schnitt
10
95.027000
20
32.027000
30
0.0
0
VERTEX
8
Schnitt
10
95.032000
20
32.813000
30
0.0
0
VERTEX
8
Schnitt
10
95.056000
20
33.705000
30
0.0
0
VERTEX
8
Schnitt
10
95.099000
20
34.588000
30
0.0
0
VERTEX
8
Schnitt
10
95.163000
20
35.463000
30
0.0
0
VERTEX
8
Schnitt
10
95.252000
20
36.332000
30
0.0
0
VERTEX
8
Schnitt
10
95.369000
20
37.197000
30
0.0
0
VERTEX
8
Schnitt
10
95.520000
20
38.094000
30
0.0
0
VERTEX
8
Schnitt
10
95.696000
20
38.989000
30
0.0
0
VERTEX
8
Schnitt
10
95.889000
20
39.884000
30
0.0
0
VERTEX
8
Schnitt
10
96.090000
20
40.779000
30
0.0
0
VERTEX
8
Schnitt
10
96.291000
20
41.674000
30
0.0
0
VERTEX
8
Schnitt
10
96.643000
20
43.297000
30
0.0
0
VERTEX
8
Schnitt
10
96.993000
20
44.918000
30
0.0
0
VERTEX
8
Schnitt
10
97.367000
20
46.532000
30
0.0
0
VERTEX
8
Schnitt
10
97.787000
20
48.130000
30
0.0
0
VERTEX
8
Schnitt
10
98.021000
20
48.922000
30
0.0
0
VERTEX
8
Schnitt
10
98.277000
20
49.708000
30
0.0
0
VERTEX
8
Schnitt
10
98.561000
20
50.506000
30
0.0
0
VERTEX
8
Schnitt
10
98.858000
20
51.299000
30
0.0
0
VERTEX
8
Schnitt
10
99.158000
20
52.092000
30
0.0
0
VERTEX
8
Schnitt
10
99.450000
20
52.887000
30
0.0
0
VERTEX
8
Schnitt
10
99.723000
20
53.688000
30
0.0
0
VERTEX
8
Schnitt
10
100.087000
20
54.932000
30
0.0
0
VERTEX
8
Schnitt
10
100.394000
20
56.193000
30
0.0
0
VERTEX
8
Schnitt
10
100.659000
20
57.466000
30
0.0
0
VERTEX
8
Schnitt
10
100.895000
20
58.747000
30
0.0
0
SEQEND
8
Schnitt
0
ENDSEC
0
EOF